<?xml version="1.0" standalone="no"?>
<!DOCTYPE svg PUBLIC "-//W3C//DTD SVG 1.1//EN" "http://www.w3.org/Graphics/SVG/1.1/DTD/svg11.dtd" >
<svg xmlns="http://www.w3.org/2000/svg" xmlns:xlink="http://www.w3.org/1999/xlink" version="1.1">
<metadata></metadata>
<defs>
<font id="hello_honey_-_personal_useRg" horiz-adv-x="1380" >
<font-face units-per-em="2048" ascent="1536" descent="-512" />
<missing-glyph horiz-adv-x="819" />
<glyph unicode="&#xd;" horiz-adv-x="1040" />
<glyph horiz-adv-x="0" />
<glyph horiz-adv-x="0" />
<glyph unicode=" "  horiz-adv-x="819" />
<glyph unicode="&#x09;" horiz-adv-x="819" />
<glyph unicode="&#xa0;" horiz-adv-x="819" />
<glyph unicode="!" horiz-adv-x="421" d="M106 629q3 186 4.5 265.5t8.5 179.5t20 167q11 45 68 45q74 -4 74 -49v-6q-56 -240 -56 -748q0 -130 4 -270q0 -14 -14.5 -22.5t-34.5 -10.5q-35 0 -41 25q-33 145 -33 424zM139 37q0 21 16 36t38 15q21 0 36 -15t15 -36q0 -22 -14.5 -37.5t-36.5 -15.5t-38 15t-16 38z " />
<glyph unicode="&#x22;" horiz-adv-x="260" d="M43 1231l2 53q3 19 33 19q11 0 21 -6.5t10 -16.5q0 -19 -3.5 -63.5t-3.5 -65.5v-23q0 -9 -26 -14q-22 0 -25 12q-8 50 -8 105zM135 1231l2 53q3 19 33 19q11 0 21 -6.5t10 -16.5q0 -19 -3 -63.5t-3 -65.5v-23q0 -9 -27 -14q-22 0 -25 12q-8 50 -8 105z" />
<glyph unicode="#" horiz-adv-x="1064" d="M63 403q0 12 8.5 21.5t22.5 9.5h197l4 242l-193 2q-26 0 -30 29q0 12 8 21t22 9h195q9 216 25 320q3 18 20.5 27.5t40.5 9.5q26 0 42.5 -10.5t16.5 -28.5v-2q-16 -119 -26 -316l190 -2q10 230 25 322q3 18 20.5 27.5t40.5 9.5q25 0 42.5 -9.5t17.5 -27.5 q-2 -28 -12.5 -138t-12.5 -184q134 0 191 -2q14 0 22 -8.5t8 -19.5q0 -13 -8 -22t-22 -9h-195l-4 -244h190q29 0 29 -31q0 -11 -8 -19.5t-21 -8.5h-190q0 -207 8 -316q0 -39 -59 -39q-56 0 -58 25q-10 133 -10 330l-192 2q0 -58 1.5 -117t3.5 -118.5t3 -84.5q0 -35 -58 -39 q-18 0 -37 7t-20 20q-10 133 -10 332h-199q-25 0 -29 30zM410 432h190l4 242l-190 2z" />
<glyph unicode="$" horiz-adv-x="737" d="M68 238q0 88 43 88q30 -6 30 -27l-4 -14q-6 -13 -22 -21.5t-17 -15.5v-8q0 -66 62.5 -108t144.5 -42h25v162l2 262l-13 6q-44 28 -69.5 46t-61.5 48.5t-55.5 57t-34 64t-14.5 77.5q4 120 80 185t201 65q1 9 2.5 31t3.5 34.5t6 27.5t12.5 22.5t20.5 7.5q28 -3 28 -31 q-1 -18 -6.5 -49t-7.5 -49q83 -16 136.5 -62.5t53.5 -113.5q0 -31 -9 -55.5t-25 -24.5q-33 4 -33 24q3 17 20 32.5t17 27.5q-1 55 -48.5 91.5t-115.5 49.5q-25 -220 -25 -408q36 -21 54 -32.5t49 -32.5t47 -36.5t37 -39.5t32 -46.5t19.5 -52.5t9.5 -63q0 -90 -73 -156 t-179 -89l2 -99q0 -12 -8 -21t-20 -9t-21.5 8t-9.5 20l-4 92h-23q-94 0 -166.5 48.5t-72.5 128.5zM199 846q0 -57 34.5 -101.5t102.5 -87.5v7q6 208 24 368q-69 -4 -115 -60t-46 -126zM389 276l2 -174q58 20 95 65.5t38 115.5q0 55 -34.5 99.5t-98.5 90.5z" />
<glyph unicode="%" horiz-adv-x="847" d="M57 -51l2 16q54 150 279.5 628.5t312.5 623.5q11 14 35 14q27 0 53.5 -18.5t26.5 -38.5q0 -11 -4 -15q-316 -570 -586 -1241q-9 -24 -45 -24q-28 0 -51 15t-23 40zM68 915q2 102 47 179t118 77q50 -1 83 -33.5t45 -76.5t12 -98q-1 -41 -10 -82.5t-26 -81.5t-48.5 -65 t-71.5 -25h-6q-71 3 -107 62t-36 144zM176 928q0 -27 4 -64t19 -79t39 -42l10 2q44 19 69 79t25 132q0 28 -3 53.5t-11 53.5t-25 47.5t-41 24.5q-32 0 -57.5 -63.5t-28.5 -143.5zM446 184q0 99 46 177.5t120 78.5q49 -1 82 -33t45.5 -76.5t12.5 -99.5q-1 -41 -10 -82.5 t-26 -81.5t-48.5 -65t-71.5 -25h-4q-71 3 -107.5 62t-38.5 145zM555 168q0 -59 16.5 -107t49.5 -49q25 0 44.5 22.5t31.5 58t18 72t8 71.5q0 62 -20 110.5t-62 56.5q-33 0 -58.5 -72t-27.5 -163z" />
<glyph unicode="&#x26;" horiz-adv-x="942" d="M49 287q5 174 82.5 282t230.5 129q-182 78 -182 260q1 116 72 185t186 69q92 -2 150.5 -54.5t58.5 -137.5l-2 -25q-3 -30 -31 -30q-30 0 -30 26q2 17 10 25.5t15 13t7 10.5q-3 56 -51.5 98t-101.5 42q-79 0 -123 -69.5t-47 -174.5q0 -170 149 -234q11 -6 11 -16 q0 -5 -5 -9.5t-12 -4.5h-8q-212 0 -248 -338l-2 -51q0 -59 12 -114.5t37 -106t70 -83t104 -36.5l31 -2q153 0 244.5 84.5t91.5 228.5q0 40 -7.5 81t-24 81t-46.5 65t-69 25q-18 0 -39 -6q-68 -24 -107 -57t-39 -89v-18q1 -5 15 -14.5t16 -20.5q0 -11 -8 -19t-19 -10 q-14 0 -24 19q-10 31 -10 67q0 30 9 54.5t30 43.5t38.5 31.5t51.5 26t51 19t55 16.5q242 64 242 207q0 52 -28.5 90.5t-74.5 38.5l-18 -2q-3 0 -12 -18t-25 -19q-24 0 -27 24q0 17 15.5 28t32 14t34.5 3q58 0 95.5 -46.5t37.5 -110.5q0 -66 -41 -115q-35 -45 -83 -70.5 t-117 -46.5q56 -24 91.5 -100t35.5 -168q0 -65 -20.5 -124.5t-62 -110.5t-115 -81t-169.5 -30h-4q-174 1 -276.5 106.5t-102.5 268.5z" />
<glyph unicode="'" horiz-adv-x="237" d="M94 1231l2 53q3 19 33 19q11 0 21 -6.5t10 -16.5q0 -19 -3 -63.5t-3 -65.5v-23q0 -9 -27 -14q-22 0 -25 12q-8 50 -8 105z" />
<glyph unicode="(" horiz-adv-x="452" d="M109 547q2 144 20 269t51 225t86 159.5t121 63.5q16 0 16 -15q0 -13 -10 -16q-41 -15 -75.5 -80t-49.5 -122.5t-26 -119.5q-26 -150 -29 -379q0 -470 156 -561q6 -3 6 -14q0 -12 -13 -12h-4q-66 4 -116 62.5t-78 149.5t-41.5 190t-13.5 200z" />
<glyph unicode=")" horiz-adv-x="391" d="M27 -43q0 13 10 16q41 15 75.5 80t49.5 122.5t26 119.5q19 98 24 177.5t7 215.5q0 214 -29 330q-41 167 -127 217q-8 5 -8 14q4 15 17 15q66 -6 116.5 -65t79 -150.5t42.5 -191t14 -200.5q-2 -142 -19.5 -265t-50.5 -223.5t-87 -160t-124 -63.5h-2q-14 0 -14 12z" />
<glyph unicode="*" horiz-adv-x="323" d="M45 1112q0 7 6 16l64 52q-12 12 -31 26.5t-27 22.5t-8 16t8 15.5t17 7.5q14 0 55 -41l4 51q1 9 8 14.5t15 5.5q24 -3 24 -24l-4 -47q7 5 17.5 13t16.5 12.5t12.5 8t10.5 3.5q10 0 17.5 -6.5t7.5 -16.5q0 -11 -10 -18l-60 -43q10 -9 28 -23t26 -22.5t8 -16.5t-7 -15 t-16 -7q-8 0 -14 6l-43 33l-2 -35l2 -29q0 -11 -7.5 -17.5t-15.5 -6.5q-7 0 -11 1.5t-6.5 4t-4 8t-1.5 9t-0.5 12.5t-0.5 14l2 34l-41 -34q-6 -9 -16 -9q-9 0 -16 7.5t-7 17.5z" />
<glyph unicode="+" horiz-adv-x="681" d="M100 489q0 8 6.5 15.5t16.5 7.5h170l6 150q1 13 10.5 20.5t20.5 7.5t19.5 -7.5t8.5 -20.5q0 -24 -2 -73.5t-2 -76.5h170q11 0 17 -7t6 -16q0 -22 -23 -22h-172l-2 -186q0 -14 -9 -22.5t-22 -8.5q-11 0 -20 8.5t-10 22.5l4 186h-170q-10 0 -16.5 6.5t-6.5 15.5z" />
<glyph unicode="," horiz-adv-x="219" d="M47 23q0 20 14.5 34.5t34.5 14.5q19 0 33.5 -13t15.5 -36q0 -37 -22.5 -73t-48.5 -44q-8 0 -13 10l2 6q27 23 35 53h-4q-20 0 -33.5 14t-13.5 34z" />
<glyph unicode="-" horiz-adv-x="802" d="M170 489q0 9 7 16t16 7h391q9 0 15.5 -7t6.5 -16t-6.5 -15.5t-15.5 -6.5h-391q-9 0 -16 6.5t-7 15.5z" />
<glyph unicode="." horiz-adv-x="194" d="M43 23q0 20 14.5 34.5t34.5 14.5t34.5 -14.5t14.5 -34.5t-14.5 -35t-34.5 -15q-21 0 -35 15t-14 35z" />
<glyph unicode="/" horiz-adv-x="681" d="M63 43q0 3 5 18q52 149 240 579.5t259 539.5q10 10 25 10q13 0 26 -8.5t13 -26.5l-2 -12q-89 -159 -190 -378t-161.5 -364t-150.5 -370q-11 -21 -33 -21l-10 4q-21 7 -21 29z" />
<glyph unicode="0" horiz-adv-x="665" d="M0 477l2 88q2 51 6 98t14.5 107.5t25.5 110.5t40.5 100t58 84.5t79.5 56t104 21.5q58 0 104 -26.5t75.5 -72t50.5 -99t31 -118t14.5 -118.5t4.5 -109q0 -53 -3.5 -104.5t-12.5 -117t-23 -122t-38.5 -113t-56.5 -96t-79 -64t-104 -24.5q-293 0 -293 518zM129 428 q0 -438 164 -438q58 0 105.5 30.5t77.5 83.5t52 114t33 132t15.5 127.5t5.5 110.5q0 48 -3.5 96.5t-12.5 111t-27 116t-44.5 100t-68.5 73.5t-94 27q-54 0 -95.5 -71t-62.5 -172.5t-31.5 -183t-11.5 -132.5z" />
<glyph unicode="1" horiz-adv-x="638" d="M0 -16q0 11 12 14q12 2 207 2q0 650 33 1055q-83 -111 -193 -125q-28 0 -28 26q0 29 30 35q10 0 19.5 -11t13.5 -11l4 2q99 38 162 157q12 25 57 25q68 -4 68 -45q-1 -22 -23.5 -477.5t-23.5 -630.5q181 0 199 -2q14 0 14 -18q-4 -13 -16 -13q-2 0 -56.5 0.5t-134.5 1 t-143 0.5q-44 0 -87.5 -0.5t-70.5 -1t-31 -0.5q-12 0 -12 17z" />
<glyph unicode="2" horiz-adv-x="737" d="M0 -23q0 8 6 11q62 43 157.5 167.5t182.5 276.5q87 157 127.5 270.5t46.5 229.5q0 92 -46.5 137t-149.5 45q-99 -1 -159.5 -72t-62.5 -165q0 -7 19 -16t20 -30q0 -34 -32 -34q-26 0 -35 39l-2 36q0 109 71.5 190t180.5 81h36q138 0 211 -58.5t74 -193.5 q0 -101 -45.5 -229.5t-116 -249.5t-146.5 -225t-147 -179q98 4 183 4q206 0 266 -14q12 -3 12 -16q0 -5 -4 -10t-10 -5h-4q-55 15 -246 15h-65q-217 0 -304 -21h-4q-6 0 -10 5t-4 11z" />
<glyph unicode="3" horiz-adv-x="692" d="M0 170q0 12 14 12q12 0 15 -12q12 -79 74.5 -128.5t140.5 -49.5q75 1 130 52t80 126.5t25 161.5q0 49 -9.5 95t-30 88t-57.5 67.5t-87 25.5h-4q-13 0 -17 13q0 13 11 16q78 35 121.5 116.5t48.5 178.5q0 76 -32 128t-104 52q-96 -2 -165 -54t-72 -143q0 -6 5 -9t11 -4.5 t12 -10t7 -23.5q0 -23 -35 -30q-31 0 -31 71q0 108 82 170t193 64q107 0 180.5 -61.5t73.5 -161.5q-12 -201 -201 -285q113 -19 170 -102.5t57 -196.5q0 -161 -91.5 -269t-244.5 -108q-31 0 -69 6q-79 14 -136.5 70t-64.5 135z" />
<glyph unicode="4" horiz-adv-x="704" d="M0 360l2 7q61 132 159 380.5t132 368.5q6 27 43 27q26 0 49 -14t23 -33q-8 -50 -131.5 -318t-194.5 -403l412 -2q12 400 24 583q1 20 19.5 30.5t42.5 10.5q25 0 43 -11t18 -32q-2 -52 -11 -259t-15.5 -399t-6.5 -302q0 -16 -17.5 -25.5t-41.5 -9.5q-54 0 -57 33l2 350 q-18 1 -139 1t-231 0.5t-114 2.5q-10 3 -10 14z" />
<glyph unicode="5" horiz-adv-x="626" d="M0 119q0 14 14 14q9 0 17 -8q39 -125 176 -135q63 1 109 48t68 121t31.5 139.5t10.5 129.5q0 311 -174 311q-48 0 -109 -24q-12 -5 -39 -20t-48.5 -26.5t-24.5 -11.5q-6 0 -10.5 5.5t-4.5 11.5q3 206 19 454q0 15 14 15h4q132 -28 240 -31q119 0 178 18q7 2 12.5 19 t14.5 20q4 2 12 2q29 0 35 -28q0 -27 -27 -33q-114 -27 -225 -27q-53 0 -143 11l-15 -351q73 29 146 29q72 0 127 -31q79 -44 115 -131t36 -190q-1 -63 -12 -125.5t-37 -123.5t-63 -107.5t-94 -75.5t-126 -29q-82 0 -144 40.5t-83 119.5z" />
<glyph unicode="6" horiz-adv-x="671" d="M0 430q0 79 6 143q6 72 20 143t43 150t69.5 138t104 98.5t140.5 40.5q58 0 108 -22.5t76 -67.5q4 -12 4 -21q0 -10 -7.5 -18t-18.5 -8q-10 0 -19.5 6.5t-9.5 15.5q0 4 3 13.5t3 13.5t-2 6q-51 51 -127 51h-14q-49 -3 -91 -47.5t-68 -105.5t-46.5 -138.5t-29.5 -134 t-13 -104.5q-4 -78 -4 -119q34 65 93 99t126 34q111 -5 183.5 -75t72.5 -202q-2 -159 -81.5 -258.5t-229.5 -99.5h-17q-274 30 -274 469zM125 369q14 -362 158 -377l32 -2q63 0 113 29t80.5 77.5t46.5 107t16 120.5q-1 112 -64 176t-159 67q-86 0 -147 -55.5t-76 -142.5z " />
<glyph unicode="7" horiz-adv-x="684" d="M0 0q5 78 89 297t201.5 457t203.5 354q-99 -12 -211 -12q-168 0 -242 16q-14 4 -14 23q0 11 7 18.5t19 7.5q14 0 19 -11.5t10 -12.5q83 -11 201 -11q141 0 243 17h6q23 0 53.5 -23t30.5 -45q0 -6 -4 -14q-176 -282 -288.5 -527.5t-212.5 -551.5q-9 -23 -39 -23 q-26 0 -49 12t-23 29z" />
<glyph unicode="8" horiz-adv-x="659" d="M0 215q0 56 20.5 110t59.5 102t74.5 82.5t85.5 76.5l-13 13q-44 43 -65.5 67t-50.5 64t-41.5 80t-12.5 85q10 135 75 191.5t200 56.5q98 -2 153.5 -48t55.5 -139q-1 -64 -30 -124.5t-65.5 -101.5t-91.5 -89q52 -50 82 -82.5t65.5 -81t52 -100.5t17.5 -111 q0 -130 -77.5 -215.5t-204.5 -89.5h-15q-119 0 -196 68t-78 186zM31 215q1 -104 69 -163.5t172 -59.5h15q56 2 95 46t54 99t15 111q0 24 -5.5 49t-11 43t-22 44t-23 37.5t-31 40t-29.5 34t-35.5 36.5t-31.5 33q-49 -42 -81.5 -73t-71 -77.5t-58.5 -97t-20 -102.5zM174 934 q0 -74 41.5 -137t116.5 -133q81 70 129 138.5t49 153.5q0 75 -46.5 115.5t-123.5 42.5q-81 0 -121 -43q-39 -39 -45 -137z" />
<glyph unicode="9" horiz-adv-x="688" d="M0 780q0 160 77 261.5t228 101.5q87 -2 148.5 -46t92 -117t43.5 -149t13 -163q0 -76 -6 -138q-6 -70 -20 -139.5t-42.5 -148t-68 -138.5t-101.5 -100.5t-137 -42.5h-8q-58 0 -108.5 22.5t-75.5 67.5q-4 6 -4 21q0 11 7 18.5t17 7.5t19.5 -7t9.5 -15q0 -6 -2 -14t-2 -11 q0 -6 2 -8q45 -51 127 -51h14q60 3 108.5 66.5t76 156t42 169.5t19.5 138l6 121q-34 -66 -93.5 -101.5t-125.5 -35.5q-109 5 -182.5 75t-73.5 199zM31 786q1 -117 62 -181.5t161 -67.5q86 0 144.5 54.5t76.5 143.5q-1 33 -3 64.5t-7.5 77t-16.5 82.5t-27 72.5t-42.5 57 t-59.5 25.5l-30 2q-84 0 -144 -50t-87 -123t-27 -157z" />
<glyph unicode=":" horiz-adv-x="286" d="M104 346q0 20 15 34.5t35 14.5q21 0 35 -14t14 -35t-14 -35t-35 -14q-20 0 -35 15t-15 34zM104 737q0 20 15 34.5t35 14.5t34.5 -14.5t14.5 -34.5q0 -21 -14 -35t-35 -14q-20 0 -35 14.5t-15 34.5z" />
<glyph unicode=";" horiz-adv-x="266" d="M61 737q0 20 15 34.5t35 14.5t34.5 -14.5t14.5 -34.5t-14.5 -34.5t-34.5 -14.5q-21 0 -35.5 15t-14.5 34zM70 348q0 21 14 35t35 14q17 0 32 -13t15 -36q0 -36 -21.5 -72t-48.5 -45q-6 0 -8 1t-3.5 5t-2.5 5q0 2 4 6q29 29 33 53l-4 -2q-19 0 -32 14.5t-13 34.5z" />
<glyph unicode="&#x3c;" horiz-adv-x="542" d="M57 449q0 5 6 8l388 288l8 3q6 0 11 -4.5t5 -10.5q0 -7 -6 -10l-348 -260l354 -205q8 -5 8 -18t-7.5 -23t-18.5 -10l-8 4q-6 4 -186.5 106.5t-199.5 116.5q-4 2 -4 10z" />
<glyph unicode="=" horiz-adv-x="630" d="M80 401q0 8 6 15.5t16 7.5h420q10 0 15.5 -7t5.5 -16q0 -22 -21 -22h-420q-22 0 -22 22zM80 541q0 8 6 15t16 7h420q10 0 15.5 -7t5.5 -15q0 -23 -21 -23h-420q-10 0 -16 7t-6 16z" />
<glyph unicode="&#x3e;" horiz-adv-x="528" d="M37 717q0 12 8.5 22.5t20.5 10.5l8 -5q14 -9 191 -109.5t194 -113.5q6 -6 6 -12t-6 -12l-387 -289q-2 -2 -9 -2q-6 0 -11 5.5t-5 10.5q0 7 6 10l348 261l-354 202q-10 8 -10 21z" />
<glyph unicode="?" horiz-adv-x="716" d="M68 1014q0 121 85.5 206t215.5 85q123 -3 198.5 -73t75.5 -179q-2 -63 -15 -116t-38 -98.5t-47.5 -77.5t-59.5 -78.5t-57 -76.5q-109 -161 -109 -358l2 -55q0 -29 -38 -33h-7q-28 0 -34 26q-13 63 -13 115q0 192 119 358q11 16 44 62t47 66t38.5 61t35.5 69.5t21.5 67 t12.5 76.5q0 93 -52 149.5t-147 59.5q-107 0 -177.5 -77t-70.5 -183q0 -39 17 -92q9 -25 22 -25h6q12 0 17 -19q0 -11 -9.5 -20.5t-19.5 -9.5q-14 0 -25 18q-38 72 -38 152zM233 14q0 21 14.5 35t35.5 14q20 0 34.5 -14.5t14.5 -34.5q0 -21 -14 -35t-35 -14t-35.5 15 t-14.5 34z" />
<glyph unicode="@" horiz-adv-x="1126" d="M47 553l4 70q23 227 168.5 364t358.5 137q79 0 147 -16q154 -35 238 -152t84 -284l-3 -45q-4 -61 -26 -133t-59 -140t-95 -113.5t-125 -45.5q-60 0 -96 20q-68 41 -68 248q0 13 7 135q-73 -237 -131 -246h-15q-58 0 -86 53t-28 136q0 44 10.5 97.5t30.5 107t56 89 t81 35.5q66 0 110 -63q3 6 7.5 17t5.5 14q6 22 17.5 32.5t33.5 10.5q30 -3 45.5 -13.5t15.5 -36.5q-1 -17 -15 -98t-26 -182t-12 -184q0 -139 45 -142q21 0 31 2q40 10 74 60t55 116t33.5 124t15.5 100l4 61q0 56 -10 110t-33 105t-55.5 90t-82 64.5t-108.5 29.5l-37 3 q-98 0 -178 -38t-133.5 -104.5t-87.5 -149.5t-49 -182q-8 -66 -8 -96q0 -196 116 -326.5t306 -130.5q157 0 292 117q4 4 11 4q6 0 10 -5t4 -11q0 -8 -4 -10q-146 -125 -318 -125q-33 0 -67 6q-213 31 -337 169t-124 345zM436 432q0 -37 6 -49q27 2 55.5 65t63.5 181.5 t39 128.5q-21 60 -72 78q-29 -18 -60.5 -164.5t-31.5 -239.5z" />
<glyph unicode="A" d="M0 100q0 100 28 183t73.5 139.5t109 98.5t128.5 65t138 35q16 99 27 162.5t27.5 146.5t32 136t36.5 114t44 98t52.5 70.5t65 49t76.5 17.5q39 0 69 -14t49.5 -41.5t32.5 -60.5t19.5 -79t9 -89t2.5 -97q0 -166 -25 -403h35q84 0 127 12q4 2 4 10v6q0 10 7.5 21.5 t19.5 11.5q14 0 21.5 -9t7.5 -19q0 -5 -5 -15q-29 -47 -168 -47h-51q-1 -7 -14 -109t-22 -202.5t-9 -188.5q0 -335 142 -340q44 2 82 57t66.5 148t51 187.5t48.5 203.5t46 168q3 11 13 11q6 0 11 -4.5t5 -10.5l-2 -6q-18 -53 -43.5 -162.5t-49.5 -206.5t-55.5 -194.5 t-75.5 -157.5t-95 -63h-9q-43 0 -102.5 20t-83.5 45q-84 94 -84 365q0 183 39 444l-127 4q-122 0 -221 -16q-53 -337 -85 -463q-72 -283 -189 -320q-2 -1 -3 -1q-25 -7 -45 -7q-59 0 -102 47t-61.5 112.5t-18.5 137.5zM29 100q0 -108 42 -187t113 -79q11 0 35 4 q35 11 64.5 45t52.5 92t41.5 119.5t35.5 150.5t29 160t27 171q0 3 0.5 5t1 4.5t0.5 4.5q-92 -17 -168.5 -52.5t-139.5 -93.5t-98.5 -146t-35.5 -198zM508 627q101 14 215 14l131 -4q3 29 12.5 107t14 121.5t10.5 107.5t9 115t3 94q0 200 -76 200q-31 -2 -59 -16t-50.5 -36 t-43 -59.5t-36.5 -74t-32.5 -93t-28 -103t-25 -117.5t-22.5 -123.5t-22 -132.5z" />
<glyph unicode="B" horiz-adv-x="1079" d="M0 492q0 358 39 575q3 25 22.5 38t44.5 13q72 -4 72 -57v-8q-47 -391 -47 -662q0 -116 12 -268q62 1176 416 1270q16 8 55 8l37 -4q78 -14 120 -82.5t42 -157.5q0 -21 -4 -61q-22 -115 -77.5 -211t-125.5 -161.5t-170 -131.5l49 2q305 0 365 -209l242 152q6 0 10 -5.5 t4 -11.5t-6 -12l-244 -154q6 -38 6 -82q0 -170 -76 -344q-62 -146 -156.5 -231.5t-178.5 -85.5q-60 0 -98 41.5t-38 107.5q0 121 121 270.5t295 274.5q-13 119 -101.5 186.5t-209.5 67.5l-33 -2q-25 0 -27 12q0 15 21 25q42 28 91 84.5t95 131t78 169.5t35 184q0 34 -4.5 66 t-14.5 64.5t-31 52.5t-50 20l-9 -2q-51 -12 -96 -48t-80 -95t-64 -125.5t-50.5 -156t-38.5 -169t-29 -182.5t-20 -177.5t-13.5 -174t-8 -152t-5.5 -129.5q-4 -70 -4 -86q0 -18 -21 -29.5t-49 -13.5q-46 0 -49 39q-43 240 -43 627zM346 -242q0 -95 86 -116q58 4 128.5 98 t121.5 240t51 280v8q-232 -169 -342 -362q-45 -78 -45 -148z" />
<glyph unicode="C" horiz-adv-x="815" d="M0 387q0 219 51 428q135 500 451 508q86 0 133 -66.5t47 -171.5q0 -71 -26.5 -133.5t-57.5 -62.5q-14 0 -23.5 11.5t-9.5 27.5q0 17 11.5 28t23.5 11l23 -2q7 0 10 8q20 55 20 114q0 87 -36.5 145.5t-112.5 59.5q-61 0 -113.5 -44t-90.5 -119.5t-64.5 -158t-45.5 -177.5 q-38 -190 -38 -400q0 -116 16.5 -235.5t47 -223.5t80.5 -171t110 -70q61 11 116 67t89.5 115.5t73.5 173t53.5 167.5t43.5 170q3 10 4 15q15 73 31 123q7 13 17 13q5 0 9.5 -4.5t4.5 -10.5l-2 -6l-31 -121q-55 -222 -85 -310q-129 -388 -322 -421q-28 -4 -46 -4 q-160 0 -262 209q-100 208 -100 518z" />
<glyph unicode="D" horiz-adv-x="1079" d="M0 487q0 362 39 582q3 23 22.5 36t44.5 13q70 -4 70 -53v-10q-45 -377 -45 -664q0 -133 12 -293q87 1145 414 1233q24 6 49 6q46 0 85 -23.5t67 -64.5t47 -85t33 -97q49 -192 49 -471q0 -101 -6 -193l209 132q4 2 8 2q6 0 10 -5t4 -10q0 -9 -6 -12l-229 -143 q-8 -75 -25 -161.5t-52 -195.5t-80.5 -194.5t-116 -144t-152.5 -58.5q-61 0 -99.5 39.5t-38.5 107.5q0 119 120 269t290 268q22 174 22 356q0 221 -34 383q-57 258 -166 258q-57 -23 -106.5 -82.5t-85.5 -149.5t-64.5 -187.5t-48.5 -220.5t-34 -222.5t-23 -219.5t-13 -185 t-8 -144q-1 -31 -18.5 -42t-53.5 -13q-44 0 -49 39q-41 243 -41 620zM344 -242q0 -50 28.5 -82t73.5 -32h9q36 2 69.5 37.5t59.5 94t48 122.5t39 137.5t27 124t17 96.5q-227 -172 -324 -348q-47 -76 -47 -150z" />
<glyph unicode="E" horiz-adv-x="946" d="M0 88q0 130 43.5 252t132.5 214t205 116q-120 44 -186 130t-66 197q0 94 37 175.5t112 134.5t173 53q276 -15 276 -309q-2 -50 -9.5 -69t-29.5 -19q-35 4 -35 36q0 18 11.5 27.5t22.5 15t11 13.5q-2 117 -56.5 191.5t-168.5 80.5q-66 0 -118 -58t-76.5 -134.5 t-24.5 -149.5q0 -72 19 -134.5t67.5 -112t120.5 -58.5q12 -3 12 -16q0 -16 -14 -19q-80 -10 -145 -67.5t-103 -139.5t-58 -168.5t-20 -163.5q0 -105 33 -201t102.5 -161.5t159.5 -65.5h6q77 9 142.5 58.5t110 117t86 163t67 176.5t58 181t54.5 154q3 9 13 9q6 0 11 -4.5 t5 -10.5v-6q-26 -59 -59 -159t-59 -184t-68.5 -180.5t-88 -165t-115.5 -119t-155 -60.5q-46 -4 -65 -4q-75 0 -137 24t-104.5 65.5t-72 98t-43.5 121t-14 135.5z" />
<glyph unicode="F" horiz-adv-x="894" d="M0 997q16 363 494 363q86 0 325 -27q225 -24 279 -24q80 0 153 30l4 2q15 0 15 -16q0 -9 -8 -14q-71 -31 -164 -31q-32 0 -71.5 2.5t-72 6t-105.5 11t-128 13.5q-34 -198 -57 -594h131q14 0 14 -14q0 -17 -14 -17h-133q-21 -322 -21 -584q0 -55 12 -313 q0 -19 -18.5 -32.5t-44.5 -16.5h-8q-59 0 -62 39q-12 150 -12 313q0 178 22 592q-44 0 -122 -4q-17 0 -17 16q0 15 15 15q82 4 126 4q29 461 60 608l-96 4q-69 0 -130.5 -8.5t-123.5 -31t-106.5 -58t-74 -93t-32.5 -132.5q0 -49 15.5 -97.5t47.5 -77.5l8 -4q4 0 17 7.5 t24 7.5t17 -2q18 -6 18 -29q0 -13 -7.5 -24t-25.5 -11q-69 10 -106 73.5t-37 147.5z" />
<glyph unicode="G" horiz-adv-x="993" d="M0 537q0 133 34.5 271t95.5 253t154 189.5t199 78.5q142 0 142 -112q-3 -62 -41 -62q-14 2 -25.5 12.5t-11.5 24.5q1 19 22 32.5t21 18.5q-8 55 -101 55l-22 -2q-67 -8 -147 -129.5t-135.5 -300.5t-55.5 -336q0 -81 10 -137q5 -30 14.5 -61.5t24.5 -66t38 -56t50 -21.5 q70 5 130 64t100.5 143.5t72 194t48.5 205.5t26 188q0 53 76 57q59 0 67 -45q5 -15 5 -139q0 -230 -15 -438q120 77 217 117l6 2q7 0 12 -5.5t5 -11.5q0 -7 -10 -14q-105 -41 -234 -127q-52 -617 -268 -682q-21 -6 -45 -6q-63 0 -107.5 51.5t-44.5 124.5q0 99 92 217.5 t244 237.5q16 187 16 356l-4 158q-13 -74 -29 -145t-46 -163.5t-66 -163.5t-90 -127t-115 -71q-36 -8 -73 -8q-117 0 -176.5 105.5t-59.5 273.5zM340 -137q0 -85 57 -123q12 -4 19 -4q24 0 55 28q43 41 74.5 104.5t49.5 142.5t27 136t17 132q-196 -157 -270 -299 q-29 -56 -29 -117z" />
<glyph unicode="H" horiz-adv-x="1458" d="M0 -57q0 51 20 98q27 73 120 132t241 116q14 140 14 297q0 434 -100 604q-8 8 -8 22q0 28 30 53t64 25q41 0 61 -41q48 -117 73.5 -292t25.5 -367q0 -103 -11 -246q205 69 297 109l-2 104q0 89 2.5 161t9 163.5t21 162.5t36 139t56.5 114t80 67q28 13 69 20t62 7 q57 0 84 -55t27 -140q-8 -197 -84 -379t-211 -301q0 -38 2 -93t7 -151t17 -183t29.5 -169.5t47.5 -132t67 -49.5q43 4 84 67.5t74.5 164t60 200.5t53.5 206t43 150q3 11 13 11q6 0 11 -4.5t5 -10.5v-6q-15 -41 -51.5 -185t-69.5 -266t-89.5 -231.5t-115.5 -122.5 q-40 -8 -71 -8q-76 0 -107 31q-66 62 -107.5 251.5t-52.5 436.5q-70 -33 -301 -111q-38 -363 -174 -479q-34 -28 -83.5 -44.5t-98.5 -16.5q-77 0 -123.5 47.5t-46.5 124.5zM29 -55q0 -62 35 -102t83 -40q68 0 121 82q76 121 109 371q-284 -109 -330 -225q-18 -47 -18 -86z M975 598l2 -43q122 118 194 305.5t72 345.5q0 75 -22.5 114.5t-57.5 39.5q-45 0 -89.5 -65t-63.5 -179q-35 -182 -35 -518z" />
<glyph unicode="I" horiz-adv-x="595" d="M0 874q0 63 32 144t74 149q61 93 112.5 133t113.5 43q56 0 95.5 -28t45.5 -82q8 -57 8 -156q0 -165 -33.5 -593.5t-33.5 -602.5v-53q0 -18 -18 -27.5t-40 -11.5h-10q-28 0 -50 9t-22 30q0 142 36 615.5t36 652.5q0 210 -37 215q-38 -3 -85 -47.5t-91 -112.5 q-41 -62 -71 -136t-31 -134q0 -25 12 -25q4 0 13.5 2t13.5 2q13 0 20.5 -11t7.5 -24q0 -16 -12.5 -30.5t-28.5 -14.5q-21 0 -38.5 27t-18.5 67z" />
<glyph unicode="J" horiz-adv-x="761" d="M0 -100q14 203 215 301q41 19 184 92q15 135 15 287q0 290 -41 598q-2 13 -6 33t-12 52.5t-22.5 54t-31.5 21.5l-12 -2q-87 -44 -160.5 -157.5t-73.5 -225.5q0 -29 11 -71q4 -13 26.5 -13.5t30.5 -11.5q6 -9 6 -18q0 -15 -10.5 -27t-28.5 -12q-29 0 -47 50t-18 105 q0 131 91 259.5t195 162.5q42 11 60 11q82 0 112 -93q31 -91 52.5 -273.5t21.5 -375.5q0 -154 -14 -272q161 95 221 157q7 5 10 5q10 0 14 -13q0 -8 -4 -12q-87 -84 -245 -176q-12 -105 -34.5 -195t-58.5 -172.5t-92 -141t-127 -83.5q-41 -14 -77 -14q-69 0 -109.5 49 t-40.5 121zM31 -102q0 -46 20 -82t60 -49h4q61 0 114 56.5t86 140.5t53 159.5t27 134.5q-31 -17 -93.5 -48t-72.5 -36q-184 -90 -198 -276z" />
<glyph unicode="K" horiz-adv-x="892" d="M0 543q0 265 17 474.5t49 295.5q14 35 75 35q95 -7 95 -60v-8q-66 -348 -80 -758q46 38 82 119t61 168.5t53.5 172.5t75.5 145t113 71l22 2q39 0 80 -28.5t41 -55.5q0 -13 -13 -24t-28 -11q-11 0 -21 8t-10 21q0 5 2 17t2 16q0 26 -53 26l-18 -2q-55 -9 -96 -61.5 t-67.5 -130t-49.5 -158.5t-56 -163t-73 -128l18 2q44 0 92 -28q46 -31 98 -124.5t89 -187.5t78 -172t69 -84q40 8 75 60t59.5 128t44 153t38.5 150.5t33 102.5q4 11 12 11q6 0 11.5 -4.5t5.5 -10.5l-2 -8q-12 -29 -31 -105t-40 -154t-48.5 -156.5t-67 -132.5t-86.5 -62 q-8 -2 -35 -2q-58 0 -90 14q-40 19 -90 111t-89.5 189t-89.5 176t-93 79l-10 -2v-117q0 -114 3.5 -216t7 -154.5t7.5 -99t4 -48.5q0 -38 -70 -45q-34 0 -49 27q-26 60 -41.5 268t-15.5 459z" />
<glyph unicode="L" horiz-adv-x="819" d="M0 -94q0 49 58 86t149 37l41 -2q37 113 67 479q23 273 23 516q0 57 -3.5 150.5t-4.5 119.5q0 26 18 41t45 17q28 0 49.5 -13t24.5 -37q18 -133 18 -391q0 -631 -114 -915q54 -20 151 -70.5t177 -81t153 -30.5q77 0 141 34q14 6 15 32t12 34t24 8q14 0 24.5 -11t10.5 -24 q0 -25 -55 -57q-84 -47 -172 -47q-73 0 -153.5 29t-188 84t-150.5 73q-31 -71 -70.5 -109t-72 -46.5t-80.5 -8.5q-59 0 -98 26t-39 77zM31 -96q0 -28 23.5 -51t64.5 -23l16 2q10 1 19.5 7.5t18.5 19t16 23.5t14.5 29.5t12 29t11.5 30.5t9 25q-21 6 -50 6q-59 0 -106.5 -25.5 t-48.5 -72.5z" />
<glyph unicode="M" horiz-adv-x="1697" d="M0 332q3 369 39 747q3 28 30.5 43t63.5 15q32 -2 55 -15.5t23 -38.5l-2 -10q-62 -355 -62 -870q0 -109 3 -211q31 181 71.5 357t92 342.5t112.5 274t119 117.5q10 2 26 2q154 0 154 -438q0 -70 -3.5 -142.5t-11 -182.5t-8.5 -125q307 1101 515 1144l28 5 q87 0 120.5 -99.5t33.5 -298.5q0 -133 -25 -454q0 -1 -7 -71.5t-12.5 -133.5t-10.5 -152.5t-5 -154.5q0 -181 37 -181q34 2 80 91.5t84 200.5t84.5 243.5t73.5 189.5q7 11 14 11q5 0 9.5 -4.5t4.5 -10.5l-2 -8q-27 -60 -76 -198t-87.5 -247t-89 -200.5t-91.5 -97.5l-32 -2 q-108 0 -138 67q-30 72 -30 279q0 186 31.5 586.5t31.5 498.5q0 62 -5.5 86.5t-18.5 24.5q-62 -17 -138.5 -153t-141 -313t-121.5 -361.5t-88.5 -301t-33.5 -129.5q-3 -18 -23.5 -27.5t-47.5 -9.5q-38 3 -49 21t-11 61v21q0 115 15.5 348t15.5 346q0 240 -47 240l-8 -2 q-69 -28 -148 -229.5t-140 -466t-95 -521.5q-5 -43 -70 -43q-20 0 -40 7t-21 22q-27 219 -27 512z" />
<glyph unicode="N" horiz-adv-x="1153" d="M0 332q3 396 41 747q1 28 28 43t62 15q32 0 56 -14.5t24 -39.5l-2 -10q-33 -198 -46 -381.5t-16 -443.5q0 -53 5 -268q27 154 96 432t158 506q81 210 157 309t170 100q65 0 84 -29q33 -46 33 -198q0 -138 -39 -520.5t-39 -536.5q0 -276 92 -276q3 0 9.5 1t9.5 1 q44 13 97 156.5t110 352t71 248.5q5 11 15 11q16 0 16 -13l-2 -8q-15 -41 -52.5 -178.5t-71.5 -256.5t-83 -224t-92 -117q-21 -6 -68 -6q-61 0 -88 12q-141 68 -141 444q0 240 76 758q5 28 23 171.5t18 170.5v4q-63 -2 -130 -93t-123.5 -234t-108.5 -310t-91 -334 t-64.5 -292t-35.5 -197q-2 -43 -70 -43q-19 0 -39.5 7t-21.5 22q-27 219 -27 512z" />
<glyph unicode="O" horiz-adv-x="1050" d="M0 715q0 188 66 344q54 123 129.5 185.5t187.5 66.5q102 0 182.5 -65t129 -174t73.5 -242.5t25 -280.5q0 -69 -11 -174q160 71 269 157q5 5 10 5q6 0 10 -5.5t4 -11.5t-6 -12q-125 -96 -289 -168q-13 -97 -34 -182t-53.5 -161t-73.5 -131t-95.5 -86.5t-117.5 -31.5 q-25 0 -39 2q-283 44 -283 565v72q-84 125 -84 328zM31 715q0 -163 55 -273q8 153 37 298.5t61 224.5q12 30 58 30q28 0 51.5 -17.5t23.5 -43.5q0 -3 -4 -19q-24 -72 -54.5 -252.5t-35.5 -355.5q73 -33 166 -33q121 0 301 62q10 102 10 199q0 250 -55 434q-12 45 -26 84 t-37.5 82.5t-51.5 74t-67 50.5t-84 20q-185 -8 -285 -233q-63 -145 -63 -332zM223 227q0 -439 221 -446q197 45 242 522q-165 -57 -297 -57q-95 0 -166 28v-47z" />
<glyph unicode="P" horiz-adv-x="976" d="M0 344q0 382 51 713q1 15 23.5 26t50.5 11q72 0 72 -43v-11q-25 -129 -39 -438q25 131 57 246t76 220t101 166.5t120 61.5h33q62 0 101.5 -14t68.5 -61q67 -108 67 -297q0 -234 -90 -435q212 12 287 46l6 2q6 0 10 -5.5t4 -11.5q0 -9 -8 -14q-35 -16 -95.5 -26.5 t-95 -13.5t-124.5 -9q-62 -118 -146 -181q-46 -32 -151 -32q-44 0 -69 23.5t-25 60.5q0 69 80 110q51 29 172 39q37 103 59 241.5t22 264.5q0 54 -5 100.5t-16 90.5t-33.5 69t-53.5 25q-53 -1 -104 -63t-88.5 -154t-72 -215.5t-56.5 -230.5t-39 -216l-3 -215q0 -190 11 -354 q0 -21 -19.5 -34t-46.5 -15h-8q-59 0 -59 39q-25 278 -25 534zM313 328q0 -23 16.5 -38t45.5 -16q38 4 98 80q30 42 49 92q-99 -13 -143 -34q-66 -34 -66 -84z" />
<glyph unicode="Q" horiz-adv-x="1114" d="M0 -23q0 10 8 15q66 31 144 31h26q-28 114 -28 286v78q-82 120 -82 328q0 192 63 344q55 124 131 185t191 67q102 0 182 -66t127.5 -176t71.5 -242.5t24 -277.5q0 -82 -10 -174q158 70 268 157q5 5 10 5q6 0 11.5 -5t5.5 -10q0 -7 -8 -12q-113 -91 -289 -168 q-48 -358 -197 -514q78 -45 125 -69.5t109.5 -46t111.5 -21.5t90 20q8 3 10 15.5t1.5 24.5t6 22t23.5 10q13 0 26 -8.5t13 -24.5q0 -35 -56.5 -63.5t-113.5 -28.5q-52 0 -118.5 23t-113.5 47.5t-130 72.5l-8 6q-65 -59 -150 -59q-121 10 -186 67.5t-103 176.5l-32 2 q-61 0 -134 -31l-6 -2q-6 0 -10 5t-4 11zM96 713q0 -162 56 -271q10 155 38.5 300.5t59.5 222.5q13 32 57 32q30 0 53 -17.5t23 -45.5q0 -4 -4 -16q-23 -70 -53 -252.5t-37 -358.5q73 -33 166 -33q136 0 301 64q10 102 10 199q0 249 -53 432q-88 311 -271 311 q-184 -8 -282 -233q-64 -148 -64 -334zM289 221q0 -132 22 -225q116 -41 303 -150q111 125 138 457q-161 -59 -295 -59q-99 0 -168 30v-53zM322 -41q52 -173 188 -176q42 8 84 41q-174 97 -272 135z" />
<glyph unicode="R" horiz-adv-x="964" d="M0 371q0 397 53 735q3 19 25 30t51 11q74 -4 74 -45q-1 -7 -10.5 -91t-17.5 -176.5t-13 -207.5q58 292 135 477q59 141 115.5 197t144.5 57q82 0 130.5 -24.5t72.5 -100.5q28 -89 28 -178q0 -193 -114.5 -362t-282.5 -226q65 -6 103 -39q48 -43 84.5 -129.5t53.5 -163 t41 -136t52 -60.5q57 0 114 150q27 73 95 312q14 60 35 125q3 11 12 11q16 0 16 -15v-4q-6 -19 -34 -123q-18 -65 -26.5 -96t-25 -86.5t-26.5 -83t-25.5 -68t-28.5 -61.5t-29 -44t-32.5 -33t-34.5 -13q-5 0 -28 -3t-35 -3q-39 0 -74 18q-42 24 -72.5 78t-48 117t-35.5 125.5 t-47.5 114t-70.5 71.5q-15 8 -33 12t-29 4.5t-18.5 3.5t-7.5 11q0 9 3 13t13 5q105 23 182.5 83.5t120.5 145.5t63.5 178t20.5 195q0 65 -10 118t-36 90.5t-65 37.5q-55 -1 -107.5 -64.5t-91 -157.5t-74.5 -223t-58.5 -239t-42.5 -229l-2 -215q0 -70 10 -377 q0 -19 -19.5 -32t-44.5 -15h-14q-53 0 -59 37q-25 294 -25 561z" />
<glyph unicode="S" horiz-adv-x="1107" d="M0 1079q0 17 11.5 30t25.5 13q18 0 27.5 -12.5t9.5 -24.5l-2 -22q0 -7 6 -10q100 -42 160 -54q7 152 124.5 258.5t272.5 106.5q82 0 128 -45t48 -121q0 -52 -28.5 -99.5t-84.5 -78.5q-119 -68 -288 -68h-29q8 -49 35.5 -89t67 -68.5t86 -54.5t95 -55t92 -62.5t79 -84.5 t53.5 -114q122 43 227 111l8 2q15 0 15 -17q0 -6 -6 -12q-106 -67 -236 -115q10 -52 10 -94q0 -117 -51.5 -226.5t-147.5 -186.5t-214 -93q-40 -4 -56 -4q-36 0 -80 6q-73 18 -115 79t-42 138q0 31 6 58q13 55 41.5 96.5t61.5 66.5t89 47.5t100 34t120.5 30.5t125.5 34 q-13 59 -48 106t-79.5 78.5t-95.5 60.5t-99.5 59.5t-89 67t-66.5 92t-29 126.5q-130 25 -218 78q-20 11 -20 32zM229 12q0 -79 50 -135.5t129 -56.5q45 0 103 30.5t114 84t94.5 141t38.5 188.5q0 40 -6 84l-119 -31q-56 -14 -84.5 -21t-74.5 -21.5t-70.5 -26.5t-57 -31 t-51 -40.5t-35 -51t-24.5 -64.5q-7 -28 -7 -49zM377 983h26q61 0 123 11.5t121 35t96 67t37 99.5q-2 59 -37.5 98t-95.5 39q-80 0 -143.5 -49t-95 -122.5t-31.5 -155.5v-23z" />
<glyph unicode="T" horiz-adv-x="901" d="M0 1290q0 17 16 33q62 72 273 72q150 0 397 -43q281 -54 440 -56q73 0 107 11q10 2 13 22t9 25q10 10 21 10q12 0 22.5 -11t10.5 -24q0 -30 -52 -46.5t-133 -16.5q-125 3 -340 39q-39 -230 -71.5 -608t-32.5 -674q0 -67 10 -232q0 -22 -23.5 -36.5t-52.5 -14.5 q-22 0 -38 10t-17 29q-22 132 -22 366q0 321 33.5 700.5t60.5 485.5q-214 33 -344 33q-131 0 -197 -27q-14 -5 -14 -24v-23q0 -33 -35 -33q-15 0 -28 9.5t-13 23.5z" />
<glyph unicode="U" horiz-adv-x="995" d="M0 739q0 316 45 537q6 41 72 41q88 -4 88 -55v-7q-51 -254 -51 -587l2 -105q1 -42 5 -99.5t12.5 -135.5t25 -132.5t37.5 -60.5q110 11 323 1157q1 21 24 32t54 11q76 -3 76 -55v-14q-43 -220 -68 -619q-6 -117 -6 -301q0 -579 74 -579q31 1 82 141.5t112.5 342.5 t93.5 277q3 9 13 9q6 0 11 -5t5 -12v-4q-30 -66 -75.5 -208.5t-81.5 -260.5t-80 -213t-78 -98l-25 -2q-44 0 -72 30q-116 106 -116 666q0 247 22 522q-176 -846 -288 -848l-27 -2q-62 0 -88 31q-63 69 -92 232.5t-29 373.5z" />
<glyph unicode="V" horiz-adv-x="907" d="M0 1313q0 43 78 47q31 0 56 -13t34 -38q37 -122 73 -329.5t62.5 -406.5t52.5 -384t52 -299t51 -115q52 15 104.5 136t96.5 307t81.5 373t77.5 386t66 295l2 8q0 12 -12.5 28t-12.5 27q0 15 13 28t28 13q35 -4 35 -30q-5 -31 -29 -97q-30 -99 -70.5 -299t-78 -389.5 t-82.5 -375t-100 -306t-113 -133.5q-21 -6 -51 -6q-65 0 -88 29q-58 61 -103.5 239.5t-71 376t-66.5 468.5t-83 447z" />
<glyph unicode="W" horiz-adv-x="1359" d="M0 465q0 250 37.5 532.5t64.5 358.5q12 26 74 26q24 -2 39.5 -4.5t30.5 -9t22.5 -18t7.5 -29.5l-2 -12q-100 -458 -106 -926q0 -63 3 -126.5t12 -143t29.5 -131.5t49.5 -56q35 0 99.5 213t113.5 455.5t49 331.5v6q0 32 27.5 51.5t69.5 22.5q31 0 51 -16.5t20 -49.5 q0 -49 2 -132.5t9 -227t22.5 -279t37 -261.5t58 -203t82.5 -77l17 2q83 36 156 234t113 461.5t40 511.5q0 181 -23 305q-1 9 -10 14t-19 8t-20.5 15.5t-13.5 34.5q0 45 43 51q7 0 13 -2t10 -6.5t7.5 -9t6 -12.5t4.5 -13.5t3 -14.5t2 -14t2 -14.5t1 -12.5q22 -127 22 -325 q0 -189 -25.5 -398t-69 -392.5t-110.5 -311t-143 -145.5q-35 -5 -51 -5q-48 0 -84 19q-57 36 -101 128.5t-69 196.5t-42.5 241t-23.5 228t-10 191q-10 -64 -34.5 -182t-62 -271t-85 -264t-88.5 -114h-35q-58 0 -84 16q-136 104 -139 555z" />
<glyph unicode="X" horiz-adv-x="1171" d="M0 -209q0 12 6 21q9 15 34 15.5t30 8.5q48 74 167 268t162 263q-109 389 -161 962q0 58 106 66q32 0 53.5 -14t22.5 -42q20 -380 100 -778q435 682 563 832q15 18 33 18q16 0 24.5 -12t8.5 -27q0 -14 -10.5 -23.5t-22.5 -9.5l-26 2q-9 0 -15 -6q-145 -187 -545 -817 q14 -62 38 -152.5t67 -227t96 -228.5t100 -92h9q18 9 36.5 28t37.5 49.5t35 59t37 75.5t34 77.5t34 87t31 83t31 84.5l62 164q4 11 14 11q14 0 14 -15v-6q-17 -41 -55.5 -148t-72 -193t-77 -180t-90 -151.5t-90.5 -64.5l-43 -4q-58 0 -110 35q-137 99 -256 518 q-150 -238 -342 -553q-12 -21 -33 -21q-16 0 -26.5 11.5t-10.5 25.5z" />
<glyph unicode="Y" horiz-adv-x="903" d="M0 737q0 163 20 332.5t35 214.5q17 43 78 43q78 -4 78 -57l-2 -8q-52 -272 -55 -662q0 -291 63 -291q4 0 12 4q31 14 64 79t63.5 167t56.5 202t50.5 221t36.5 184t24 128v2q0 28 28 47t62 19q25 0 43.5 -12t18.5 -35q29 -302 29 -592q0 -164 -11 -299q172 75 217 108 q5 5 11 5t10 -6t4 -11q0 -7 -6 -10q-25 -19 -69 -42t-70.5 -35t-98.5 -44q-16 -183 -58 -335.5t-104 -229.5q-39 -48 -95.5 -77.5t-112.5 -29.5l-25 2q-93 10 -142 67t-49 136q0 59 26 114t66.5 98t102 86.5t119 74.5t131.5 65q10 123 10 306q0 280 -24 526 q-162 -849 -297 -905q-26 -13 -54 -13q-38 0 -73 21q-113 67 -113 442zM137 -78q0 -68 41 -116.5t123 -57.5q41 3 84.5 51.5t67.5 98.5q69 141 96 428q-84 -39 -149 -77.5t-129 -89.5t-99 -111.5t-35 -125.5z" />
<glyph unicode="Z" horiz-adv-x="1316" d="M0 -168q0 43 40.5 92t106.5 72q77 29 158 29q41 0 82 -9q183 221 391 551q-86 21 -151 21q-123 0 -203 -72q-4 -4 -10 -4t-10.5 5t-4.5 11q0 7 4 11q94 79 222 79q76 0 170 -24q41 66 80.5 136.5t89.5 168.5t81 188t31 148l-4 33q-20 102 -231 102q-148 0 -264 -35 q-125 -38 -207 -107t-82 -155l2 -29q3 -15 23.5 -18t23.5 -22q0 -13 -10 -25t-23 -12q-20 0 -33.5 34.5t-13.5 71.5q0 62 37.5 117t98 93t137 66t154 41t149.5 13q150 0 247 -47q77 -34 103 -71.5t26 -86.5q0 -202 -268 -643q85 -20 141 -20q18 0 45 5.5t31 6.5 q6 0 10.5 -5.5t4.5 -11.5q0 -10 -8 -15.5t-25.5 -7.5t-27 -2.5t-30.5 -0.5q-59 0 -157 24q-190 -302 -402 -544q78 -25 210.5 -88t243.5 -103.5t202 -40.5q82 0 155 37q12 6 14.5 27.5t10.5 27.5q6 6 16 6q13 0 24 -10.5t12 -21.5q0 -17 -23 -33q-94 -61 -209 -61 q-75 0 -167.5 27.5t-167 62.5t-174.5 79t-169 66q-52 -58 -87.5 -93.5t-79.5 -69.5t-88 -50t-93 -18q-59 0 -106.5 26.5t-47.5 77.5zM31 -168q0 -51 55 -51q103 0 279 209l-58 4q-75 0 -149 -27q-62 -23 -94.5 -61t-32.5 -74z" />
<glyph unicode="[" horiz-adv-x="385" d="M100 -39v1292q0 7 5.5 12t11.5 5h174q6 0 10 -5t4 -10q0 -16 -14 -16h-84v-1266h84q14 0 14 -14q0 -16 -14 -16h-174q-7 0 -12 6t-5 12z" />
<glyph unicode="\" horiz-adv-x="690" d="M45 1163q0 18 13 26.5t26 8.5q17 0 25 -12q73 -109 259.5 -536t239.5 -580q4 -8 4 -19q0 -16 -9.5 -24.5t-22.5 -8.5q-23 0 -29 21q-293 732 -502 1110q-4 12 -4 14z" />
<glyph unicode="]" horiz-adv-x="344" d="M47 -43q0 16 14 16h84v1266h-84q-14 0 -14 14q0 17 14 17h175q7 0 11.5 -6t4.5 -13v-1292q0 -16 -16 -16h-175q-6 0 -10 4.5t-4 9.5z" />
<glyph unicode="^" horiz-adv-x="444" d="M94 1059q4 17 13.5 36.5t24 46t22.5 42.5l6 14q7 13 10 19.5t10.5 20.5t13 22t12.5 17.5t13 14t12 4.5q12 0 15 -6q28 -52 92 -215l2 -10q0 -18 -23 -21q-16 0 -22 15q-7 18 -32.5 83.5t-41.5 100.5q-3 -5 -41 -74l-57 -114q-4 -11 -14 -11q-15 3 -15 15z" />
<glyph unicode="_" horiz-adv-x="968" d="M84 -70q0 13 8.5 23t22.5 10h712q13 0 21 -9t8 -20q0 -30 -29 -30h-712q-27 0 -31 26z" />
<glyph unicode="`" horiz-adv-x="296" d="M72 1255q0 12 13.5 26.5t25.5 14.5q9 0 12 -6l115 -131q4 -4 4 -12t-7 -15.5t-14 -7.5q-8 0 -12 4t-56.5 48.5t-76.5 68.5q-4 4 -4 10z" />
<glyph unicode="a" horiz-adv-x="634" d="M-27 371l2 51q4 45 17 92.5t35.5 94t58.5 76.5t80 30l27 -2q50 -9 83 -62l9 39q4 17 22 27t41 10q25 0 43.5 -13t18.5 -38l-2 -8q0 -3 -5.5 -47t-10.5 -92t-10.5 -109.5t-9 -125t-3.5 -112.5q0 -60 6 -100q3 -39 12 -39q34 11 83 105t103.5 226.5t65.5 153.5q6 9 14 9 q4 0 9.5 -4t5.5 -11q0 -4 -2 -8q-7 -15 -66.5 -159t-111 -236t-93.5 -105q-18 -6 -37 -6q-26 0 -47 15q-61 39 -61 276q0 45 6 156q-18 -58 -32 -98t-34 -86.5t-40.5 -72t-40.5 -28.5l-17 -2q-34 0 -58 18.5t-37 49.5t-18.5 64t-5.5 71zM92 250q0 -37 6 -49l6 -2q15 0 35 34 t40 89t36.5 106t32.5 105t20 67q-10 33 -30 53q-25 21 -48 29q-31 -18 -64.5 -175.5t-33.5 -256.5z" />
<glyph unicode="b" horiz-adv-x="753" d="M-2 608q0 122 16 256q47 303 183 393q40 21 106 21l35 -2q90 0 90 -141q-2 -91 -41 -197.5t-107.5 -199t-146.5 -130.5v-96q0 -58 4 -164q21 102 62 180q35 76 73.5 107.5t100.5 36.5q44 0 76.5 -24t48.5 -64.5t23.5 -80.5t8.5 -83q118 76 234 115l8 2q8 0 12 -11l2 -6 q0 -9 -12 -14q-124 -42 -242 -121q0 -10 -2 -14q-3 -173 -61 -295q-26 -54 -75 -100t-101 -46l-19 2q-36 1 -48.5 24.5t-12.5 66.5q8 67 60 144.5t114 137.5l2 57q0 255 -47 277q-63 -17 -117 -123q-35 -72 -50 -136t-25 -163q-2 -29 -62 -39q-35 0 -47 31q-43 151 -43 399z M133 643q111 63 186 214t80 290q0 96 -63 98q-29 0 -54.5 -18.5t-42.5 -45t-31.5 -63t-22 -63.5t-13.5 -56q-32 -149 -39 -356zM244 2q0 -38 32 -41q43 8 71 92.5t38 204.5q-131 -139 -141 -256z" />
<glyph unicode="c" horiz-adv-x="471" d="M-37 299q0 53 8 119q22 138 81 232.5t141 94.5h12q38 -3 65 -29t27 -65v-10q-4 -31 -14 -51q-8 -19 -27 -19l-12 4q-15 6 -15 23q0 10 2 14q4 11 18.5 17.5t16.5 11.5l2 12q0 37 -39 56h-2q-31 0 -63.5 -117.5t-46.5 -202.5q-15 -116 -15 -196q0 -184 64 -187 q43 1 86.5 48.5t78 120t62.5 144.5t50.5 134.5t31.5 76.5q7 7 12 7q6 0 11 -5q4 -4 4 -10t-2 -8q-8 -13 -41 -103t-68.5 -179t-93.5 -168t-117 -87q-10 -2 -33 -2q-20 0 -30 2q-43 10 -74.5 42t-48 79t-24 96.5t-7.5 104.5z" />
<glyph unicode="d" horiz-adv-x="747" d="M-20 399q0 36 4 64q16 104 64.5 177t115.5 73h10q69 -6 119 -56q16 197 56.5 359.5t94.5 220.5q19 21 60 36t84 15q63 -2 104 -42t41 -128v-6q-5 -139 -101 -297.5t-214 -214.5q-8 -100 -8 -246q0 -319 55 -319h2q13 1 31 19.5t43 59.5t45 76.5t54 105t52.5 109 t57.5 121.5q6 11 14 11q4 0 8 -2q8 -4 8 -13q0 -2 -2 -6q-137 -288 -184 -369q-80 -139 -127 -143l-45 -2q-42 0 -62 25q-77 92 -77 405v66q-20 -62 -37.5 -107.5t-43 -98.5t-54 -81.5t-58.5 -28.5q-31 0 -54 20.5t-34.5 54.5t-16.5 69.5t-5 72.5zM88 256q0 -27 4 -43 q13 0 26.5 9.5t26.5 29t25 39.5t25 52.5t22.5 56t21.5 61t18 56.5t17 54.5t13 42.5q-36 55 -107 68q-30 -13 -61 -170t-31 -256zM422 635q108 60 193 210t87 271v6q0 61 -27.5 97t-84.5 36h-4q-40 -1 -76.5 -116t-56.5 -246.5t-31 -257.5z" />
<glyph unicode="e" horiz-adv-x="446" d="M-20 397q0 107 39.5 199t103.5 117q30 10 59 10l31 -2q39 -4 59.5 -29t20.5 -61q0 -21 -6 -39q-11 -42 -44 -73.5t-73 -31.5q-15 0 -41 11q-18 -87 -18 -193q0 -148 57 -153h10q43 0 80 33t76 96q56 95 112 245q4 11 15 11l8 -2q6 -2 6 -13v-6q-62 -163 -115 -250 q-84 -140 -172 -145q-28 0 -55 6q-75 18 -114 93.5t-39 176.5zM135 528q15 -10 35 -10q28 0 52.5 23.5t35.5 54.5q4 12 4 33q0 53 -51 61q-20 -1 -40 -46.5t-36 -115.5z" />
<glyph unicode="f" horiz-adv-x="577" d="M-4 422q0 264 51.5 499t142.5 320q20 20 64 31.5t86 11.5l29 -2q108 -10 108 -156q0 -35 -6 -65q-23 -142 -114.5 -278.5t-202.5 -168.5q-9 -123 -9 -247l27 -2q106 0 225 52t189 115q5 5 10 5q14 0 14 -17q0 -6 -4 -10q-74 -65 -195.5 -119t-230.5 -55q64 -55 96.5 -138 t32.5 -167q0 -71 -22.5 -121.5t-59.5 -59.5q-36 -8 -47 -8q-36 0 -71 35q-55 59 -84 207t-29 338zM145 324q3 -178 23 -307.5t55 -135.5q25 9 40.5 51t15.5 99q0 81 -33.5 161.5t-100.5 131.5zM156 647q68 23 131 94.5t102.5 158.5t52.5 169q4 20 4 57q0 127 -92 127h-6 q-33 -4 -61 -41t-47.5 -99.5t-34.5 -124.5t-25.5 -139t-15 -117.5t-8.5 -84.5z" />
<glyph unicode="g" horiz-adv-x="638" d="M-27 352q0 111 34.5 212t90.5 132q23 13 66 13l22 -2q56 -8 88 -45l-2 22q0 24 24 39.5t54 15.5q52 0 60 -45q20 -113 20 -303v-43q198 167 217 184q5 5 10 5q6 0 10.5 -6t4.5 -11q0 -6 -4 -10q-38 -33 -120 -102.5t-118 -100.5q-4 -178 -26.5 -347.5t-69.5 -252.5 q-54 -98 -156 -98h-16q-72 7 -104.5 52t-32.5 112l2 26q5 61 29 121t65 115t79 96t91 92v68l-2 160q-23 -108 -60 -189q-56 -127 -131 -135h-10q-57 0 -86 63.5t-29 161.5zM55 -233q0 -116 107 -127q36 4 62 63t39 151.5t18.5 169t7.5 156.5q-101 -97 -162.5 -190.5 t-69.5 -194.5zM98 231q0 -71 11 -71q49 16 92 114q32 69 53.5 160.5t26.5 155.5v2q0 28 -32.5 53.5t-64.5 30.5q-35 -5 -60.5 -162.5t-25.5 -282.5z" />
<glyph unicode="h" horiz-adv-x="706" d="M0 561q0 175 27 338q55 307 194 367q50 20 111 20q43 0 64.5 -34t21.5 -93l-4 -49q-16 -143 -101.5 -301.5t-179.5 -196.5h-2v-51q0 -163 16 -262q31 129 78 229q61 116 119 138q20 8 53 8q48 0 64 -19q22 -27 22 -104q0 -68 -24 -244q-27 -166 -27 -244q0 -91 31 -94h2 q17 0 45 48.5t59 125.5t57.5 149.5t51.5 145t31 86.5q5 13 14 13l6 -2q10 -3 10 -13l-2 -6q-8 -19 -33.5 -94t-53.5 -150.5t-61 -154t-67 -127.5t-61 -49h-2q-59 2 -91.5 13.5t-48.5 49.5q-18 49 -18 127q0 91 26.5 264.5t26.5 210.5q0 21 -2 29q-45 -17 -100 -121 q-59 -120 -90 -289v-2q0 -34 -51 -43q-10 -2 -31 -2q-46 0 -49 25q-31 138 -31 358zM131 645q87 42 161.5 188.5t90.5 276.5l4 51q0 94 -53 94h-2q-40 0 -72.5 -35t-53 -93.5t-35.5 -123t-23 -138.5t-12 -124.5t-5 -95.5z" />
<glyph unicode="i" horiz-adv-x="337" d="M-6 422q0 115 10 160q1 23 21 35t47 12h6q24 0 42.5 -11.5t18.5 -29.5v-2q0 -11 -8 -113t-8 -162q0 -141 41 -141q16 0 31.5 13.5t30.5 38.5t27.5 52t26 65t23 66t21.5 66t18 55q4 11 14 11l9 -2q6 -3 6 -13v-6q-7 -19 -20.5 -60.5t-23.5 -70.5t-25 -69t-29 -67.5 t-31.5 -53.5t-37 -39.5t-40.5 -14.5l-31 -2q-32 0 -53 6q-86 31 -86 277zM29 762q0 23 16 39q17 14 37 14q22 0 39 -14q14 -17 14 -39t-15.5 -37.5t-37.5 -15.5t-37.5 15.5t-15.5 37.5z" />
<glyph unicode="j" horiz-adv-x="362" d="M-217 -180q0 17 4 49q6 36 21 75.5t34.5 74t42 67t43.5 58.5t38 45.5t28 30.5l10 11v82q0 173 -8 295v2q0 19 19.5 31.5t47.5 15.5h7q60 0 63 -45q8 -106 8 -250q132 106 232 173q2 2 8 2q5 0 12 -7q2 -2 2 -8t-6 -12q-151 -105 -246 -188q0 -564 -141 -648 q-27 -18 -70 -18q-44 0 -77 20q-72 43 -72 144zM-188 -176q0 -49 22 -87t68 -46q30 1 51.5 62.5t31.5 156.5t14 157.5t5 118.5q-163 -177 -188 -321zM8 786q0 22 17 39q19 15 38 15q18 0 37 -15q17 -17 17 -39t-16 -37.5t-38 -15.5q-24 0 -39.5 16t-15.5 37z" />
<glyph unicode="k" horiz-adv-x="765" d="M0 522q0 209 25 377q48 326 165 375q35 14 76 14h10q65 0 97.5 -41t32.5 -110q-1 -127 -90 -287t-189 -221v-80q0 -145 8 -246q16 72 42.5 152.5t67.5 176t98 159.5t118 69h12q52 0 79.5 -37.5t27.5 -95.5t-29 -121q-28 -59 -79 -101t-118 -52q26 -26 43 -86t25 -125.5 t15.5 -127.5t21 -102.5t35.5 -40.5h2q30 12 61 54t62 111.5t53 127t53 143.5t43 119q4 11 14 11l6 -2q11 -4 11 -13l-2 -6q-12 -32 -37.5 -103.5t-43.5 -120t-46 -114t-51.5 -108t-53.5 -78.5t-59 -47q-8 -4 -31 -4q-49 0 -74 14q-33 19 -54 73t-32 119.5l-22 131t-31 118 t-51 68.5q-43 -129 -66 -264q-3 -37 -59 -41h-8q-50 0 -53 35q-25 98 -25 327zM129 666q89 65 167 211t79 262q0 118 -96 121q-62 -13 -101 -186t-49 -408zM221 496l29 -4q57 0 110.5 53t79.5 119q35 82 35 131q0 32 -22 32l-11 -2q-35 -10 -70 -46.5t-63.5 -88.5t-49.5 -99 t-38 -95z" />
<glyph unicode="l" horiz-adv-x="524" d="M0 481q0 268 48 501.5t130 293.5q41 27 119 27l33 -3q108 -14 108 -161q0 -43 -8 -84q-24 -137 -107 -284t-182 -216v-57q0 -70 2.5 -145.5t8.5 -165t19 -150t32 -66.5q49 10 109 112.5t127.5 255t88.5 189.5q6 9 15 9q4 0 8 -2q6 -3 6 -13q0 -6 -2 -8q-19 -35 -53 -110 t-66.5 -145t-70 -141t-77.5 -118.5t-75 -56.5q-20 -4 -35 -4q-67 0 -98 47q-80 131 -80 495zM143 594q89 70 162 206.5t96 262.5q9 61 9 78q0 120 -84 129h-4q-52 0 -90.5 -107.5t-61.5 -271.5q-21 -136 -27 -297z" />
<glyph unicode="m" horiz-adv-x="1024" d="M-4 360q0 156 10 224q4 25 23 37t45 12q25 0 43 -15t18 -40l-12 -244q40 172 70 262q95 297 206 297q23 0 47 -12q52 -31 52 -199q0 -36 -2.5 -80t-5.5 -73t-6.5 -66t-4.5 -43q132 313 240 313h10q72 -10 72 -203q0 -75 -13.5 -229t-13.5 -201q0 -84 25 -84h4 q17 5 42.5 49t53 112.5t51 131t47.5 131t31 86.5q4 11 14 11l7 -2q8 -2 8 -13v-6q-11 -28 -38 -104.5t-50 -137t-52 -128t-57 -109.5t-51 -49q-21 -6 -51 -6q-38 0 -56 10q-55 29 -55 203q0 87 16.5 253.5t16.5 204.5q0 27 -2 35q-83 -58 -205 -364q-12 -29 -49 -29l-27 4 q-30 7 -30 180q0 77 7 211t7 152l-2 16q-82 -33 -158 -274q-66 -202 -102 -439q-6 -51 -56 -51h-4q-21 0 -36.5 12t-18.5 33q-8 82 -8 221z" />
<glyph unicode="n" horiz-adv-x="704" d="M-6 362q0 157 10 222q3 23 22 36t44 13h6q24 -2 40.5 -16t16.5 -37l-12 -271q121 529 266 529h4q25 -2 47 -18.5t31 -41.5q14 -43 14 -125q0 -83 -19.5 -274t-19.5 -258q0 -111 37 -111l11 2q19 6 43 46.5t49.5 106.5t45.5 125.5t44 134t33 101.5q4 11 14 11 q14 -1 16 -15l-2 -6q-10 -28 -35 -106.5t-46 -138.5t-48 -128.5t-54.5 -110t-51.5 -48.5q-10 -4 -45 -4q-51 0 -72 12q-55 37 -55 217q0 117 25.5 330t25.5 241q0 23 -4 25q-126 -26 -251 -625q-2 -11 -3 -16q-4 -20 -6.5 -28t-8.5 -20.5t-17 -17t-28 -4.5q-22 0 -39 11.5 t-20 33.5q-8 78 -8 223z" />
<glyph unicode="o" horiz-adv-x="417" d="M-41 559q0 24 8 43q18 45 55.5 70.5t79.5 25.5q66 0 114 -59.5t48 -171.5v-16q103 30 162 81q5 5 10 5q6 0 10 -7q5 -5 5 -10q0 -3 -7 -10q-72 -62 -180 -92q-15 -144 -65 -236q-39 -73 -90 -73h-11q-49 0 -69 20q-56 56 -56 201q0 22 1.5 44.5t3.5 40t3.5 31t2.5 21.5 l2 8l-2 5q-3 4 -6 8.5t-6.5 13t-6 16.5t-4.5 19t-2 22zM0 545q4 8 4 12q3 11 16 18t29 7l25 -4q43 -11 43 -43l-2 -13q-12 -39 -17 -88q12 -2 41 -2q42 0 97 10v25q0 93 -34.5 138.5t-82.5 45.5q-44 0 -80 -31.5t-39 -74.5zM88 260q4 -105 25 -121q27 3 57 54q47 83 61 219 q-57 -11 -90 -11q-12 0 -47 5q-6 -70 -6 -146z" />
<glyph unicode="p" horiz-adv-x="669" d="M-14 106q4 335 20 494q1 24 20.5 37.5t47.5 13.5h6q25 0 43 -12.5t18 -34.5l-8 -100q17 54 51 121q33 59 68 87.5t84 28.5q38 -1 65.5 -24.5t42 -61.5t21 -78t6.5 -85q0 -34 -4 -74l68 36t85 46t58 35q4 2 8 2q10 0 14 -9q2 -2 2 -6q0 -9 -8 -14q-27 -18 -64.5 -38.5 t-96 -50t-74.5 -38.5q-19 -88 -62.5 -165t-103.5 -110q-26 -16 -55 -16q-37 0 -56 31q-14 20 -14 45q0 74 162 174q16 72 16 213q0 152 -41 154q-53 -18 -100 -107q-63 -126 -86 -283q-19 -125 -19 -444l2 -174q0 -20 -15.5 -30.5t-37.5 -10.5q-46 0 -49 33q-14 112 -14 415 zM201 166q0 -18 8 -29q10 -16 29 -16q23 1 46.5 60.5t37.5 117.5q-121 -77 -121 -133z" />
<glyph unicode="q" horiz-adv-x="624" d="M-29 356q0 62 15 127q23 99 72.5 166.5t113.5 67.5l29 -4q49 -10 78 -58q2 8 2 23q3 25 22 37t45 12q25 -2 42.5 -14t17.5 -31v-8q-34 -354 -39 -502q36 38 74.5 88.5t64 87t65.5 96.5t58 86q5 7 10 7t10 -5q6 -3 6 -12q0 -6 -2 -8q-19 -27 -60 -88.5t-67.5 -100t-67 -90 t-77.5 -90.5q58 -16 93 -99.5t38 -182.5v-25q0 -71 -16 -119.5t-47 -54.5q-24 -6 -58 -6q-41 0 -65 12q-88 47 -88 408q0 185 20 395q-93 -292 -160 -301l-16 -2q-57 0 -85 52.5t-28 135.5zM86 242q0 -31 6 -43q30 3 65 78.5t73 194.5t42 130q-10 32 -30 51q-16 19 -43 29 q-37 -19 -80 -219q-33 -150 -33 -221zM367 41q0 -350 71 -350h6q39 7 39 141v23q-1 32 -7 70t-18.5 81.5t-36 74t-54.5 34.5v-74z" />
<glyph unicode="r" horiz-adv-x="530" d="M-49 645q0 27 6 62q11 69 46 105t73 36q8 0 24 -4q41 -18 41 -78l-2 -31q-7 -46 -27 -93.5t-42 -72.5q25 -10 76.5 -14t89 -15t53.5 -42q12 -21 12 -45q0 -11 -2.5 -24.5t-7 -31.5t-6.5 -30q-54 -235 -54 -322q0 -61 25 -61q24 1 56 45t66 117.5t62 141.5t57 143.5 t38 96.5q3 9 14 9l6 -2q8 -4 8 -15v-4q-10 -23 -40.5 -103t-59.5 -148.5t-65 -144t-72.5 -120.5t-67.5 -47l-25 -2q-42 0 -63 26q-33 41 -33 140q0 71 19.5 186.5t19.5 124.5l-2 8q-4 9 -23 16t-43.5 12t-52.5 17t-51 29t-38 52t-15 83zM10 664q0 -53 31 -78q27 22 47 69 t25 90v19q0 44 -23 51h-6q-24 0 -46 -32.5t-26 -86.5z" />
<glyph unicode="s" horiz-adv-x="540" d="M-2 561q0 72 59.5 126t132.5 54l25 -2q42 -6 68 -30.5t26 -59.5q0 -27 -14 -55q-11 -23 -33 -23l-10 2q-16 8 -16 25l2 10q3 10 10.5 14t14 5t11.5 5.5t5 14.5q0 25 -18.5 41t-47.5 21l-25 2q-42 0 -75 -23.5t-33 -66.5v-7q1 -33 26 -66t56.5 -56.5t75 -58.5t69.5 -64 q130 111 246 166l6 2q7 0 12 -9l2 -8q0 -9 -8 -12q-116 -56 -237 -162q57 -76 57 -188q0 -22 -4 -62q-18 -106 -80.5 -186t-142.5 -90h-17q-53 0 -89 36t-36 93q0 26 9 53q42 133 196 287q-26 33 -77 72.5t-88.5 76t-51.5 78.5q-6 21 -6 45zM47 -51q0 -42 25 -70.5t67 -28.5 q12 0 27 3q53 20 79.5 91t28.5 154l2 31q0 78 -36 135q-157 -164 -189 -278q-4 -12 -4 -37z" />
<glyph unicode="t" horiz-adv-x="466" d="M-584 891q0 39 78 70q98 45 279 45q87 0 252 -15q15 135 36 258q6 39 72 39h8q26 -2 44 -14t18 -31v-8q-25 -156 -37 -258q267 -29 377 -29q257 0 381 92q16 11 16 25q0 4 -3 14t-3 15q0 9 12 24q10 10 27 10q14 0 25.5 -8.5t11.5 -21.5q0 -9 -11 -27q-14 -18 -47 -47 q-127 -104 -407 -104q-141 0 -381 26q-25 -266 -25 -502v-90q14 -357 78 -374q46 13 94.5 115t99 255t60.5 176q7 11 14 11l9 -2q8 -4 8 -15l-2 -6q-16 -36 -41.5 -112.5t-50 -145t-53.5 -138.5t-64 -115.5t-70 -53.5q-21 -6 -45 -6q-33 0 -57 16q-51 33 -80 155t-35 302 l-2 129q0 211 21 416q-176 16 -252 16q-166 0 -263 -43q-8 -4 -8 -21v-8q0 -27 -14 -41q-17 -10 -33 -10q-25 0 -35 23q-2 4 -2 14z" />
<glyph unicode="u" horiz-adv-x="638" d="M-6 365q0 130 10 210q3 26 22.5 38t45.5 12q34 -1 45.5 -15t11.5 -41l-2 -39q-4 -33 -11 -134t-7 -163q0 -50 6 -59q56 43 174 453q12 37 53 37l16 -2q22 -3 37 -16t15 -32v-6q-7 -45 -17 -212.5t-10 -284.5t12 -129q82 4 226 483l20 61q4 11 14 11l9 -2q6 -4 6 -13v-6 q-7 -13 -19 -61q-15 -49 -20.5 -66t-24.5 -74t-30.5 -86t-31.5 -79.5t-36 -78.5t-36 -59t-39.5 -45.5t-37.5 -15.5l-22 -2q-27 0 -43 8q-64 29 -64 299q0 65 8 221q-94 -304 -151 -334q-15 -6 -35 -6q-36 0 -49 10q-45 30 -45 218z" />
<glyph unicode="v" horiz-adv-x="649" d="M0 514l2 68q1 21 21 33t45 12h6q27 0 46 -14.5t19 -41.5v-4q-2 -16 -2 -116q0 -70 2.5 -139t9 -140t19 -115t29.5 -45h4q54 0 109.5 115.5t95.5 282.5q-59 33 -102 118.5t-44 214.5v9q0 77 25.5 133.5t70.5 66.5l19 2q100 0 100 -231v-39q-6 -113 -35 -256q8 -2 23 -2 q48 0 103.5 34.5t88.5 69.5q7 7 11 7q5 0 10 -5q6 -6 6 -12t-4 -10q-39 -41 -100 -78t-115 -37l-29 4q-26 -112 -62.5 -204.5t-82.5 -152.5t-90 -60h-2q-53 0 -76 16q-44 31 -72.5 128t-38.5 195t-10 193zM322 758q0 -99 24 -192.5t66 -123.5q26 118 32 246v33 q0 32 -2.5 62.5t-8.5 65.5t-20 56t-34 21l-12 -2q-45 -15 -45 -166z" />
<glyph unicode="w" horiz-adv-x="917" d="M-6 446q0 96 10 144q8 43 66 43h12q24 -3 41.5 -16t17.5 -31v-4q-6 -30 -12 -115.5t-6 -167.5v-47q4 -109 20 -125q35 16 65 92t55 183.5t28 115.5q3 18 21.5 27.5t43.5 9.5h9q27 -2 45 -13.5t18 -31.5v-8q-1 -7 -5 -50t-7.5 -115.5t-3.5 -133.5q0 -199 41 -207l14 -2 q37 0 71 36t60 97t46 132.5t34 152.5q-71 9 -127 89.5t-66 198.5l-2 39q0 90 32.5 148.5t96.5 58.5h4q32 -1 55 -28t34.5 -69.5t17 -82t6.5 -80.5v-37q0 -115 -16 -211q57 1 114.5 28t96.5 66q5 5 8 5q5 0 10 -5q8 -4 8 -10t-6 -12q-43 -42 -105.5 -71t-123.5 -29h-6 q-21 -121 -53.5 -218t-82.5 -163t-108 -66h-8q-45 4 -70 19q-43 25 -67 86.5t-29.5 119t-5.5 134.5v43q-9 -36 -15.5 -58t-22 -66t-30 -70.5t-37 -50t-45.5 -26.5h-10q-19 0 -35 4q-50 18 -73 120.5t-23 227.5zM545 762l2 -60q5 -62 21.5 -118t46.5 -97t67 -47 q16 114 16 209v41q0 27 -3 57.5t-11 70.5t-26.5 67t-45.5 30h-4q-63 0 -63 -153z" />
<glyph unicode="x" horiz-adv-x="591" d="M-147 -55q0 13 10 20q9 6 14 6l17 -2q8 0 16 8q44 49 161 263q10 17 15 26q-60 152 -111 375l-2 14q0 21 15 37.5t37 22.5l26 4q42 0 51 -31q15 -45 37.5 -137t32.5 -127q145 283 188 319q9 9 21 9t21.5 -8.5t9.5 -20.5q0 -10 -4 -16q-8 -15 -23 -15l-12 2q-14 0 -19 -10 q-29 -42 -170 -301v-2q0 -17 25 -92.5t65 -151t72 -78.5q34 0 70.5 67t94.5 204q4 9 6 14t5 13t6 14q33 80 68 155q4 11 12 11l8 -2q9 -5 9 -15l-2 -6q-29 -62 -66 -156q-82 -196 -119 -255q-46 -72 -88 -72h-18q-77 0 -111 20q-59 34 -121 178q-121 -218 -176 -280 q-33 -33 -47 -33q-8 0 -14 6q-10 10 -10 23z" />
<glyph unicode="y" horiz-adv-x="673" d="M-12 389q0 131 37 273q6 28 63 28h14q62 -8 62 -51v-8q-4 -29 -18 -99.5t-22.5 -130t-8.5 -104.5q0 -41 4 -57q50 31 119 213t69 231q0 21 16.5 35.5t41.5 19.5l18 2q53 0 61 -47q21 -114 21 -346q198 167 217 184q5 5 8 5q5 0 12 -7q5 -5 5 -10q0 -3 -7 -10 q-46 -41 -237 -203q-10 -452 -94 -600q-58 -98 -158 -98h-16q-72 6 -104 51t-32 113l2 37q9 78 53 158t92 134t118 121v70q0 109 -9 293q-13 -43 -30.5 -93.5t-46.5 -120t-63 -116t-64 -49.5h-15q-48 0 -69 24q-39 42 -39 158zM90 -205v-22q0 -122 105 -133q37 4 63 63 t39.5 151.5t19 169t7.5 156.5q-102 -98 -164 -191t-70 -194z" />
<glyph unicode="z" horiz-adv-x="548" d="M-4 522q0 15 4 39q13 75 57 127q59 70 142 70h12q49 -6 82 -44t33 -100v-4q-2 -108 -146 -221q40 12 78 12q74 0 115 -47q106 110 184 178q5 5 10 5q4 0 13 -9q2 -2 2 -8t-4 -10q-87 -78 -189 -182q33 -59 33 -168t-30.5 -223.5t-92.5 -202t-139 -99.5h-19q-45 0 -63 7 q-35 10 -54.5 46t-19.5 81v18q17 172 287 477q-18 101 -72 101h-10q-37 -3 -115 -39l-6 -2q-16 0 -16 16q0 7 6 10q52 40 93.5 138.5t41.5 170.5q0 64 -39 64h-8q-49 -12 -86 -55q-39 -45 -49 -111v-2q0 -4 10 -13t10 -20q-3 -24 -26 -24h-7q-22 6 -22 24zM35 -217v-16 q0 -40 16.5 -69t52.5 -32q56 1 102 108t67.5 227.5t21.5 201.5v20q-40 -45 -77.5 -93t-80 -110.5t-70.5 -125t-32 -111.5z" />
<glyph unicode="{" horiz-adv-x="374" d="M41 627q0 11 12 14q21 7 35.5 26.5t22 44t11.5 62.5t5 70t2 78v10q0 7 0.5 37.5t0.5 44t2 44t4.5 46.5t8 42t13 41t19 33.5t25.5 28t34 16.5t43 7l20 -2q12 0 12 -13q0 -16 -10 -16h-4q-49 0 -60 -290q-1 -11 -1 -17q-1 -15 -1 -50t-1 -53t-4.5 -48.5t-11 -49 t-19.5 -40.5t-32.5 -37.5t-47.5 -26.5q61 -24 82.5 -76t21.5 -129l-4 -191q0 -210 55 -253q9 -3 9 -13q-6 -14 -12 -15q-2 -1 -5 -1q-49 4 -81 29t-47.5 68t-21 87t-5.5 105l6 219q0 46 -4.5 76.5t-19 52t-38.5 24.5q-14 4 -14 15z" />
<glyph unicode="|" horiz-adv-x="366" d="M145 -25q0 211 5 720t6 628q0 14 9 21.5t21 7.5t20.5 -7t8.5 -20v-2q0 -179 -5 -679t-5 -683v-86q0 -14 -9 -22.5t-20 -8.5q-13 0 -22 8.5t-9 22.5v100z" />
<glyph unicode="}" horiz-adv-x="395" d="M68 -35q0 17 12 17h2q49 0 60 290q1 11 1 17q1 15 1 50t1 53t4.5 48.5t11 49t19.5 40.5t32.5 37.5t47.5 26.5q-33 13 -55 34.5t-32.5 51t-14.5 58t-4 65.5l4 194q0 204 -56 246q-6 3 -6 12q3 17 17 17q47 -4 79 -28.5t48 -66t22 -85.5t6 -103q-2 -44 -4 -85t-3 -69.5 t-1 -70.5q0 -149 62 -154q14 -3 14 -14t-10 -14q-18 -6 -31.5 -20t-21.5 -37.5t-13 -46t-7 -58.5t-2.5 -61.5t-0.5 -67.5q0 -7 -0.5 -37.5t-0.5 -44t-2 -44t-4.5 -46.5t-8 -42t-13 -41t-19 -33.5t-25.5 -28t-34 -16.5t-43 -7l-20 2q-12 0 -12 12z" />
<glyph unicode="~" horiz-adv-x="819" d="M172 539q0 2 4 10q82 102 168 102q33 0 69 -21.5t65 -43t44 -21.5q34 0 109 64l12 4q1 -1 5.5 -2.5t6 -2.5t3 -3.5t1.5 -6.5l-4 -8q-88 -106 -155 -106q-54 0 -111 51q-41 35 -76 35q-24 0 -46.5 -14.5t-61.5 -47.5q-4 -4 -12 -4t-14.5 4.5t-6.5 10.5z" />
<glyph unicode="&#xa1;" horiz-adv-x="421" d="M106 33v8q56 226 56 747q0 199 -4 271q0 13 14.5 22t34.5 11q35 0 41 -25q33 -145 33 -426q-3 -185 -4.5 -265t-8.5 -179t-20 -166q-4 -23 -24 -35t-44 -12q-74 8 -74 49zM143 1235q0 21 16 36t38 15q21 0 36 -15t15 -36q0 -22 -14.5 -36.5t-36.5 -14.5t-38 15t-16 36z " />
<glyph unicode="&#xa2;" horiz-adv-x="614" d="M41 453q0 95 35 178t103 135.5t155 52.5h16q59 243 74 297q1 9 9.5 16t17.5 7q30 -7 30 -31q-7 -42 -17 -83.5t-26 -102t-28 -113.5q93 -37 112 -121q0 -10 -4 -15t-8.5 -6.5t-15.5 -4.5q-20 0 -23 22q0 5 3 14t3 13q0 18 -24 37t-52 30q-95 -413 -135 -604q2 -2 6 -2 l23 -2q79 0 139.5 50t89.5 130q3 8 15 8q14 0 14 -12v-6q-34 -90 -102.5 -145.5t-157.5 -55.5l-27 2q-2 2 -6 2q-23 -109 -45 -231q-1 -11 -10.5 -18t-20.5 -7h-4q-26 3 -26 31l47 240q-81 35 -120.5 116t-39.5 179zM152 406q0 -135 59 -199q18 90 34 163t26.5 117.5 t31.5 134t39 166.5q-36 0 -67.5 -25t-52.5 -66.5t-35.5 -86t-22.5 -92.5q-12 -52 -12 -112z" />
<glyph unicode="&#xa3;" horiz-adv-x="876" d="M82 6q0 9 8 14q102 60 141 157t39 229l-2 79l-110 2q-9 0 -16 7t-7 16t8 15.5t17 6.5h106q-1 17 -6.5 69t-8.5 91.5t-3 75.5q0 104 26 168q29 74 95 118.5t151 49.5q96 0 167 -67t71 -160q-2 -31 -6.5 -41.5t-18.5 -10.5q-11 1 -17.5 9t-6.5 16q0 10 10 18.5t10 12.5 q-8 82 -65 138t-144 56q-47 -5 -78.5 -28.5t-47.5 -63.5t-22.5 -84t-6.5 -102q0 -53 7.5 -150t8.5 -115h174q9 0 17 -6.5t8 -15.5t-8 -16t-17 -7h-172v-79q0 -283 -119 -381h453q6 0 10 -5.5t4 -11.5q0 -14 -14 -14l-340 2q-141 0 -279 -6q-12 0 -16 14z" />
<glyph unicode="&#xa4;" horiz-adv-x="481" d="M61 330q0 5 5 10l49 43q-41 50 -41 121q0 91 51 151l-47 45q-4 2 -4 11q0 6 4 11t10 5l12 -4l47 -45q39 33 93 33q48 0 90 -31l55 41q2 2 8 2q7 0 9 -3t6 -13q0 -9 -5 -11l-51 -39q41 -51 41 -131q0 -96 -57 -153l47 -43q4 -8 4 -11q0 -5 -4 -10.5t-10 -5.5q-8 0 -11 6 l-51 45q-31 -22 -75 -22q-56 0 -101 30l-47 -43q-6 -6 -12 -6q-5 0 -10 5t-5 12zM182 504q0 -127 80 -137q47 11 72.5 55t27.5 102q0 56 -25.5 100t-72.5 54q-34 -3 -58 -56t-24 -118z" />
<glyph unicode="&#xa5;" horiz-adv-x="731" d="M74 1083q0 12 9 20.5t21 8.5q16 0 29 -16q13 -29 108.5 -241.5t125.5 -281.5q29 53 140 266.5t142 268.5q3 6 13 6q12 -3 13 -9q1 -3 1 -7v-6q-33 -56 -149.5 -279t-143.5 -272h172q16 0 20 -27q0 -6 -5.5 -12t-14.5 -6l-168 -2q0 -46 -2 -66h166q10 0 16 -7.5t6 -17.5 q-4 -20 -22 -20l-168 -2l-4 -350q0 -12 -12.5 -20.5t-24.5 -8.5q-13 0 -25 7.5t-12 23.5l4 348h-162q-10 0 -16 7.5t-6 17.5q0 8 6 15t16 7q59 -2 162 -2q0 45 2 68h-159q-25 0 -25 22q4 25 25 25q59 -2 163 -2q-60 145 -237 530z" />
<glyph unicode="&#xa7;" horiz-adv-x="827" d="M80 -49q3 43 33 43q13 -1 21.5 -10.5t8.5 -20.5q-1 -17 -14.5 -28t-13.5 -15l2 -2q14 -42 58.5 -74.5t96.5 -47.5t101 -15q64 2 112.5 27t75.5 64.5t40 82.5t13 88v25q-5 48 -34.5 88.5t-73 69.5t-95 56t-102.5 55.5t-92.5 61t-67.5 79.5t-26 104q1 63 36 115.5t88 83 t113 38.5q-8 5 -23 15q-43 28 -65 43t-56 43.5t-51 52t-30.5 56.5t-13.5 69q3 89 59 155t137.5 96.5t174.5 30.5q118 -3 190 -48t72 -128q0 -67 -33 -67q-25 3 -25 26q2 17 15.5 26.5t13.5 14.5q0 47 -35.5 81t-80 49t-91.5 18q-60 -2 -119 -30t-100.5 -81t-42.5 -115 q0 -57 42.5 -106.5t104 -87.5t123 -78.5t107 -98.5t49.5 -128v-15q0 -81 -62.5 -147.5t-150.5 -73.5q136 -73 182 -110q100 -80 107 -198v-11q0 -134 -110.5 -227t-254.5 -93l-26 2q-48 3 -94.5 15t-91.5 34t-73 60.5t-28 87.5zM266 592q0 -33 15 -62t44.5 -52.5t53 -37.5 t59.5 -32q0 3 17 15.5t37.5 29t37.5 50.5t17 75q-4 72 -39 118t-113 101q-54 -19 -90 -70t-39 -135z" />
<glyph unicode="&#xa8;" horiz-adv-x="350" d="M49 1174q0 20 14.5 34.5t34.5 14.5q21 0 35 -14t14 -35q0 -20 -14.5 -35t-34.5 -15t-34.5 14t-14.5 36zM201 1174q0 21 14 35t35 14t35 -14t14 -35q0 -20 -14.5 -35t-34.5 -15t-34.5 14t-14.5 36z" />
<glyph unicode="&#xa9;" horiz-adv-x="1144" d="M74 532q0 113 34 214.5t98.5 181.5t166 127t227.5 47q120 -3 213.5 -44t151.5 -111t88 -159t30 -192q0 -108 -35.5 -210t-101 -185t-170 -133t-231.5 -50h-21q-138 5 -242 77.5t-156 186t-52 250.5zM184 514q0 -74 13 -141t41 -126t70 -102.5t104.5 -69t138.5 -26.5 q96 0 178.5 31t141 84t100.5 123t62 148t20 159q0 131 -53.5 243t-155.5 173q-102 51 -201 51q-202 -6 -330.5 -158.5t-128.5 -388.5zM408 522l4 43q3 45 16.5 90.5t36.5 87t62 67.5t87 26q41 -2 71.5 -22t39.5 -58q0 -16 -20 -19q-18 0 -21 15l4 20q-21 30 -70 33 q-31 0 -60 -91.5t-34 -146.5q-10 -52 -10 -102q0 -150 82 -150q42 0 75.5 31t49.5 74q3 8 12 8h7q7 -1 8.5 -4t1.5 -10v-4q-24 -62 -66 -93.5t-90 -31.5q-76 2 -131 65.5t-55 171.5z" />
<glyph unicode="&#xab;" horiz-adv-x="540" d="M61 432q0 2 5 12l184 218q4 4 10 4t11 -5.5t5 -11.5l-2 -8l-165 -195l167 -151q5 -5 5 -16t-6 -20t-15 -9q-7 0 -10 6l-182 166q-7 4 -7 10zM231 434l5 10l184 218q4 4 8 4q6 0 11 -5.5t5 -11.5l-2 -8l-166 -195l168 -151q5 -5 5 -16t-6 -20t-13 -9t-10 6l-182 166 q-7 4 -7 12z" />
<glyph unicode="&#xad;" horiz-adv-x="802" d="M170 489q0 9 7 16t16 7h391q9 0 15.5 -7t6.5 -16t-6.5 -15.5t-15.5 -6.5h-391q-9 0 -16 6.5t-7 15.5z" />
<glyph unicode="&#xae;" horiz-adv-x="544" d="M74 1090q5 101 62 161t151 60q88 -5 143 -57.5t55 -133.5q-5 -108 -59 -178t-158 -70h-10q-86 3 -135 67.5t-49 150.5zM135 1079q0 -173 139 -178q85 0 131.5 64.5t49.5 152.5q0 65 -42 111t-108 47q-71 0 -118.5 -51t-51.5 -146zM207 1169q0 20 28 36t54 16q31 0 52 -17 t21 -45q-5 -34 -21 -52.5t-56 -21.5l55 -63q4 -4 4 -12q-2 -6 -2.5 -7t-3 -4.5t-4.5 -4.5t-6 -1q-6 0 -9 6l-61 68q-6 -43 -6 -59q0 -17 -16 -17q-12 4 -15 15q0 19 9.5 79.5t17.5 90.5q-5 -4 -8 -7l-4 -4t-3 -2.5t-5 -2.5l-9 -3q-12 0 -12 12zM266 1114h4q56 0 62 43 q0 16 -11.5 24.5t-27.5 8.5h-8q-11 -16 -19 -76z" />
<glyph unicode="&#xb1;" horiz-adv-x="536" d="M45 496q0 9 6.5 16.5t16.5 7.5h159l4 150q1 13 10.5 20.5t20.5 7.5q13 0 22 -8t9 -22l-6 -148h162q22 0 22 -24q0 -8 -6 -14.5t-16 -6.5h-162l-4 -190q0 -13 -9.5 -20t-21.5 -7q-11 0 -20 8.5t-9 22.5l2 186h-157q-10 0 -16.5 6.5t-6.5 14.5zM47 201q0 24 23 24h362 q23 0 23 -20q-4 -25 -23 -25h-362q-10 0 -16.5 6.5t-6.5 14.5z" />
<glyph unicode="&#xb4;" horiz-adv-x="319" d="M76 1147q0 4 4 8l115 133q6 6 12 6q13 0 27 -13.5t14 -25.5q0 -6 -6 -12q-24 -24 -76.5 -68.5t-56.5 -48.5q-7 -2 -11 -2q-9 0 -15.5 7t-6.5 16z" />
<glyph unicode="&#xb5;" horiz-adv-x="636" d="M86 -219q0 444 20 932q0 20 18 31.5t42 11.5t40.5 -10t16.5 -29q0 -10 -4.5 -71t-8 -134.5t-3.5 -140.5q3 -205 110 -205q44 0 77 42t42 124q13 186 13 303l-3 84q0 23 13.5 32t42.5 11q13 0 22 -2t15 -8.5t9 -12t5 -18.5t2 -22t0.5 -28.5t1.5 -31.5q0 -67 -9 -181 t-11 -157q0 -119 51 -149q6 -6 6 -13q-2 -12 -14 -12q-28 3 -55.5 33t-30.5 59q-23 -42 -72.5 -64t-95.5 -22q-74 0 -123 49l-2 -456q0 -23 -21 -36.5t-47 -13.5q-19 0 -32 8t-13 21z" />
<glyph unicode="&#xb8;" horiz-adv-x="280" d="M84 -94q0 11 16 14q6 0 17 -10t20 -10q28 0 33 45q0 28 -29 28q-6 0 -26 -4q-15 3 -15 13l17 77q3 13 14 13q14 -3 14 -15l-10 -53l8 2q28 0 49 -18t21 -45q-3 -33 -24 -52.5t-52 -19.5q-45 0 -53 35z" />
<glyph unicode="&#xbb;" horiz-adv-x="456" d="M20 637q0 10 6.5 19.5t14.5 9.5q4 0 12 -4l183 -166q4 -8 4 -15q0 -6 -2 -8l-185 -217q-6 -6 -10 -6q-6 0 -11 5t-5 11l4 10l164 195l-166 152q-9 6 -9 14zM190 637q0 10 6.5 19.5t14.5 9.5q4 0 12 -4l183 -166q4 -8 4 -13q0 -6 -4 -10l-183 -217q-6 -6 -12 -6t-11 5 t-5 11l4 10l166 195l-168 152q-7 2 -7 14z" />
<glyph unicode="&#xbf;" horiz-adv-x="716" d="M68 217q3 78 26.5 147t47 105.5t73.5 101.5t70 95q108 156 108 356l-2 55q0 14 12 23.5t27 11.5h6q29 0 35 -27q12 -59 12 -114q0 -194 -118 -359q-14 -20 -44.5 -63t-46 -65.5t-38.5 -61.5t-35 -68t-22 -67t-11 -76q0 -94 51.5 -151t147.5 -60q106 0 175.5 77t69.5 183 q0 41 -16 94q-9 25 -23 25l-4 -2q-13 0 -16 20q0 12 9 21.5t18 9.5q13 0 24 -18q39 -74 39 -152q0 -121 -85.5 -207t-215.5 -86q-123 5 -198.5 74t-75.5 178zM379 1255q0 20 14.5 35t34.5 15q21 0 35 -14.5t14 -35.5q0 -20 -14.5 -34.5t-34.5 -14.5t-34.5 14.5t-14.5 34.5z " />
<glyph unicode="&#xc0;" d="M0 100q0 100 28 183t73.5 139.5t109 98.5t128.5 65t138 35q16 99 27 162.5t27.5 146.5t32 136t36.5 114t44 98t52.5 70.5t65 49t76.5 17.5q39 0 69 -14t49.5 -41.5t32.5 -60.5t19.5 -79t9 -89t2.5 -97q0 -166 -25 -403h35q84 0 127 12q4 2 4 10v6q0 10 7.5 21.5 t19.5 11.5q14 0 21.5 -9t7.5 -19q0 -5 -5 -15q-29 -47 -168 -47h-51q-1 -7 -14 -109t-22 -202.5t-9 -188.5q0 -335 142 -340q44 2 82 57t66.5 148t51 187.5t48.5 203.5t46 168q3 11 13 11q6 0 11 -4.5t5 -10.5l-2 -6q-18 -53 -43.5 -162.5t-49.5 -206.5t-55.5 -194.5 t-75.5 -157.5t-95 -63h-9q-43 0 -102.5 20t-83.5 45q-84 94 -84 365q0 183 39 444l-127 4q-122 0 -221 -16q-53 -337 -85 -463q-72 -283 -189 -320q-2 -1 -3 -1q-25 -7 -45 -7q-59 0 -102 47t-61.5 112.5t-18.5 137.5zM29 100q0 -108 42 -187t113 -79q11 0 35 4 q35 11 64.5 45t52.5 92t41.5 119.5t35.5 150.5t29 160t27 171q0 3 0.5 5t1 4.5t0.5 4.5q-92 -17 -168.5 -52.5t-139.5 -93.5t-98.5 -146t-35.5 -198zM508 627q101 14 215 14l131 -4q3 29 12.5 107t14 121.5t10.5 107.5t9 115t3 94q0 200 -76 200q-31 -2 -59 -16t-50.5 -36 t-43 -59.5t-36.5 -74t-32.5 -93t-28 -103t-25 -117.5t-22.5 -123.5t-22 -132.5zM795 1597q0 12 14 25.5t27 13.5q6 0 12 -6l113 -133q4 -2 4 -10q0 -7 -6.5 -14t-14.5 -7q-6 0 -10 2q-109 92 -135 117q-4 8 -4 12z" />
<glyph unicode="&#xc1;" d="M0 100q0 100 28 183t73.5 139.5t109 98.5t128.5 65t138 35q16 99 27 162.5t27.5 146.5t32 136t36.5 114t44 98t52.5 70.5t65 49t76.5 17.5q39 0 69 -14t49.5 -41.5t32.5 -60.5t19.5 -79t9 -89t2.5 -97q0 -166 -25 -403h35q84 0 127 12q4 2 4 10v6q0 10 7.5 21.5 t19.5 11.5q14 0 21.5 -9t7.5 -19q0 -5 -5 -15q-29 -47 -168 -47h-51q-1 -7 -14 -109t-22 -202.5t-9 -188.5q0 -335 142 -340q44 2 82 57t66.5 148t51 187.5t48.5 203.5t46 168q3 11 13 11q6 0 11 -4.5t5 -10.5l-2 -6q-18 -53 -43.5 -162.5t-49.5 -206.5t-55.5 -194.5 t-75.5 -157.5t-95 -63h-9q-43 0 -102.5 20t-83.5 45q-84 94 -84 365q0 183 39 444l-127 4q-122 0 -221 -16q-53 -337 -85 -463q-72 -283 -189 -320q-2 -1 -3 -1q-25 -7 -45 -7q-59 0 -102 47t-61.5 112.5t-18.5 137.5zM29 100q0 -108 42 -187t113 -79q11 0 35 4 q35 11 64.5 45t52.5 92t41.5 119.5t35.5 150.5t29 160t27 171q0 3 0.5 5t1 4.5t0.5 4.5q-92 -17 -168.5 -52.5t-139.5 -93.5t-98.5 -146t-35.5 -198zM508 627q101 14 215 14l131 -4q3 29 12.5 107t14 121.5t10.5 107.5t9 115t3 94q0 200 -76 200q-31 -2 -59 -16t-50.5 -36 t-43 -59.5t-36.5 -74t-32.5 -93t-28 -103t-25 -117.5t-22.5 -123.5t-22 -132.5zM776 1532q0 4 4 8l115 133q6 6 12 6q13 0 27 -13.5t14 -25.5q0 -6 -6 -12q-24 -24 -76.5 -68.5t-56.5 -48.5l-10 -2q-9 0 -16 7t-7 16z" />
<glyph unicode="&#xc2;" d="M0 100q0 100 28 183t73.5 139.5t109 98.5t128.5 65t138 35q16 99 27 162.5t27.5 146.5t32 136t36.5 114t44 98t52.5 70.5t65 49t76.5 17.5q39 0 69 -14t49.5 -41.5t32.5 -60.5t19.5 -79t9 -89t2.5 -97q0 -166 -25 -403h35q84 0 127 12q4 2 4 10v6q0 10 7.5 21.5 t19.5 11.5q14 0 21.5 -9t7.5 -19q0 -5 -5 -15q-29 -47 -168 -47h-51q-1 -7 -14 -109t-22 -202.5t-9 -188.5q0 -335 142 -340q44 2 82 57t66.5 148t51 187.5t48.5 203.5t46 168q3 11 13 11q6 0 11 -4.5t5 -10.5l-2 -6q-18 -53 -43.5 -162.5t-49.5 -206.5t-55.5 -194.5 t-75.5 -157.5t-95 -63h-9q-43 0 -102.5 20t-83.5 45q-84 94 -84 365q0 183 39 444l-127 4q-122 0 -221 -16q-53 -337 -85 -463q-72 -283 -189 -320q-2 -1 -3 -1q-25 -7 -45 -7q-59 0 -102 47t-61.5 112.5t-18.5 137.5zM29 100q0 -108 42 -187t113 -79q11 0 35 4 q35 11 64.5 45t52.5 92t41.5 119.5t35.5 150.5t29 160t27 171q0 3 0.5 5t1 4.5t0.5 4.5q-92 -17 -168.5 -52.5t-139.5 -93.5t-98.5 -146t-35.5 -198zM508 627q101 14 215 14l131 -4q3 29 12.5 107t14 121.5t10.5 107.5t9 115t3 94q0 200 -76 200q-31 -2 -59 -16t-50.5 -36 t-43 -59.5t-36.5 -74t-32.5 -93t-28 -103t-25 -117.5t-22.5 -123.5t-22 -132.5zM776 1528q0 8 4 10l66 78q8 12 28 12l9 -4l61 -78q2 -2 2 -6q0 -9 -9.5 -18t-18.5 -9q-6 0 -11 5l-49 63l-55 -63l-10 -5q-6 0 -11.5 5t-5.5 10z" />
<glyph unicode="&#xc3;" d="M0 100q0 100 28 183t73.5 139.5t109 98.5t128.5 65t138 35q16 99 27 162.5t27.5 146.5t32 136t36.5 114t44 98t52.5 70.5t65 49t76.5 17.5q39 0 69 -14t49.5 -41.5t32.5 -60.5t19.5 -79t9 -89t2.5 -97q0 -166 -25 -403h35q84 0 127 12q4 2 4 10v6q0 10 7.5 21.5 t19.5 11.5q14 0 21.5 -9t7.5 -19q0 -5 -5 -15q-29 -47 -168 -47h-51q-1 -7 -14 -109t-22 -202.5t-9 -188.5q0 -335 142 -340q44 2 82 57t66.5 148t51 187.5t48.5 203.5t46 168q3 11 13 11q6 0 11 -4.5t5 -10.5l-2 -6q-18 -53 -43.5 -162.5t-49.5 -206.5t-55.5 -194.5 t-75.5 -157.5t-95 -63h-9q-43 0 -102.5 20t-83.5 45q-84 94 -84 365q0 183 39 444l-127 4q-122 0 -221 -16q-53 -337 -85 -463q-72 -283 -189 -320q-2 -1 -3 -1q-25 -7 -45 -7q-59 0 -102 47t-61.5 112.5t-18.5 137.5zM29 100q0 -108 42 -187t113 -79q11 0 35 4 q35 11 64.5 45t52.5 92t41.5 119.5t35.5 150.5t29 160t27 171q0 3 0.5 5t1 4.5t0.5 4.5q-92 -17 -168.5 -52.5t-139.5 -93.5t-98.5 -146t-35.5 -198zM508 627q101 14 215 14l131 -4q3 29 12.5 107t14 121.5t10.5 107.5t9 115t3 94q0 200 -76 200q-31 -2 -59 -16t-50.5 -36 t-43 -59.5t-36.5 -74t-32.5 -93t-28 -103t-25 -117.5t-22.5 -123.5t-22 -132.5zM760 1536q7 32 24 48t37 18q12 0 56 -27q20 -12 30 -12q16 0 27 22q7 14 16 14q17 -3 17 -22v-6q-9 -27 -26.5 -45.5t-37.5 -18.5t-46 20.5t-38 20.5q-7 0 -21 -15t-20 -15q-10 3 -14 6.5 t-4 11.5z" />
<glyph unicode="&#xc4;" d="M0 100q0 100 28 183t73.5 139.5t109 98.5t128.5 65t138 35q16 99 27 162.5t27.5 146.5t32 136t36.5 114t44 98t52.5 70.5t65 49t76.5 17.5q39 0 69 -14t49.5 -41.5t32.5 -60.5t19.5 -79t9 -89t2.5 -97q0 -166 -25 -403h35q84 0 127 12q4 2 4 10v6q0 10 7.5 21.5 t19.5 11.5q14 0 21.5 -9t7.5 -19q0 -5 -5 -15q-29 -47 -168 -47h-51q-1 -7 -14 -109t-22 -202.5t-9 -188.5q0 -335 142 -340q44 2 82 57t66.5 148t51 187.5t48.5 203.5t46 168q3 11 13 11q6 0 11 -4.5t5 -10.5l-2 -6q-18 -53 -43.5 -162.5t-49.5 -206.5t-55.5 -194.5 t-75.5 -157.5t-95 -63h-9q-43 0 -102.5 20t-83.5 45q-84 94 -84 365q0 183 39 444l-127 4q-122 0 -221 -16q-53 -337 -85 -463q-72 -283 -189 -320q-2 -1 -3 -1q-25 -7 -45 -7q-59 0 -102 47t-61.5 112.5t-18.5 137.5zM29 100q0 -108 42 -187t113 -79q11 0 35 4 q35 11 64.5 45t52.5 92t41.5 119.5t35.5 150.5t29 160t27 171q0 3 0.5 5t1 4.5t0.5 4.5q-92 -17 -168.5 -52.5t-139.5 -93.5t-98.5 -146t-35.5 -198zM508 627q101 14 215 14l131 -4q3 29 12.5 107t14 121.5t10.5 107.5t9 115t3 94q0 200 -76 200q-31 -2 -59 -16t-50.5 -36 t-43 -59.5t-36.5 -74t-32.5 -93t-28 -103t-25 -117.5t-22.5 -123.5t-22 -132.5zM750 1573q0 20 14.5 34.5t34.5 14.5q21 0 35 -14t14 -35q0 -20 -14.5 -34.5t-34.5 -14.5q-21 0 -35 14t-14 35zM901 1573q0 21 14 35t35 14t35 -14t14 -35q0 -20 -14.5 -34.5t-34.5 -14.5 q-21 0 -35 14t-14 35z" />
<glyph unicode="&#xc5;" d="M0 100q0 100 28 183t73.5 139.5t109 98.5t128.5 65t138 35q16 99 27 162.5t27.5 146.5t32 136t36.5 114t44 98t52.5 70.5t65 49t76.5 17.5q39 0 69 -14t49.5 -41.5t32.5 -60.5t19.5 -79t9 -89t2.5 -97q0 -166 -25 -403h35q84 0 127 12q4 2 4 10v6q0 10 7.5 21.5 t19.5 11.5q14 0 21.5 -9t7.5 -19q0 -5 -5 -15q-29 -47 -168 -47h-51q-1 -7 -14 -109t-22 -202.5t-9 -188.5q0 -335 142 -340q44 2 82 57t66.5 148t51 187.5t48.5 203.5t46 168q3 11 13 11q6 0 11 -4.5t5 -10.5l-2 -6q-18 -53 -43.5 -162.5t-49.5 -206.5t-55.5 -194.5 t-75.5 -157.5t-95 -63h-9q-43 0 -102.5 20t-83.5 45q-84 94 -84 365q0 183 39 444l-127 4q-122 0 -221 -16q-53 -337 -85 -463q-72 -283 -189 -320q-2 -1 -3 -1q-25 -7 -45 -7q-59 0 -102 47t-61.5 112.5t-18.5 137.5zM29 100q0 -108 42 -187t113 -79q11 0 35 4 q35 11 64.5 45t52.5 92t41.5 119.5t35.5 150.5t29 160t27 171q0 3 0.5 5t1 4.5t0.5 4.5q-92 -17 -168.5 -52.5t-139.5 -93.5t-98.5 -146t-35.5 -198zM508 627q101 14 215 14l131 -4q3 29 12.5 107t14 121.5t10.5 107.5t9 115t3 94q0 200 -76 200q-31 -2 -59 -16t-50.5 -36 t-43 -59.5t-36.5 -74t-32.5 -93t-28 -103t-25 -117.5t-22.5 -123.5t-22 -132.5zM801 1567q1 42 20 64t49 22q68 -4 68 -76q-1 -38 -21 -60t-49 -22h-4q-26 0 -44.5 19.5t-18.5 52.5zM848 1571q0 -43 22 -43q16 0 25.5 15t9.5 34q0 18 -8 29.5t-23 11.5q-13 0 -19.5 -14 t-6.5 -33z" />
<glyph unicode="&#xc6;" horiz-adv-x="2174" d="M0 100q0 171 72 281q69 106 180 166q109 59 225 74q47 341 123 561q74 218 238 233q77 0 118 -53q40 -55 52 -141q12 -89 12 -187q0 -132 -8 -231q-2 -27 -17 -172h35q80 0 127 12l4 4v6v6q0 9 6 21t21 12q17 0 22 -8q7 -10 7 -20q0 -5 -5 -15q-16 -28 -59 -37 q-52 -10 -109 -10h-51q0 -3 -3 -26.5t-5 -40.5q-12 -84 -24 -199q-13 -127 -13 -234q0 -129 31 -231q26 -100 111 -109q82 12 135 164q3 9 8 28t8 28q-8 47 -8 106q0 193 100 365q8 15 51 75q7 7 9 7q83 99 221 135q-252 105 -252 327q0 98 39 177q38 84 110 135 q68 51 172 51q277 -9 277 -309q0 -49 -8 -68q-9 -20 -31 -20q-16 3 -25 12q-10 10 -10 24q0 19 8 27t19 12q6 2 14 6q4 4 4 11q-3 115 -53 188q-51 75 -172 84q-72 0 -121 -55q-51 -60 -74 -137q-24 -79 -24 -150q0 -100 47 -192t160 -113q8 -4 10 -6q2 -4 2 -10 q0 -7 -4 -11q-2 -4 -10 -8q-112 -15 -185 -106q-70 -87 -106 -213q-35 -125 -35 -220q0 -98 35 -198q34 -101 100 -164q66 -66 160 -66h6q126 18 209 121t141 242q54 137 99 283q37 121 69 204q3 9 13 9q2 0 12 -5q4 -4 4 -10v-6q-46 -111 -84 -235q-47 -152 -98 -279 q-55 -138 -142 -238q-87 -98 -221 -116q-46 -4 -65 -4q-128 0 -209 63q-79 59 -121 164q-11 24 -21 55v-4q-61 -172 -161 -190h-9q-42 0 -98 20q-62 19 -88 45q-44 50 -63 148q-21 95 -21 217q0 210 39 444l-127 4q-99 0 -221 -16q-1 -7 -3 -20.5t-3 -20.5 q-38 -274 -95 -481q-58 -216 -176 -262q-25 -7 -45 -7q-61 0 -102 47q-43 50 -60 115q-20 64 -20 135zM29 100q0 -100 41 -184q40 -82 114 -82q11 0 35 4q104 43 160 256q52 208 90 475q0 15 2 21q-121 -21 -217 -78q-102 -59 -162 -158q-63 -100 -63 -254zM508 627 q101 14 215 14l131 -4q2 29 10 82q15 120 27 246q12 123 12 217q0 45 -2 78q-3 45 -18 86q-14 36 -56 36q-138 -15 -206 -229q-65 -208 -113 -526z" />
<glyph unicode="&#xc7;" horiz-adv-x="815" d="M0 387q0 234 51 428q55 214 158 352q110 147 293 156q88 0 135 -68q45 -68 45 -170q0 -71 -27 -133q-26 -63 -57 -63q-14 0 -23 12q-10 13 -10 27q0 18 13 28q15 11 22 11l23 -2q7 0 10 8q20 50 20 114q0 78 -35 140t-114 65q-88 0 -148 -75q-58 -72 -100 -191 q-44 -125 -66 -233q-38 -182 -38 -400q0 -144 28 -309q26 -158 86 -272q55 -110 140 -119q106 24 180 141q73 118 119 266t77 285l4 16q13 69 31 123q7 13 17 13l10 -5q4 -4 4 -10l-2 -6l-31 -121q-1 -5 -4 -18t-4 -21q-27 -116 -74 -266q-48 -150 -127 -276 q-80 -123 -198 -150q-28 -4 -46 -4q-20 0 -30 2l-8 -47l8 2q28 0 49 -18q20 -17 20 -45q-15 -72 -75 -72q-18 0 -31 8q-17 7 -23 27q0 8 4 12q2 2 13 2q6 0 8 -2q1 -1 4 -3t4 -3q6 -6 10 -8q4 -4 11 -4q26 0 32 45q-3 28 -28 28h-8q-7 0 -9 -2t-10 -2q-14 3 -14 12l16 74 q-59 16 -98 55q-67 61 -107 148q-55 119 -75 248q-25 137 -25 270z" />
<glyph unicode="&#xc8;" horiz-adv-x="946" d="M0 88q0 130 43.5 252t132.5 214t205 116q-120 44 -186 130t-66 197q0 94 37 175.5t112 134.5t173 53q276 -15 276 -309q-2 -50 -9.5 -69t-29.5 -19q-35 4 -35 36q0 18 11.5 27.5t22.5 15t11 13.5q-2 117 -56.5 191.5t-168.5 80.5q-66 0 -118 -58t-76.5 -134.5 t-24.5 -149.5q0 -72 19 -134.5t67.5 -112t120.5 -58.5q12 -3 12 -16q0 -16 -14 -19q-80 -10 -145 -67.5t-103 -139.5t-58 -168.5t-20 -163.5q0 -105 33 -201t102.5 -161.5t159.5 -65.5h6q77 9 142.5 58.5t110 117t86 163t67 176.5t58 181t54.5 154q3 9 13 9q6 0 11 -4.5 t5 -10.5v-6q-26 -59 -59 -159t-59 -184t-68.5 -180.5t-88 -165t-115.5 -119t-155 -60.5q-46 -4 -65 -4q-75 0 -137 24t-104.5 65.5t-72 98t-43.5 121t-14 135.5zM440 1579q0 12 14 25.5t27 13.5q7 0 13 -6l112 -133q4 -2 4 -11q0 -8 -6 -14t-14 -6q-6 0 -10 2 q-118 100 -136 117q-4 8 -4 12z" />
<glyph unicode="&#xc9;" horiz-adv-x="946" d="M0 88q0 130 43.5 252t132.5 214t205 116q-120 44 -186 130t-66 197q0 94 37 175.5t112 134.5t173 53q276 -15 276 -309q-2 -50 -9.5 -69t-29.5 -19q-35 4 -35 36q0 18 11.5 27.5t22.5 15t11 13.5q-2 117 -56.5 191.5t-168.5 80.5q-66 0 -118 -58t-76.5 -134.5 t-24.5 -149.5q0 -72 19 -134.5t67.5 -112t120.5 -58.5q12 -3 12 -16q0 -16 -14 -19q-80 -10 -145 -67.5t-103 -139.5t-58 -168.5t-20 -163.5q0 -105 33 -201t102.5 -161.5t159.5 -65.5h6q77 9 142.5 58.5t110 117t86 163t67 176.5t58 181t54.5 154q3 9 13 9q6 0 11 -4.5 t5 -10.5v-6q-26 -59 -59 -159t-59 -184t-68.5 -180.5t-88 -165t-115.5 -119t-155 -60.5q-46 -4 -65 -4q-75 0 -137 24t-104.5 65.5t-72 98t-43.5 121t-14 135.5zM422 1487q0 4 4 8l115 133q6 6 12 6q13 0 27 -13.5t14 -25.5q0 -6 -6 -12q-24 -24 -76.5 -68.5t-56.5 -48.5 l-11 -2q-9 0 -15.5 7t-6.5 16z" />
<glyph unicode="&#xca;" horiz-adv-x="946" d="M0 88q0 130 43.5 252t132.5 214t205 116q-120 44 -186 130t-66 197q0 94 37 175.5t112 134.5t173 53q276 -15 276 -309q-2 -50 -9.5 -69t-29.5 -19q-35 4 -35 36q0 18 11.5 27.5t22.5 15t11 13.5q-2 117 -56.5 191.5t-168.5 80.5q-66 0 -118 -58t-76.5 -134.5 t-24.5 -149.5q0 -72 19 -134.5t67.5 -112t120.5 -58.5q12 -3 12 -16q0 -16 -14 -19q-80 -10 -145 -67.5t-103 -139.5t-58 -168.5t-20 -163.5q0 -105 33 -201t102.5 -161.5t159.5 -65.5h6q77 9 142.5 58.5t110 117t86 163t67 176.5t58 181t54.5 154q3 9 13 9q6 0 11 -4.5 t5 -10.5v-6q-26 -59 -59 -159t-59 -184t-68.5 -180.5t-88 -165t-115.5 -119t-155 -60.5q-46 -4 -65 -4q-75 0 -137 24t-104.5 65.5t-72 98t-43.5 121t-14 135.5zM438 1481q0 8 4 10l66 78q8 12 29 12l8 -4l61 -78q2 -2 2 -6q0 -9 -9.5 -18t-18.5 -9q-7 0 -11 4l-49 64 l-55 -64q-8 -4 -10 -4q-6 0 -11.5 5t-5.5 10z" />
<glyph unicode="&#xcb;" horiz-adv-x="946" d="M0 88q0 130 43.5 252t132.5 214t205 116q-120 44 -186 130t-66 197q0 94 37 175.5t112 134.5t173 53q276 -15 276 -309q-2 -50 -9.5 -69t-29.5 -19q-35 4 -35 36q0 18 11.5 27.5t22.5 15t11 13.5q-2 117 -56.5 191.5t-168.5 80.5q-66 0 -118 -58t-76.5 -134.5 t-24.5 -149.5q0 -72 19 -134.5t67.5 -112t120.5 -58.5q12 -3 12 -16q0 -16 -14 -19q-80 -10 -145 -67.5t-103 -139.5t-58 -168.5t-20 -163.5q0 -105 33 -201t102.5 -161.5t159.5 -65.5h6q77 9 142.5 58.5t110 117t86 163t67 176.5t58 181t54.5 154q3 9 13 9q6 0 11 -4.5 t5 -10.5v-6q-26 -59 -59 -159t-59 -184t-68.5 -180.5t-88 -165t-115.5 -119t-155 -60.5q-46 -4 -65 -4q-75 0 -137 24t-104.5 65.5t-72 98t-43.5 121t-14 135.5zM379 1511q0 20 14.5 35t34.5 15t34.5 -14.5t14.5 -35.5q0 -20 -14.5 -34.5t-34.5 -14.5q-21 0 -35 14t-14 35z M530 1511q0 21 14.5 35.5t35.5 14.5q20 0 34.5 -14.5t14.5 -35.5q0 -20 -14.5 -34.5t-34.5 -14.5q-21 0 -35.5 14t-14.5 35z" />
<glyph unicode="&#xcc;" horiz-adv-x="595" d="M0 874q0 63 32 144t74 149q61 93 112.5 133t113.5 43q56 0 95.5 -28t45.5 -82q8 -57 8 -156q0 -165 -33.5 -593.5t-33.5 -602.5v-53q0 -18 -18 -27.5t-40 -11.5h-10q-28 0 -50 9t-22 30q0 142 36 615.5t36 652.5q0 210 -37 215q-38 -3 -85 -47.5t-91 -112.5 q-41 -62 -71 -136t-31 -134q0 -25 12 -25q4 0 13.5 2t13.5 2q13 0 20.5 -11t7.5 -24q0 -16 -12.5 -30.5t-28.5 -14.5q-21 0 -38.5 27t-18.5 67zM334 1548q0 12 14 25.5t27 13.5q6 0 12 -6l113 -133q4 -2 4 -10t-7 -14.5t-14 -6.5q-6 0 -10 2q-109 92 -135 117q-4 8 -4 12z " />
<glyph unicode="&#xcd;" horiz-adv-x="595" d="M0 874q0 63 32 144t74 149q61 93 112.5 133t113.5 43q56 0 95.5 -28t45.5 -82q8 -57 8 -156q0 -165 -33.5 -593.5t-33.5 -602.5v-53q0 -18 -18 -27.5t-40 -11.5h-10q-28 0 -50 9t-22 30q0 142 36 615.5t36 652.5q0 210 -37 215q-38 -3 -85 -47.5t-91 -112.5 q-41 -62 -71 -136t-31 -134q0 -25 12 -25q4 0 13.5 2t13.5 2q13 0 20.5 -11t7.5 -24q0 -16 -12.5 -30.5t-28.5 -14.5q-21 0 -38.5 27t-18.5 67zM307 1458q0 4 4 8l115 133q7 7 12 7q13 0 27 -13.5t14 -25.5q0 -7 -6 -13q-24 -24 -75 -67t-58 -49l-10 -2q-9 0 -16 6.5 t-7 15.5z" />
<glyph unicode="&#xce;" horiz-adv-x="595" d="M0 874q0 63 32 144t74 149q61 93 112.5 133t113.5 43q56 0 95.5 -28t45.5 -82q8 -57 8 -156q0 -165 -33.5 -593.5t-33.5 -602.5v-53q0 -18 -18 -27.5t-40 -11.5h-10q-28 0 -50 9t-22 30q0 142 36 615.5t36 652.5q0 210 -37 215q-38 -3 -85 -47.5t-91 -112.5 q-41 -62 -71 -136t-31 -134q0 -25 12 -25q4 0 13.5 2t13.5 2q13 0 20.5 -11t7.5 -24q0 -16 -12.5 -30.5t-28.5 -14.5q-21 0 -38.5 27t-18.5 67zM319 1446q0 8 5 10l65 78q8 12 29 12l8 -4l61 -78q2 -2 2 -6q0 -9 -9.5 -17.5t-18.5 -8.5q-6 0 -10 4l-50 63l-55 -63 q-8 -4 -10 -4q-6 0 -11.5 4.5t-5.5 9.5z" />
<glyph unicode="&#xcf;" horiz-adv-x="595" d="M0 874q0 63 32 144t74 149q61 93 112.5 133t113.5 43q56 0 95.5 -28t45.5 -82q8 -57 8 -156q0 -165 -33.5 -593.5t-33.5 -602.5v-53q0 -18 -18 -27.5t-40 -11.5h-10q-28 0 -50 9t-22 30q0 142 36 615.5t36 652.5q0 210 -37 215q-38 -3 -85 -47.5t-91 -112.5 q-41 -62 -71 -136t-31 -134q0 -25 12 -25q4 0 13.5 2t13.5 2q13 0 20.5 -11t7.5 -24q0 -16 -12.5 -30.5t-28.5 -14.5q-21 0 -38.5 27t-18.5 67zM276 1475q0 20 15 34.5t35 14.5q21 0 35 -14t14 -35q0 -20 -14.5 -35t-34.5 -15q-21 0 -35.5 14.5t-14.5 35.5zM428 1475 q0 21 14 35t35 14t35 -14t14 -35q0 -20 -14.5 -35t-34.5 -15q-21 0 -35 14.5t-14 35.5z" />
<glyph unicode="&#xd0;" horiz-adv-x="1079" d="M-111 657q0 10 7 17q6 6 14 6h94q6 195 35 389q3 25 24 37t43 12q27 0 50 -10q20 -11 20 -43v-10q-27 -273 -33 -375h70q41 212 111 387q82 214 233 264q27 6 49 6q64 0 111 -41t74 -102q32 -72 47 -127q49 -215 49 -471q0 -101 -6 -193l209 132q2 0 4 2h4q5 0 10 -5 q4 -8 4 -10q0 -9 -6 -12l-229 -143q-10 -93 -35 -209t-78 -248q-54 -129 -127 -211q-77 -86 -186 -86q-60 0 -99 39t-39 108q0 128 123 275q124 149 287 262q22 181 22 356q0 198 -34 383q-4 20 -29 105q-24 67 -53 106q-35 47 -84 47q-119 -52 -193 -229 q-70 -169 -108 -385h10q8 0 14 -6t6 -17q0 -8 -6 -14q-5 -8 -14 -8h-18q-40 -231 -54 -420q-18 -255 -20 -332q-3 -34 -21 -43q-18 -12 -51 -12q-14 0 -31 10q-15 9 -18 29q-41 279 -41 620q0 101 2 148h-92q-9 0 -14 8q-7 7 -7 14zM131 391q0 -179 12 -293q11 201 54 486 q1 8 4 25.5t4 25.5h-66q-8 -123 -8 -244zM344 -242q0 -45 29 -82q25 -32 73 -32h9q74 12 129 131q51 116 86 260q30 124 45 221q-201 -142 -324 -348q-47 -77 -47 -150z" />
<glyph unicode="&#xd1;" horiz-adv-x="1153" d="M0 332q3 396 41 747q1 28 28 43t62 15q32 0 56 -14.5t24 -39.5l-2 -10q-33 -198 -46 -381.5t-16 -443.5q0 -53 5 -268q27 154 96 432t158 506q81 210 157 309t170 100q65 0 84 -29q33 -46 33 -198q0 -138 -39 -520.5t-39 -536.5q0 -276 92 -276q3 0 9.5 1t9.5 1 q44 13 97 156.5t110 352t71 248.5q5 11 15 11q16 0 16 -13l-2 -8q-15 -41 -52.5 -178.5t-71.5 -256.5t-83 -224t-92 -117q-21 -6 -68 -6q-61 0 -88 12q-141 68 -141 444q0 240 76 758q5 28 23 171.5t18 170.5v4q-63 -2 -130 -93t-123.5 -234t-108.5 -310t-91 -334 t-64.5 -292t-35.5 -197q-2 -43 -70 -43q-19 0 -39.5 7t-21.5 22q-27 219 -27 512zM365 1427q7 32 24 48t37 18q11 0 55 -27q20 -12 31 -12q16 0 27 23q7 14 16 14q16 -3 16 -23v-6q-9 -27 -26 -45t-37 -18t-46 20.5t-38 20.5q-7 0 -21 -15.5t-20 -15.5q-11 3 -14.5 6.5 t-3.5 11.5z" />
<glyph unicode="&#xd2;" horiz-adv-x="1050" d="M0 715q0 188 66 344q54 123 129.5 185.5t187.5 66.5q102 0 182.5 -65t129 -174t73.5 -242.5t25 -280.5q0 -69 -11 -174q160 71 269 157q5 5 10 5q6 0 10 -5.5t4 -11.5t-6 -12q-125 -96 -289 -168q-13 -97 -34 -182t-53.5 -161t-73.5 -131t-95.5 -86.5t-117.5 -31.5 q-25 0 -39 2q-283 44 -283 565v72q-84 125 -84 328zM31 715q0 -163 55 -273q8 153 37 298.5t61 224.5q12 30 58 30q28 0 51.5 -17.5t23.5 -43.5q0 -3 -4 -19q-24 -72 -54.5 -252.5t-35.5 -355.5q73 -33 166 -33q121 0 301 62q10 102 10 199q0 250 -55 434q-12 45 -26 84 t-37.5 82.5t-51.5 74t-67 50.5t-84 20q-185 -8 -285 -233q-63 -145 -63 -332zM223 227q0 -439 221 -446q197 45 242 522q-165 -57 -297 -57q-95 0 -166 28v-47zM408 1528q0 12 14 25.5t27 13.5q6 0 12 -6l112 -134q5 -3 5 -10t-6.5 -13.5t-14.5 -6.5q-6 0 -10 2 q-109 92 -135 117q-4 8 -4 12z" />
<glyph unicode="&#xd3;" horiz-adv-x="1050" d="M0 715q0 188 66 344q54 123 129.5 185.5t187.5 66.5q102 0 182.5 -65t129 -174t73.5 -242.5t25 -280.5q0 -69 -11 -174q160 71 269 157q5 5 10 5q6 0 10 -5.5t4 -11.5t-6 -12q-125 -96 -289 -168q-13 -97 -34 -182t-53.5 -161t-73.5 -131t-95.5 -86.5t-117.5 -31.5 q-25 0 -39 2q-283 44 -283 565v72q-84 125 -84 328zM31 715q0 -163 55 -273q8 153 37 298.5t61 224.5q12 30 58 30q28 0 51.5 -17.5t23.5 -43.5q0 -3 -4 -19q-24 -72 -54.5 -252.5t-35.5 -355.5q73 -33 166 -33q121 0 301 62q10 102 10 199q0 250 -55 434q-12 45 -26 84 t-37.5 82.5t-51.5 74t-67 50.5t-84 20q-185 -8 -285 -233q-63 -145 -63 -332zM223 227q0 -439 221 -446q197 45 242 522q-165 -57 -297 -57q-95 0 -166 28v-47zM379 1430q0 4 4 8l115 133q6 6 12 6q13 0 27 -13.5t14 -25.5q0 -6 -6 -12q-24 -24 -76.5 -68.5t-56.5 -48.5 l-11 -2q-9 0 -15.5 7t-6.5 16z" />
<glyph unicode="&#xd4;" horiz-adv-x="1050" d="M0 715q0 188 66 344q54 123 129.5 185.5t187.5 66.5q102 0 182.5 -65t129 -174t73.5 -242.5t25 -280.5q0 -69 -11 -174q160 71 269 157q5 5 10 5q6 0 10 -5.5t4 -11.5t-6 -12q-125 -96 -289 -168q-13 -97 -34 -182t-53.5 -161t-73.5 -131t-95.5 -86.5t-117.5 -31.5 q-25 0 -39 2q-283 44 -283 565v72q-84 125 -84 328zM31 715q0 -163 55 -273q8 153 37 298.5t61 224.5q12 30 58 30q28 0 51.5 -17.5t23.5 -43.5q0 -3 -4 -19q-24 -72 -54.5 -252.5t-35.5 -355.5q73 -33 166 -33q121 0 301 62q10 102 10 199q0 250 -55 434q-12 45 -26 84 t-37.5 82.5t-51.5 74t-67 50.5t-84 20q-185 -8 -285 -233q-63 -145 -63 -332zM223 227q0 -439 221 -446q197 45 242 522q-165 -57 -297 -57q-95 0 -166 28v-47zM362 1423q0 9 5 11l65 77q9 13 29 13l8 -4l61 -78q2 -2 2 -6q0 -9 -9.5 -18t-18.5 -9q-6 0 -10 4l-50 64 l-55 -64q-8 -4 -10 -4q-6 0 -11.5 4.5t-5.5 9.5z" />
<glyph unicode="&#xd5;" horiz-adv-x="1050" d="M0 715q0 188 66 344q54 123 129.5 185.5t187.5 66.5q102 0 182.5 -65t129 -174t73.5 -242.5t25 -280.5q0 -69 -11 -174q160 71 269 157q5 5 10 5q6 0 10 -5.5t4 -11.5t-6 -12q-125 -96 -289 -168q-13 -97 -34 -182t-53.5 -161t-73.5 -131t-95.5 -86.5t-117.5 -31.5 q-25 0 -39 2q-283 44 -283 565v72q-84 125 -84 328zM31 715q0 -163 55 -273q8 153 37 298.5t61 224.5q12 30 58 30q28 0 51.5 -17.5t23.5 -43.5q0 -3 -4 -19q-24 -72 -54.5 -252.5t-35.5 -355.5q73 -33 166 -33q121 0 301 62q10 102 10 199q0 250 -55 434q-12 45 -26 84 t-37.5 82.5t-51.5 74t-67 50.5t-84 20q-185 -8 -285 -233q-63 -145 -63 -332zM223 227q0 -439 221 -446q197 45 242 522q-165 -57 -297 -57q-95 0 -166 28v-47zM348 1444q7 32 24.5 47.5t37.5 17.5q12 0 55 -26q22 -13 31 -13q14 0 26 23q7 14 17 14q16 -3 16 -22v-6 q-9 -28 -26.5 -46t-36.5 -18q-20 0 -46 20.5t-38 20.5q-7 0 -21 -15.5t-20 -15.5q-19 6 -19 19z" />
<glyph unicode="&#xd6;" horiz-adv-x="1050" d="M0 715q0 188 66 344q54 123 129.5 185.5t187.5 66.5q102 0 182.5 -65t129 -174t73.5 -242.5t25 -280.5q0 -69 -11 -174q160 71 269 157q5 5 10 5q6 0 10 -5.5t4 -11.5t-6 -12q-125 -96 -289 -168q-13 -97 -34 -182t-53.5 -161t-73.5 -131t-95.5 -86.5t-117.5 -31.5 q-25 0 -39 2q-283 44 -283 565v72q-84 125 -84 328zM31 715q0 -163 55 -273q8 153 37 298.5t61 224.5q12 30 58 30q28 0 51.5 -17.5t23.5 -43.5q0 -3 -4 -19q-24 -72 -54.5 -252.5t-35.5 -355.5q73 -33 166 -33q121 0 301 62q10 102 10 199q0 250 -55 434q-12 45 -26 84 t-37.5 82.5t-51.5 74t-67 50.5t-84 20q-185 -8 -285 -233q-63 -145 -63 -332zM223 227q0 -439 221 -446q197 45 242 522q-165 -57 -297 -57q-95 0 -166 28v-47zM338 1491q0 20 14.5 34.5t34.5 14.5q21 0 35 -14t14 -35q0 -20 -14.5 -34.5t-34.5 -14.5q-21 0 -35 14t-14 35z M489 1491q0 21 14.5 35t35.5 14t35 -14t14 -35q0 -20 -14.5 -34.5t-34.5 -14.5q-21 0 -35.5 14t-14.5 35z" />
<glyph unicode="&#xd7;" horiz-adv-x="516" d="M104 356q0 8 9 17l114 121l-108 122q-8 5 -8 15q0 9 7 15.5t17 6.5t19 -6l104 -121l113 117q6 6 16 6q8 0 15.5 -7.5t7.5 -14.5q0 -8 -7 -15q-13 -13 -35.5 -36.5t-42 -44t-36.5 -39.5l106 -123q6 -6 6 -15q0 -8 -7.5 -15t-16.5 -7q-10 0 -15 8l-106 119l-111 -119 q-8 -8 -16 -8q-9 0 -17 7.5t-8 16.5z" />
<glyph unicode="&#xd8;" horiz-adv-x="1050" d="M0 715q0 184 66 344q95 240 317 252q143 0 231 -111q44 -57 72 -117q7 13 76 134q2 2 14 10q12 4 19 4q9 0 32 -10q21 -9 21 -35l-6 -19q-62 -113 -107 -204q7 -30 15 -50q43 -173 43 -364q0 -69 -11 -174q180 83 269 157q1 1 3 2.5t3 2.5h4q5 0 10 -5q4 -8 4 -12 q0 -6 -6 -12q-109 -85 -289 -168q-22 -163 -67 -291q-46 -134 -123 -217q-78 -84 -184 -84q-25 0 -39 2q-85 15 -142 66q-4 -10 -21.5 -53t-25.5 -66q-3 -12 -14 -19q-11 -8 -27 -8l-14 4q-27 9 -27 41q0 5 4 21q23 63 64 160q-47 84 -62 184q-18 123 -18 235v72 q-42 62 -64 152q-20 81 -20 176zM31 715q0 -148 55 -273q8 147 39 310q26 131 59 213q5 13 23 24q15 6 35 6q25 0 51 -16q24 -15 24 -45q0 -7 -4 -19q-21 -69 -49 -229q-33 -192 -41 -379q39 -18 99 -28q64 150 223 505q8 16 42.5 93t51.5 112q-14 55 -43 121 q-34 69 -86 121q-52 49 -131 49q-107 -6 -174 -70q-73 -66 -111 -163q-63 -149 -63 -332zM223 227q0 -62 10 -157q6 16 20 47.5t21 48.5q3 8 35 86q-55 11 -86 22v-47zM268 -78q19 -38 33 -59q46 -73 143 -82q92 26 146 123q48 91 69 207q21 115 27 192q-81 -29 -143 -41 q-59 -13 -140 -16q-16 -39 -63.5 -152t-71.5 -172zM416 274q59 3 129 19q71 17 145 43q10 102 10 199q0 105 -12 219q-3 46 -12 90q-87 -172 -195 -418q-10 -23 -31.5 -74.5t-33.5 -77.5z" />
<glyph unicode="&#xd9;" horiz-adv-x="995" d="M0 739q0 316 45 537q6 41 72 41q88 -4 88 -55v-7q-51 -254 -51 -587l2 -105q1 -42 5 -99.5t12.5 -135.5t25 -132.5t37.5 -60.5q110 11 323 1157q1 21 24 32t54 11q76 -3 76 -55v-14q-43 -220 -68 -619q-6 -117 -6 -301q0 -579 74 -579q31 1 82 141.5t112.5 342.5 t93.5 277q3 9 13 9q6 0 11 -5t5 -12v-4q-30 -66 -75.5 -208.5t-81.5 -260.5t-80 -213t-78 -98l-25 -2q-44 0 -72 30q-116 106 -116 666q0 247 22 522q-176 -846 -288 -848l-27 -2q-62 0 -88 31q-63 69 -92 232.5t-29 373.5zM326 1556q0 12 14 25.5t27 13.5q6 0 12 -6 l113 -133q4 -2 4 -10t-7 -14.5t-14 -6.5q-6 0 -10 2q-109 92 -135 117q-4 8 -4 12z" />
<glyph unicode="&#xda;" horiz-adv-x="995" d="M0 739q0 316 45 537q6 41 72 41q88 -4 88 -55v-7q-51 -254 -51 -587l2 -105q1 -42 5 -99.5t12.5 -135.5t25 -132.5t37.5 -60.5q110 11 323 1157q1 21 24 32t54 11q76 -3 76 -55v-14q-43 -220 -68 -619q-6 -117 -6 -301q0 -579 74 -579q31 1 82 141.5t112.5 342.5 t93.5 277q3 9 13 9q6 0 11 -5t5 -12v-4q-30 -66 -75.5 -208.5t-81.5 -260.5t-80 -213t-78 -98l-25 -2q-44 0 -72 30q-116 106 -116 666q0 247 22 522q-176 -846 -288 -848l-27 -2q-62 0 -88 31q-63 69 -92 232.5t-29 373.5zM350 1448q0 4 4 8l115 133q6 6 12 6 q13 0 27 -13.5t14 -25.5q0 -6 -6 -12q-24 -24 -76.5 -68.5t-56.5 -48.5l-10 -2q-9 0 -16 7t-7 16z" />
<glyph unicode="&#xdb;" horiz-adv-x="995" d="M0 739q0 316 45 537q6 41 72 41q88 -4 88 -55v-7q-51 -254 -51 -587l2 -105q1 -42 5 -99.5t12.5 -135.5t25 -132.5t37.5 -60.5q110 11 323 1157q1 21 24 32t54 11q76 -3 76 -55v-14q-43 -220 -68 -619q-6 -117 -6 -301q0 -579 74 -579q31 1 82 141.5t112.5 342.5 t93.5 277q3 9 13 9q6 0 11 -5t5 -12v-4q-30 -66 -75.5 -208.5t-81.5 -260.5t-80 -213t-78 -98l-25 -2q-44 0 -72 30q-116 106 -116 666q0 247 22 522q-176 -846 -288 -848l-27 -2q-62 0 -88 31q-63 69 -92 232.5t-29 373.5zM336 1444q0 8 4 10l66 78q8 12 28 12l8 -4l62 -78 q2 -2 2 -6q0 -9 -10 -17.5t-19 -8.5q-6 0 -10 4l-49 63l-56 -63q-8 -4 -10 -4q-6 0 -11 4.5t-5 9.5z" />
<glyph unicode="&#xdc;" horiz-adv-x="995" d="M0 739q0 316 45 537q6 41 72 41q88 -4 88 -55v-7q-51 -254 -51 -587l2 -105q1 -42 5 -99.5t12.5 -135.5t25 -132.5t37.5 -60.5q110 11 323 1157q1 21 24 32t54 11q76 -3 76 -55v-14q-43 -220 -68 -619q-6 -117 -6 -301q0 -579 74 -579q31 1 82 141.5t112.5 342.5 t93.5 277q3 9 13 9q6 0 11 -5t5 -12v-4q-30 -66 -75.5 -208.5t-81.5 -260.5t-80 -213t-78 -98l-25 -2q-44 0 -72 30q-116 106 -116 666q0 247 22 522q-176 -846 -288 -848l-27 -2q-62 0 -88 31q-63 69 -92 232.5t-29 373.5zM289 1516q0 20 14.5 34.5t34.5 14.5q21 0 35 -14 t14 -35q0 -20 -14.5 -35t-34.5 -15t-34.5 14t-14.5 36zM440 1516q0 21 14 35t35 14t35.5 -14t14.5 -35q0 -20 -15 -35t-35 -15q-21 0 -35 14t-14 36z" />
<glyph unicode="&#xdd;" horiz-adv-x="903" d="M0 737q0 163 20 332.5t35 214.5q17 43 78 43q78 -4 78 -57l-2 -8q-52 -272 -55 -662q0 -291 63 -291q4 0 12 4q31 14 64 79t63.5 167t56.5 202t50.5 221t36.5 184t24 128v2q0 28 28 47t62 19q25 0 43.5 -12t18.5 -35q29 -302 29 -592q0 -164 -11 -299q172 75 217 108 q5 5 11 5t10 -6t4 -11q0 -7 -6 -10q-25 -19 -69 -42t-70.5 -35t-98.5 -44q-16 -183 -58 -335.5t-104 -229.5q-39 -48 -95.5 -77.5t-112.5 -29.5l-25 2q-93 10 -142 67t-49 136q0 59 26 114t66.5 98t102 86.5t119 74.5t131.5 65q10 123 10 306q0 280 -24 526 q-162 -849 -297 -905q-26 -13 -54 -13q-38 0 -73 21q-113 67 -113 442zM137 -78q0 -68 41 -116.5t123 -57.5q41 3 84.5 51.5t67.5 98.5q69 141 96 428q-84 -39 -149 -77.5t-129 -89.5t-99 -111.5t-35 -125.5zM342 1460q0 4 4 8l115 134q6 6 12 6q13 0 27 -13.5t14 -25.5 q0 -7 -6 -13q-24 -24 -75 -67t-58 -49l-10 -2q-9 0 -16 6.5t-7 15.5z" />
<glyph unicode="&#xde;" horiz-adv-x="659" d="M-2 123q0 683 47 1065q3 21 19 32t38 11t37 -11t15 -32l-2 -12q-6 -31 -12 -97t-9 -122t-7.5 -144t-6.5 -117q30 121 98.5 203t142.5 82q58 -1 98.5 -21.5t62.5 -58.5t31 -83.5t9 -104.5q-2 -82 -17.5 -157t-45.5 -137.5t-80.5 -100t-114.5 -37.5l-27 2q-40 4 -91.5 43 t-82.5 80q-8 -145 -8 -390l2 -186q0 -20 -16 -32.5t-37 -12.5q-17 0 -29 10.5t-12 30.5zM102 451q30 -42 84 -82t95 -41q41 0 79 53.5t61.5 134t29.5 164.5l4 82q0 102 -27.5 142t-77.5 40q-38 0 -79.5 -37.5t-77.5 -101t-61.5 -157.5t-29.5 -197z" />
<glyph unicode="&#xdf;" horiz-adv-x="763" d="M-6 307q0 212 12 365q5 66 14.5 124.5t30.5 121t50.5 108t77.5 77t108 36.5l32 2q99 0 145 -48.5t46 -129.5q-3 -106 -56.5 -213t-131.5 -166q195 -8 235 -178q46 36 74.5 57t68.5 44t72 30q11 0 13 -14q1 -4 1 -5q0 -9 -8 -12q-92 -34 -215 -135l2 -43q0 -93 -37 -191.5 t-95 -163.5t-114 -65q-31 0 -56 21t-25 55q0 35 23.5 82.5t61 95.5t66.5 80.5t57 60.5v10q0 46 -7.5 85.5t-25 76t-52 57.5t-82.5 21h-13q-5 0 -8 1.5t-4 2.5t-2 5.5t-2 6.5q0 3 4 11q59 52 98 153.5t41 200.5q0 174 -94 174q-44 -2 -76 -32t-49.5 -71t-28 -98.5t-14.5 -103 t-7 -95.5q-1 -16 -1 -24q-14 -216 -14 -473q0 -103 4 -279q0 -46 -50 -53h-6q-19 0 -32.5 10t-14.5 29q-16 133 -16 389zM268 -14q0 -22 15.5 -34.5t35.5 -12.5h7q89 82 116 317q-60 -63 -117 -141.5t-57 -128.5z" />
<glyph unicode="&#xe0;" horiz-adv-x="634" d="M-27 371l2 51q4 45 17 92.5t35.5 94t58.5 76.5t80 30l27 -2q50 -9 83 -62l9 39q4 17 22 27t41 10q25 0 43.5 -13t18.5 -38l-2 -8q0 -3 -5.5 -47t-10.5 -92t-10.5 -109.5t-9 -125t-3.5 -112.5q0 -60 6 -100q3 -39 12 -39q34 11 83 105t103.5 226.5t65.5 153.5q6 9 14 9 q4 0 9.5 -4t5.5 -11q0 -4 -2 -8q-7 -15 -66.5 -159t-111 -236t-93.5 -105q-18 -6 -37 -6q-26 0 -47 15q-61 39 -61 276q0 45 6 156q-18 -58 -32 -98t-34 -86.5t-40.5 -72t-40.5 -28.5l-17 -2q-34 0 -58 18.5t-37 49.5t-18.5 64t-5.5 71zM92 250q0 -37 6 -49l6 -2q15 0 35 34 t40 89t36.5 106t32.5 105t20 67q-10 33 -30 53q-25 21 -48 29q-31 -18 -64.5 -175.5t-33.5 -256.5zM166 946q0 12 14 25.5t27 13.5q6 0 12 -6l113 -133q4 -2 4 -10t-7 -14.5t-14 -6.5q-6 0 -10 2q-109 92 -135 117q-4 8 -4 12z" />
<glyph unicode="&#xe1;" horiz-adv-x="634" d="M-27 371l2 51q4 45 17 92.5t35.5 94t58.5 76.5t80 30l27 -2q50 -9 83 -62l9 39q4 17 22 27t41 10q25 0 43.5 -13t18.5 -38l-2 -8q0 -3 -5.5 -47t-10.5 -92t-10.5 -109.5t-9 -125t-3.5 -112.5q0 -60 6 -100q3 -39 12 -39q34 11 83 105t103.5 226.5t65.5 153.5q6 9 14 9 q4 0 9.5 -4t5.5 -11q0 -4 -2 -8q-7 -15 -66.5 -159t-111 -236t-93.5 -105q-18 -6 -37 -6q-26 0 -47 15q-61 39 -61 276q0 45 6 156q-18 -58 -32 -98t-34 -86.5t-40.5 -72t-40.5 -28.5l-17 -2q-34 0 -58 18.5t-37 49.5t-18.5 64t-5.5 71zM92 250q0 -37 6 -49l6 -2q15 0 35 34 t40 89t36.5 106t32.5 105t20 67q-10 33 -30 53q-25 21 -48 29q-31 -18 -64.5 -175.5t-33.5 -256.5zM170 834q0 4 4 8l115 133q6 6 12 6q13 0 27 -13.5t14 -25.5q0 -6 -6 -12q-24 -24 -76.5 -68.5t-56.5 -48.5l-10 -2q-9 0 -16 7t-7 16z" />
<glyph unicode="&#xe2;" horiz-adv-x="634" d="M-27 371l2 51q4 45 17 92.5t35.5 94t58.5 76.5t80 30l27 -2q50 -9 83 -62l9 39q4 17 22 27t41 10q25 0 43.5 -13t18.5 -38l-2 -8q0 -3 -5.5 -47t-10.5 -92t-10.5 -109.5t-9 -125t-3.5 -112.5q0 -60 6 -100q3 -39 12 -39q34 11 83 105t103.5 226.5t65.5 153.5q6 9 14 9 q4 0 9.5 -4t5.5 -11q0 -4 -2 -8q-7 -15 -66.5 -159t-111 -236t-93.5 -105q-18 -6 -37 -6q-26 0 -47 15q-61 39 -61 276q0 45 6 156q-18 -58 -32 -98t-34 -86.5t-40.5 -72t-40.5 -28.5l-17 -2q-34 0 -58 18.5t-37 49.5t-18.5 64t-5.5 71zM92 250q0 -37 6 -49l6 -2q15 0 35 34 t40 89t36.5 106t32.5 105t20 67q-10 33 -30 53q-25 21 -48 29q-31 -18 -64.5 -175.5t-33.5 -256.5zM164 840q0 8 4 10l65 78q8 12 29 12l8 -4l62 -78q2 -2 2 -6q0 -9 -10 -18t-19 -9q-6 0 -10 4l-49 64l-56 -64q-8 -4 -10 -4q-6 0 -11 5t-5 10z" />
<glyph unicode="&#xe3;" horiz-adv-x="634" d="M-27 371l2 51q4 45 17 92.5t35.5 94t58.5 76.5t80 30l27 -2q50 -9 83 -62l9 39q4 17 22 27t41 10q25 0 43.5 -13t18.5 -38l-2 -8q0 -3 -5.5 -47t-10.5 -92t-10.5 -109.5t-9 -125t-3.5 -112.5q0 -60 6 -100q3 -39 12 -39q34 11 83 105t103.5 226.5t65.5 153.5q6 9 14 9 q4 0 9.5 -4t5.5 -11q0 -4 -2 -8q-7 -15 -66.5 -159t-111 -236t-93.5 -105q-18 -6 -37 -6q-26 0 -47 15q-61 39 -61 276q0 45 6 156q-18 -58 -32 -98t-34 -86.5t-40.5 -72t-40.5 -28.5l-17 -2q-34 0 -58 18.5t-37 49.5t-18.5 64t-5.5 71zM92 250q0 -37 6 -49l6 -2q15 0 35 34 t40 89t36.5 106t32.5 105t20 67q-10 33 -30 53q-25 21 -48 29q-31 -18 -64.5 -175.5t-33.5 -256.5zM139 838q7 32 24.5 47.5t37.5 17.5q12 0 55 -26q22 -13 31 -13q15 0 26 23q7 14 17 14q16 -3 16 -22v-7q-9 -27 -26 -45t-37 -18t-46 20.5t-38 20.5q-7 0 -21 -15.5 t-20 -15.5q-19 6 -19 19z" />
<glyph unicode="&#xe4;" horiz-adv-x="634" d="M-27 371l2 51q4 45 17 92.5t35.5 94t58.5 76.5t80 30l27 -2q50 -9 83 -62l9 39q4 17 22 27t41 10q25 0 43.5 -13t18.5 -38l-2 -8q0 -3 -5.5 -47t-10.5 -92t-10.5 -109.5t-9 -125t-3.5 -112.5q0 -60 6 -100q3 -39 12 -39q34 11 83 105t103.5 226.5t65.5 153.5q6 9 14 9 q4 0 9.5 -4t5.5 -11q0 -4 -2 -8q-7 -15 -66.5 -159t-111 -236t-93.5 -105q-18 -6 -37 -6q-26 0 -47 15q-61 39 -61 276q0 45 6 156q-18 -58 -32 -98t-34 -86.5t-40.5 -72t-40.5 -28.5l-17 -2q-34 0 -58 18.5t-37 49.5t-18.5 64t-5.5 71zM92 250q0 -37 6 -49l6 -2q15 0 35 34 t40 89t36.5 106t32.5 105t20 67q-10 33 -30 53q-25 21 -48 29q-31 -18 -64.5 -175.5t-33.5 -256.5zM127 864q0 20 14.5 34.5t34.5 14.5q21 0 35 -14t14 -35q0 -20 -14.5 -34.5t-34.5 -14.5q-21 0 -35 14t-14 35zM279 864q0 21 14 35t35 14t35 -14t14 -35q0 -20 -14.5 -34.5 t-34.5 -14.5q-21 0 -35 14t-14 35z" />
<glyph unicode="&#xe5;" horiz-adv-x="634" d="M-27 371l2 51q4 45 17 92.5t35.5 94t58.5 76.5t80 30l27 -2q50 -9 83 -62l9 39q4 17 22 27t41 10q25 0 43.5 -13t18.5 -38l-2 -8q0 -3 -5.5 -47t-10.5 -92t-10.5 -109.5t-9 -125t-3.5 -112.5q0 -60 6 -100q3 -39 12 -39q34 11 83 105t103.5 226.5t65.5 153.5q6 9 14 9 q4 0 9.5 -4t5.5 -11q0 -4 -2 -8q-7 -15 -66.5 -159t-111 -236t-93.5 -105q-18 -6 -37 -6q-26 0 -47 15q-61 39 -61 276q0 45 6 156q-18 -58 -32 -98t-34 -86.5t-40.5 -72t-40.5 -28.5l-17 -2q-34 0 -58 18.5t-37 49.5t-18.5 64t-5.5 71zM92 250q0 -37 6 -49l6 -2q15 0 35 34 t40 89t36.5 106t32.5 105t20 67q-10 33 -30 53q-25 21 -48 29q-31 -18 -64.5 -175.5t-33.5 -256.5zM176 891q1 42 20.5 64t49.5 22q67 -4 67 -76q-1 -39 -20.5 -60.5t-48.5 -21.5h-4q-26 0 -45 20t-19 52zM223 895q0 -43 23 -43q16 0 25.5 15t9.5 34q0 18 -8 29.5t-23 11.5 q-13 0 -20 -14t-7 -33z" />
<glyph unicode="&#xe6;" horiz-adv-x="696" d="M-27 379l2 45q4 35 12.5 72.5t24.5 77.5t37 71.5t51.5 51.5t65.5 20q49 -6 72 -22t53 -64q54 92 145 92q60 -5 85.5 -25.5t25.5 -68.5q0 -50 -36.5 -96t-86.5 -46q-15 0 -41 11q-18 -87 -18 -195q0 -74 14.5 -112t50.5 -39q35 0 70 25.5t62 62t55 91.5t45.5 97.5 t37.5 97.5q4 11 15 11q14 -3 14 -17v-4q-16 -45 -33.5 -87t-47 -100.5t-59.5 -100.5t-69.5 -73t-77.5 -32h-16q-63 0 -107.5 40.5t-64 96.5t-21.5 121q-69 -204 -122 -211l-17 -2q-45 0 -73.5 34.5t-38 79t-9.5 97.5zM94 252q0 -36 6 -51l6 -2q25 0 58 79t68.5 198t37.5 124 q-9 29 -29.5 52t-47.5 30q-31 -18 -65 -174t-34 -256zM389 528q20 -10 35 -10q38 0 65 36.5t27 76.5q0 50 -53 61q-18 -1 -38 -47.5t-36 -116.5z" />
<glyph unicode="&#xe7;" horiz-adv-x="471" d="M-37 299q0 72 8 119q22 135 78 231q59 96 144 96h12q37 -3 65 -28q27 -24 27 -66v-10q-1 -4 -2 -12.5t-2 -12.5q-4 -16 -10 -26q-9 -19 -27 -19l-12 4q-15 9 -15 23q0 8 2 14q3 9 11 13t10 6q2 1 5.5 2t4.5 2t2 3t2 3l2 12q0 16 -10 33q-9 11 -29 23h-2q-26 0 -47 -70 q-30 -87 -41 -145q-20 -83 -22 -105q-6 -52 -8 -80q-7 -65 -7 -116q0 -71 15 -127q12 -57 49 -60q87 12 156 152q62 126 110 266q25 74 43 106q7 7 12 7q6 0 11 -5l4 -8q0 -8 -2 -10q-12 -22 -37 -94q-37 -114 -113 -270q-72 -149 -170 -173q-10 -2 -33 -2h-4l-10 -51l8 2 q28 0 49 -18t21 -45q-15 -72 -76 -72q-18 0 -31 8q-16 6 -22 27q0 8 4 12q2 2 12 2q6 0 8 -2q1 -1 4.5 -3t4.5 -3q6 -6 10 -8q4 -4 10 -4q27 0 33 45q-3 29 -29 29h-8q-5 0 -8 -3q-2 -2 -10 -2q-15 3 -15 13l17 75q-90 27 -119 123q-33 90 -33 199z" />
<glyph unicode="&#xe8;" horiz-adv-x="446" d="M-20 397q0 107 39.5 199t103.5 117q30 10 59 10l31 -2q39 -4 59.5 -29t20.5 -61q0 -21 -6 -39q-11 -42 -44 -73.5t-73 -31.5q-15 0 -41 11q-18 -87 -18 -193q0 -148 57 -153h10q43 0 80 33t76 96q56 95 112 245q4 11 15 11l8 -2q6 -2 6 -13v-6q-62 -163 -115 -250 q-84 -140 -172 -145q-28 0 -55 6q-75 18 -114 93.5t-39 176.5zM127 905q0 12 14 25.5t27 13.5q6 0 12 -6l113 -133q4 -2 4 -10q0 -7 -6.5 -14t-14.5 -7q-6 0 -10 2q-109 92 -135 117q-4 8 -4 12zM135 528q15 -10 35 -10q28 0 52.5 23.5t35.5 54.5q4 12 4 33q0 53 -51 61 q-20 -1 -40 -46.5t-36 -115.5z" />
<glyph unicode="&#xe9;" horiz-adv-x="446" d="M-20 397q0 107 39.5 199t103.5 117q30 10 59 10l31 -2q39 -4 59.5 -29t20.5 -61q0 -21 -6 -39q-11 -42 -44 -73.5t-73 -31.5q-15 0 -41 11q-18 -87 -18 -193q0 -148 57 -153h10q43 0 80 33t76 96q56 95 112 245q4 11 15 11l8 -2q6 -2 6 -13v-6q-62 -163 -115 -250 q-84 -140 -172 -145q-28 0 -55 6q-75 18 -114 93.5t-39 176.5zM135 528q15 -10 35 -10q28 0 52.5 23.5t35.5 54.5q4 12 4 33q0 53 -51 61q-20 -1 -40 -46.5t-36 -115.5zM135 803q0 4 4 8l115 133q6 6 12 6q13 0 27 -13.5t14 -25.5q0 -6 -6 -12q-24 -24 -76.5 -68.5 t-56.5 -48.5l-10 -2q-9 0 -16 7t-7 16z" />
<glyph unicode="&#xea;" horiz-adv-x="446" d="M-20 397q0 107 39.5 199t103.5 117q30 10 59 10l31 -2q39 -4 59.5 -29t20.5 -61q0 -21 -6 -39q-11 -42 -44 -73.5t-73 -31.5q-15 0 -41 11q-18 -87 -18 -193q0 -148 57 -153h10q43 0 80 33t76 96q56 95 112 245q4 11 15 11l8 -2q6 -2 6 -13v-6q-62 -163 -115 -250 q-84 -140 -172 -145q-28 0 -55 6q-75 18 -114 93.5t-39 176.5zM135 528q15 -10 35 -10q28 0 52.5 23.5t35.5 54.5q4 12 4 33q0 53 -51 61q-20 -1 -40 -46.5t-36 -115.5zM137 797q0 8 4 10l66 78q8 12 29 12l8 -4l61 -78q2 -2 2 -6q0 -9 -9.5 -18t-18.5 -9q-7 0 -11 4l-49 64 l-55 -64q-8 -4 -10 -4q-6 0 -11.5 5t-5.5 10z" />
<glyph unicode="&#xeb;" horiz-adv-x="446" d="M-20 397q0 107 39.5 199t103.5 117q30 10 59 10l31 -2q39 -4 59.5 -29t20.5 -61q0 -21 -6 -39q-11 -42 -44 -73.5t-73 -31.5q-15 0 -41 11q-18 -87 -18 -193q0 -148 57 -153h10q43 0 80 33t76 96q56 95 112 245q4 11 15 11l8 -2q6 -2 6 -13v-6q-62 -163 -115 -250 q-84 -140 -172 -145q-28 0 -55 6q-75 18 -114 93.5t-39 176.5zM80 846q0 20 14.5 34.5t34.5 14.5q21 0 35 -14t14 -35q0 -20 -14.5 -34.5t-34.5 -14.5q-21 0 -35 14t-14 35zM135 528q15 -10 35 -10q28 0 52.5 23.5t35.5 54.5q4 12 4 33q0 53 -51 61q-20 -1 -40 -46.5 t-36 -115.5zM231 846q0 20 14.5 34.5t35.5 14.5t35 -14t14 -35q0 -20 -14.5 -34.5t-34.5 -14.5q-21 0 -35.5 14t-14.5 35z" />
<glyph unicode="&#xec;" horiz-adv-x="337" d="M-6 422q0 115 10 160q1 23 21 35t47 12h6q24 0 42.5 -11.5t18.5 -29.5v-2q0 -11 -8 -113t-8 -162q0 -141 41 -141q16 0 31.5 13.5t30.5 38.5t27.5 52t26 65t23 66t21.5 66t18 55q4 11 14 11l9 -2q6 -3 6 -13v-6q-7 -19 -20.5 -60.5t-23.5 -70.5t-25 -69t-29 -67.5 t-31.5 -53.5t-37 -39.5t-40.5 -14.5l-31 -2q-32 0 -53 6q-86 31 -86 277zM18 840q0 12 14 25.5t27 13.5q6 0 13 -7l112 -133q4 -2 4 -10q0 -7 -6 -13.5t-14 -6.5q-6 0 -10 2q-119 100 -135 116q-5 10 -5 13z" />
<glyph unicode="&#xed;" horiz-adv-x="337" d="M-6 422q0 115 10 160q1 23 21 35t47 12h6q24 0 42.5 -11.5t18.5 -29.5v-2q0 -11 -8 -113t-8 -162q0 -141 41 -141q16 0 31.5 13.5t30.5 38.5t27.5 52t26 65t23 66t21.5 66t18 55q4 11 14 11l9 -2q6 -3 6 -13v-6q-7 -19 -20.5 -60.5t-23.5 -70.5t-25 -69t-29 -67.5 t-31.5 -53.5t-37 -39.5t-40.5 -14.5l-31 -2q-32 0 -53 6q-86 31 -86 277zM0 727q0 4 4 8l115 133q6 6 12 6q13 0 27 -13t14 -25q0 -7 -6 -13q-24 -24 -75 -67t-58 -49l-10 -2q-9 0 -16 6.5t-7 15.5z" />
<glyph unicode="&#xee;" horiz-adv-x="337" d="M-6 422q0 115 10 160q1 23 21 35t47 12h6q24 0 42.5 -11.5t18.5 -29.5v-2q0 -11 -8 -113t-8 -162q0 -141 41 -141q16 0 31.5 13.5t30.5 38.5t27.5 52t26 65t23 66t21.5 66t18 55q4 11 14 11l9 -2q6 -3 6 -13v-6q-7 -19 -20.5 -60.5t-23.5 -70.5t-25 -69t-29 -67.5 t-31.5 -53.5t-37 -39.5t-40.5 -14.5l-31 -2q-32 0 -53 6q-86 31 -86 277zM6 731q0 8 4 10l66 78q8 12 28 12l9 -4l61 -77q2 -2 2 -7q0 -9 -10 -17.5t-19 -8.5q-6 0 -10 4l-49 63l-55 -63q-8 -4 -10 -4q-6 0 -11.5 4.5t-5.5 9.5z" />
<glyph unicode="&#xef;" horiz-adv-x="337" d="M-35 760q0 20 14.5 34.5t34.5 14.5q21 0 35 -14t14 -35q0 -20 -14.5 -34.5t-34.5 -14.5q-21 0 -35 14t-14 35zM-6 422q0 115 10 160q1 23 21 35t47 12h6q24 0 42.5 -11.5t18.5 -29.5v-2q0 -11 -8 -113t-8 -162q0 -141 41 -141q16 0 31.5 13.5t30.5 38.5t27.5 52t26 65 t23 66t21.5 66t18 55q4 11 14 11l9 -2q6 -3 6 -13v-6q-7 -19 -20.5 -60.5t-23.5 -70.5t-25 -69t-29 -67.5t-31.5 -53.5t-37 -39.5t-40.5 -14.5l-31 -2q-32 0 -53 6q-86 31 -86 277zM117 760q0 21 14 35t35 14t35 -14t14 -35q0 -20 -14.5 -34.5t-34.5 -14.5q-21 0 -35 14 t-14 35z" />
<glyph unicode="&#xf0;" horiz-adv-x="747" d="M-20 399q0 32 4 64q14 95 63 176q47 74 117 74h10q66 -3 119 -56q13 142 35 254h-131q-11 0 -17 9q-6 6 -6 14q0 11 8 16q6 6 15 6h139q9 42 14 56q42 164 94 225q23 23 60 37q38 14 84 14q56 0 102 -37q43 -40 43 -133v-6q-9 -144 -98 -295q-94 -154 -217 -217 q0 -2 -4 -90q-4 -94 -4 -156q0 -115 12 -217q9 -102 43 -102h2q43 12 119 155q79 151 157 326q4 4 7 10t6 9q2 2 8 2h4l2 -2h2q8 -3 8 -13v-2q-2 -2 -2 -4l-20 -45q-76 -161 -160 -319q-77 -139 -131 -148l-45 -2q-34 0 -62 25q-42 54 -59 161q-18 108 -18 244v66 q-8 -28 -52 -142q-25 -65 -63 -123q-34 -51 -78 -51q-46 0 -67 37q-24 35 -33 86q-10 55 -10 94zM88 256q0 -23 4 -43q37 0 72 66q35 65 65 151q35 107 47 152q1 3 5.5 14.5t5.5 17.5q-41 59 -107 68q-22 -16 -43 -92q-18 -67 -35 -176q-14 -92 -14 -158zM422 635 q115 71 196 213q81 147 84 268v6q0 58 -26 97q-26 36 -86 36h-4q-42 -6 -76 -112q-26 -80 -45 -187h123q7 0 16 -6q6 -6 6 -16q0 -8 -6 -14q-9 -9 -16 -9h-131q-2 -6 -2 -20q-28 -191 -33 -256z" />
<glyph unicode="&#xf1;" horiz-adv-x="704" d="M-6 362q0 157 10 222q3 23 22 36t44 13h6q24 -2 40.5 -16t16.5 -37l-12 -271q121 529 266 529h4q25 -2 47 -18.5t31 -41.5q14 -43 14 -125q0 -83 -19.5 -274t-19.5 -258q0 -111 37 -111l11 2q19 6 43 46.5t49.5 106.5t45.5 125.5t44 134t33 101.5q4 11 14 11 q14 -1 16 -15l-2 -6q-10 -28 -35 -106.5t-46 -138.5t-48 -128.5t-54.5 -110t-51.5 -48.5q-10 -4 -45 -4q-51 0 -72 12q-55 37 -55 217q0 117 25.5 330t25.5 241q0 23 -4 25q-126 -26 -251 -625q-2 -11 -3 -16q-4 -20 -6.5 -28t-8.5 -20.5t-17 -17t-28 -4.5q-22 0 -39 11.5 t-20 33.5q-8 78 -8 223zM254 930q13 61 61 65q13 0 56 -26q22 -13 30 -13q15 0 27 23q7 14 16 14q17 -3 17 -22v-6q-9 -27 -26.5 -45.5t-37.5 -18.5t-46 20.5t-38 20.5q-7 0 -21 -15.5t-20 -15.5q-18 6 -18 19z" />
<glyph unicode="&#xf2;" horiz-adv-x="417" d="M-41 559q0 24 8 43q18 45 55.5 70.5t79.5 25.5q66 0 114 -59.5t48 -171.5v-16q103 30 162 81q5 5 10 5q6 0 10 -7q5 -5 5 -10q0 -3 -7 -10q-72 -62 -180 -92q-15 -144 -65 -236q-39 -73 -90 -73h-11q-49 0 -69 20q-56 56 -56 201q0 22 1.5 44.5t3.5 40t3.5 31t2.5 21.5 l2 8l-2 5q-3 4 -6 8.5t-6.5 13t-6 16.5t-4.5 19t-2 22zM0 545q4 8 4 12q3 11 16 18t29 7l25 -4q43 -11 43 -43l-2 -13q-12 -39 -17 -88q12 -2 41 -2q42 0 97 10v25q0 93 -34.5 138.5t-82.5 45.5q-44 0 -80 -31.5t-39 -74.5zM84 899q0 12 14 25.5t27 13.5q6 0 12 -6l113 -133 q4 -2 4 -11q0 -7 -6.5 -13.5t-14.5 -6.5q-6 0 -10 2q-109 92 -135 117q-4 8 -4 12zM88 260q4 -105 25 -121q27 3 57 54q47 83 61 219q-57 -11 -90 -11q-12 0 -47 5q-6 -70 -6 -146z" />
<glyph unicode="&#xf3;" horiz-adv-x="417" d="M-41 559q0 24 8 43q18 45 55.5 70.5t79.5 25.5q66 0 114 -59.5t48 -171.5v-16q103 30 162 81q5 5 10 5q6 0 10 -7q5 -5 5 -10q0 -3 -7 -10q-72 -62 -180 -92q-15 -144 -65 -236q-39 -73 -90 -73h-11q-49 0 -69 20q-56 56 -56 201q0 22 1.5 44.5t3.5 40t3.5 31t2.5 21.5 l2 8l-2 5q-3 4 -6 8.5t-6.5 13t-6 16.5t-4.5 19t-2 22zM0 545q4 8 4 12q3 11 16 18t29 7l25 -4q43 -11 43 -43l-2 -13q-12 -39 -17 -88q12 -2 41 -2q42 0 97 10v25q0 93 -34.5 138.5t-82.5 45.5q-44 0 -80 -31.5t-39 -74.5zM55 817q0 4 4 8l115 133q7 7 12 7q13 0 27 -13.5 t14 -25.5q0 -7 -6 -13q-24 -24 -75 -67t-58 -49l-10 -2q-9 0 -16 6.5t-7 15.5zM88 260q4 -105 25 -121q27 3 57 54q47 83 61 219q-57 -11 -90 -11q-12 0 -47 5q-6 -70 -6 -146z" />
<glyph unicode="&#xf4;" horiz-adv-x="417" d="M-41 559q0 24 8 43q18 45 55.5 70.5t79.5 25.5q66 0 114 -59.5t48 -171.5v-16q103 30 162 81q5 5 10 5q6 0 10 -7q5 -5 5 -10q0 -3 -7 -10q-72 -62 -180 -92q-15 -144 -65 -236q-39 -73 -90 -73h-11q-49 0 -69 20q-56 56 -56 201q0 22 1.5 44.5t3.5 40t3.5 31t2.5 21.5 l2 8l-2 5q-3 4 -6 8.5t-6.5 13t-6 16.5t-4.5 19t-2 22zM0 545q4 8 4 12q3 11 16 18t29 7l25 -4q43 -11 43 -43l-2 -13q-12 -39 -17 -88q12 -2 41 -2q42 0 97 10v25q0 93 -34.5 138.5t-82.5 45.5q-44 0 -80 -31.5t-39 -74.5zM63 797q0 7 5 10l65 78q8 12 29 12l8 -4l61 -78 q2 -2 2 -6q0 -9 -9.5 -18t-18.5 -9q-6 0 -10 4l-50 64l-55 -64q-8 -4 -10 -4q-6 0 -11.5 5t-5.5 10zM88 260q4 -105 25 -121q27 3 57 54q47 83 61 219q-57 -11 -90 -11q-12 0 -47 5q-6 -70 -6 -146z" />
<glyph unicode="&#xf5;" horiz-adv-x="417" d="M-41 559q0 24 8 43q18 45 55.5 70.5t79.5 25.5q66 0 114 -59.5t48 -171.5v-16q103 30 162 81q5 5 10 5q6 0 10 -7q5 -5 5 -10q0 -3 -7 -10q-72 -62 -180 -92q-15 -144 -65 -236q-39 -73 -90 -73h-11q-49 0 -69 20q-56 56 -56 201q0 22 1.5 44.5t3.5 40t3.5 31t2.5 21.5 l2 8l-2 5q-3 4 -6 8.5t-6.5 13t-6 16.5t-4.5 19t-2 22zM0 545q4 8 4 12q3 11 16 18t29 7l25 -4q43 -11 43 -43l-2 -13q-12 -39 -17 -88q12 -2 41 -2q42 0 97 10v25q0 93 -34.5 138.5t-82.5 45.5q-44 0 -80 -31.5t-39 -74.5zM39 805q13 61 61 65q13 0 56 -26q22 -13 30 -13 q16 0 27 23q7 14 16 14q17 -3 17 -22v-6q-9 -27 -26.5 -45.5t-37.5 -18.5t-46 20.5t-38 20.5q-7 0 -21 -15.5t-20 -15.5q-18 6 -18 19zM88 260q4 -105 25 -121q27 3 57 54q47 83 61 219q-57 -11 -90 -11q-12 0 -47 5q-6 -70 -6 -146z" />
<glyph unicode="&#xf6;" horiz-adv-x="417" d="M-41 559q0 24 8 43q18 45 55.5 70.5t79.5 25.5q66 0 114 -59.5t48 -171.5v-16q103 30 162 81q5 5 10 5q6 0 10 -7q5 -5 5 -10q0 -3 -7 -10q-72 -62 -180 -92q-15 -144 -65 -236q-39 -73 -90 -73h-11q-49 0 -69 20q-56 56 -56 201q0 22 1.5 44.5t3.5 40t3.5 31t2.5 21.5 l2 8l-2 5q-3 4 -6 8.5t-6.5 13t-6 16.5t-4.5 19t-2 22zM0 545q4 8 4 12q3 11 16 18t29 7l25 -4q43 -11 43 -43l-2 -13q-12 -39 -17 -88q12 -2 41 -2q42 0 97 10v25q0 93 -34.5 138.5t-82.5 45.5q-44 0 -80 -31.5t-39 -74.5zM25 815q0 20 14.5 34.5t34.5 14.5q21 0 35 -14 t14 -35q0 -20 -14.5 -34.5t-34.5 -14.5q-21 0 -35 14t-14 35zM88 260q4 -105 25 -121q27 3 57 54q47 83 61 219q-57 -11 -90 -11q-12 0 -47 5q-6 -70 -6 -146zM176 815q0 21 14 35t35 14t35 -14t14 -35q0 -20 -14.5 -34.5t-34.5 -14.5q-21 0 -35 14t-14 35z" />
<glyph unicode="&#xf7;" horiz-adv-x="2048" d="M745 498q0 11 8 19.5t21 8.5l393 2q13 0 21 -9.5t8 -20.5q0 -13 -8 -22t-21 -9h-391q-14 0 -22.5 9t-8.5 22zM926 293q0 20 14.5 34.5t34.5 14.5t34.5 -14.5t14.5 -34.5t-14.5 -34.5t-34.5 -14.5t-34.5 14.5t-14.5 34.5zM926 682q0 21 14 35t35 14t35 -14t14 -35 q0 -20 -14.5 -34.5t-34.5 -14.5t-34.5 14.5t-14.5 34.5z" />
<glyph unicode="&#xf8;" horiz-adv-x="417" d="M-57 61q0 9 2 13l49 112q-3 7 -8 33q-13 60 -13 111q0 45 7 92q3 42 6 51v2l-2 2q0 1 -3 5.5t-6 11t-6 12.5q-10 23 -10 53q0 24 8 43q22 49 58 72q37 24 77 24q53 0 95 -39l30 70q5 11 15 14l10 5q2 0 12 -5q14 -3 17 -10q4 -8 4 -10q0 -4 -4 -16l-43 -101 q26 -51 26 -139v-16q97 28 162 81q1 1 3 2.5t3 2.5h4q6 0 10 -7q5 -5 5 -10q0 -3 -7 -10q-78 -66 -180 -92q-2 -35 -20 -111q-12 -53 -45 -125q-34 -73 -90 -73h-11q-13 0 -37 4q-19 3 -28 12l-33 -74q-7 -14 -14 -16q-6 -2 -17 -2h-6q-14 7 -16 14q-4 4 -4 14zM0 545 q4 8 4 12q3 11 16 18q14 7 29 7l25 -4q13 -2 30 -15q13 -10 13 -28l-2 -13q-12 -40 -17 -88h2l82 191q-26 26 -63 26q-42 0 -78 -28q-35 -30 -41 -78zM88 256q4 -52 8 -74q3 -32 17 -43q29 6 57 54q46 94 61 219q-35 -8 -79 -11zM164 432q48 4 72 10v25q0 61 -15 102z" />
<glyph unicode="&#xf9;" horiz-adv-x="638" d="M-6 365q0 130 10 210q3 26 22.5 38t45.5 12q34 -1 45.5 -15t11.5 -41l-2 -39q-4 -33 -11 -134t-7 -163q0 -50 6 -59q56 43 174 453q12 37 53 37l16 -2q22 -3 37 -16t15 -32v-6q-7 -45 -17 -212.5t-10 -284.5t12 -129q82 4 226 483l20 61q4 11 14 11l9 -2q6 -4 6 -13v-6 q-7 -13 -19 -61q-15 -49 -20.5 -66t-24.5 -74t-30.5 -86t-31.5 -79.5t-36 -78.5t-36 -59t-39.5 -45.5t-37.5 -15.5l-22 -2q-27 0 -43 8q-64 29 -64 299q0 65 8 221q-94 -304 -151 -334q-15 -6 -35 -6q-36 0 -49 10q-45 30 -45 218zM145 872q0 12 14 25.5t27 13.5q7 0 13 -6 l112 -133q4 -2 4 -10t-6.5 -14.5t-13.5 -6.5q-6 0 -10 2q-109 92 -135 117q-5 10 -5 12z" />
<glyph unicode="&#xfa;" horiz-adv-x="638" d="M-6 365q0 130 10 210q3 26 22.5 38t45.5 12q34 -1 45.5 -15t11.5 -41l-2 -39q-4 -33 -11 -134t-7 -163q0 -50 6 -59q56 43 174 453q12 37 53 37l16 -2q22 -3 37 -16t15 -32v-6q-7 -45 -17 -212.5t-10 -284.5t12 -129q82 4 226 483l20 61q4 11 14 11l9 -2q6 -4 6 -13v-6 q-7 -13 -19 -61q-15 -49 -20.5 -66t-24.5 -74t-30.5 -86t-31.5 -79.5t-36 -78.5t-36 -59t-39.5 -45.5t-37.5 -15.5l-22 -2q-27 0 -43 8q-64 29 -64 299q0 65 8 221q-94 -304 -151 -334q-15 -6 -35 -6q-36 0 -49 10q-45 30 -45 218zM152 748q0 4 4 8l114 133q6 6 13 6 q13 0 27 -13.5t14 -25.5q0 -5 -7 -12q-24 -24 -76.5 -68.5t-56.5 -48.5l-10 -2q-9 0 -15.5 7t-6.5 16z" />
<glyph unicode="&#xfb;" horiz-adv-x="638" d="M-6 365q0 130 10 210q3 26 22.5 38t45.5 12q34 -1 45.5 -15t11.5 -41l-2 -39q-4 -33 -11 -134t-7 -163q0 -50 6 -59q56 43 174 453q12 37 53 37l16 -2q22 -3 37 -16t15 -32v-6q-7 -45 -17 -212.5t-10 -284.5t12 -129q82 4 226 483l20 61q4 11 14 11l9 -2q6 -4 6 -13v-6 q-7 -13 -19 -61q-15 -49 -20.5 -66t-24.5 -74t-30.5 -86t-31.5 -79.5t-36 -78.5t-36 -59t-39.5 -45.5t-37.5 -15.5l-22 -2q-27 0 -43 8q-64 29 -64 299q0 65 8 221q-94 -304 -151 -334q-15 -6 -35 -6q-36 0 -49 10q-45 30 -45 218zM147 780q0 8 5 11l65 77q9 13 29 13l8 -4 l61 -78q2 -2 2 -6q0 -9 -9.5 -18t-18.5 -9q-6 0 -10 4l-50 64l-55 -64q-8 -4 -10 -4q-6 0 -11.5 4.5t-5.5 9.5z" />
<glyph unicode="&#xfc;" horiz-adv-x="638" d="M-6 365q0 130 10 210q3 26 22.5 38t45.5 12q34 -1 45.5 -15t11.5 -41l-2 -39q-4 -33 -11 -134t-7 -163q0 -50 6 -59q56 43 174 453q12 37 53 37l16 -2q22 -3 37 -16t15 -32v-6q-7 -45 -17 -212.5t-10 -284.5t12 -129q82 4 226 483l20 61q4 11 14 11l9 -2q6 -4 6 -13v-6 q-7 -13 -19 -61q-15 -49 -20.5 -66t-24.5 -74t-30.5 -86t-31.5 -79.5t-36 -78.5t-36 -59t-39.5 -45.5t-37.5 -15.5l-22 -2q-27 0 -43 8q-64 29 -64 299q0 65 8 221q-94 -304 -151 -334q-15 -6 -35 -6q-36 0 -49 10q-45 30 -45 218zM113 815q0 20 14.5 34.5t34.5 14.5 q21 0 35 -14t14 -35q0 -20 -14.5 -34.5t-34.5 -14.5q-21 0 -35 14t-14 35zM264 815q0 21 14 35t35 14t35 -14t14 -35q0 -20 -14.5 -34.5t-34.5 -14.5q-21 0 -35 14t-14 35z" />
<glyph unicode="&#xfd;" horiz-adv-x="673" d="M-12 389q0 131 37 273q6 28 63 28h14q62 -8 62 -51v-8q-4 -29 -18 -99.5t-22.5 -130t-8.5 -104.5q0 -41 4 -57q50 31 119 213t69 231q0 21 16.5 35.5t41.5 19.5l18 2q53 0 61 -47q21 -114 21 -346q198 167 217 184q5 5 8 5q5 0 12 -7q5 -5 5 -10q0 -3 -7 -10 q-46 -41 -237 -203q-10 -452 -94 -600q-58 -98 -158 -98h-16q-72 6 -104 51t-32 113l2 37q9 78 53 158t92 134t118 121v70q0 109 -9 293q-13 -43 -30.5 -93.5t-46.5 -120t-63 -116t-64 -49.5h-15q-48 0 -69 24q-39 42 -39 158zM90 -205v-22q0 -122 105 -133q37 4 63 63 t39.5 151.5t19 169t7.5 156.5q-102 -98 -164 -191t-70 -194zM180 834q0 4 4 8l115 133q6 6 12 6q13 0 27 -13.5t14 -25.5q0 -6 -6 -12q-24 -24 -76.5 -68.5t-56.5 -48.5l-10 -2q-9 0 -16 7t-7 16z" />
<glyph unicode="&#xfe;" horiz-adv-x="602" d="M-35 -10q0 209 24 443.5t60 346.5q9 27 53 27q54 -4 54 -39q0 -10 -2 -16q-19 -78 -47 -220.5t-33 -207.5q23 59 51.5 112.5t72 102.5t85.5 55l24 2q59 0 89 -49.5t30 -116.5l-2 -29q105 54 180 129q2 5 8 5q13 0 13 -13q0 -3 -7 -10q-78 -82 -200 -143 q-15 -59 -47.5 -120.5t-83 -109t-101.5 -47.5q-30 0 -44.5 14t-20.5 50q0 83 178 190q18 63 18 127q0 77 -34 90q-41 -11 -81.5 -62.5t-69.5 -120t-48.5 -129t-28.5 -104.5q-10 -120 -10 -221q0 -71 12 -231q0 -16 -6.5 -23t-21.5 -10q-35 0 -49.5 82.5t-14.5 245.5z M150 158q3 -19 9 -26.5t21 -10.5q26 1 60 59.5t49 124.5q-57 -34 -98 -74.5t-41 -72.5z" />
<glyph unicode="&#xff;" horiz-adv-x="673" d="M-12 389q0 131 37 273q6 28 63 28h14q62 -8 62 -51v-8q-4 -29 -18 -99.5t-22.5 -130t-8.5 -104.5q0 -41 4 -57q50 31 119 213t69 231q0 21 16.5 35.5t41.5 19.5l18 2q53 0 61 -47q21 -114 21 -346q198 167 217 184q5 5 8 5q5 0 12 -7q5 -5 5 -10q0 -3 -7 -10 q-46 -41 -237 -203q-10 -452 -94 -600q-58 -98 -158 -98h-16q-72 6 -104 51t-32 113l2 37q9 78 53 158t92 134t118 121v70q0 109 -9 293q-13 -43 -30.5 -93.5t-46.5 -120t-63 -116t-64 -49.5h-15q-48 0 -69 24q-39 42 -39 158zM90 -205v-22q0 -122 105 -133q37 4 63 63 t39.5 151.5t19 169t7.5 156.5q-102 -98 -164 -191t-70 -194zM133 874q0 20 14.5 35t34.5 15t34.5 -14t14.5 -36q0 -20 -14.5 -34.5t-34.5 -14.5q-21 0 -35 14t-14 35zM285 874q0 21 14 35.5t35 14.5q20 0 34.5 -14t14.5 -36q0 -20 -14.5 -34.5t-34.5 -14.5q-21 0 -35 14 t-14 35z" />
<glyph unicode="&#x152;" horiz-adv-x="1830" d="M0 715q0 184 66 344q95 240 317 252q143 0 231 -111q91 -117 136 -287q43 -173 43 -364q0 -69 -11 -174q160 75 252 145q90 112 236 150q-252 105 -252 327q0 98 39 177q38 84 110 135q68 51 172 51q277 -9 277 -309q0 -49 -8 -68q-9 -20 -31 -20q-16 3 -25 12 q-10 10 -10 24q0 19 8 27t19 12q6 2 14 6q4 4 4 11q-3 115 -53 188q-51 75 -172 84q-72 0 -121 -55q-51 -60 -74 -137q-24 -79 -24 -150q0 -100 47 -192t160 -113q8 -4 10 -6q2 -4 2 -10q0 -7 -4 -11q-2 -4 -10 -8q-112 -15 -185 -106q-70 -87 -106 -213q-35 -125 -35 -220 q0 -98 35 -198q34 -101 100 -164q66 -66 160 -66h6q126 18 209 121t141 242q54 137 99 283q37 121 69 204q3 9 12 9q3 0 13 -5q4 -4 4 -10v-6q-46 -111 -84 -235q-47 -152 -98 -279q-55 -138 -142 -238q-87 -98 -221 -116q-46 -4 -65 -4q-128 0 -209 63q-79 59 -121 164 q-41 103 -41 217q0 192 98 363q-78 -50 -207 -111q-22 -163 -67 -291q-46 -134 -123 -217q-78 -84 -184 -84q-25 0 -39 2q-122 21 -185 115q-62 92 -80 215t-18 235v72q-42 62 -64 152q-20 81 -20 176zM31 715q0 -148 55 -273q8 147 39 310q26 131 59 213q5 13 23 24 q15 6 35 6q25 0 51 -16q24 -15 24 -45q0 -7 -4 -19q-21 -69 -49 -229q-33 -192 -41 -379q73 -33 166 -33q75 0 156 19q71 17 145 43q10 102 10 199q0 105 -12 219q-11 107 -43 215q-15 72 -49 141t-86 121q-52 49 -131 49q-107 -6 -174 -70q-73 -66 -111 -163 q-63 -149 -63 -332zM223 227q0 -84 15 -186q15 -107 63 -178q46 -73 143 -82q92 26 146 123q48 91 69 207q21 115 27 192q-81 -29 -143 -41q-82 -16 -154 -16q-84 0 -166 28v-47z" />
<glyph unicode="&#x153;" horiz-adv-x="700" d="M-43 561q0 53 44 95t99 42q54 0 98 -39.5t60 -115.5q51 180 180 180q60 -3 86.5 -24t26.5 -68q0 -51 -37 -97.5t-88 -46.5q-15 0 -41 11q-18 -122 -18 -193q0 -74 14.5 -113t50.5 -40q36 0 71.5 26t61.5 61.5t54.5 92.5t45 97t37.5 97q3 11 17 11q14 -3 14 -15l-2 -6 q-62 -163 -113 -250q-47 -75 -89 -107.5t-99 -35.5q-77 0 -123 54.5t-63 135.5q-48 -199 -135 -204h-13q-47 0 -69 22q-56 61 -56 203q0 21 1.5 43.5t3 39.5t3.5 30.5t3 21.5l2 8q0 1 -7 12.5t-13.5 31.5t-6.5 40zM0 545q2 13 16 25t33 12q46 -7 56 -17t10 -28 q-1 -11 -7.5 -42t-9.5 -61q12 -2 41 -2q39 0 94 10l3 29q0 91 -34.5 135.5t-82.5 44.5q-44 0 -80 -30.5t-39 -75.5zM88 287q3 -131 23 -148q42 4 75.5 87.5t44.5 185.5q-47 -9 -88 -9l-49 3q-6 -58 -6 -119zM393 528q20 -10 35 -10q36 0 64 37t28 76q0 52 -53 61 q-38 -3 -74 -164z" />
<glyph unicode="&#x178;" horiz-adv-x="903" d="M0 737q0 163 20 332.5t35 214.5q17 43 78 43q78 -4 78 -57l-2 -8q-52 -272 -55 -662q0 -291 63 -291q4 0 12 4q31 14 64 79t63.5 167t56.5 202t50.5 221t36.5 184t24 128v2q0 28 28 47t62 19q25 0 43.5 -12t18.5 -35q29 -302 29 -592q0 -164 -11 -299q172 75 217 108 q5 5 11 5t10 -6t4 -11q0 -7 -6 -10q-25 -19 -69 -42t-70.5 -35t-98.5 -44q-16 -183 -58 -335.5t-104 -229.5q-39 -48 -95.5 -77.5t-112.5 -29.5l-25 2q-93 10 -142 67t-49 136q0 59 26 114t66.5 98t102 86.5t119 74.5t131.5 65q10 123 10 306q0 280 -24 526 q-162 -849 -297 -905q-26 -13 -54 -13q-38 0 -73 21q-113 67 -113 442zM137 -78q0 -68 41 -116.5t123 -57.5q41 3 84.5 51.5t67.5 98.5q69 141 96 428q-84 -39 -149 -77.5t-129 -89.5t-99 -111.5t-35 -125.5zM268 1524q0 20 14.5 34.5t34.5 14.5q21 0 35.5 -14t14.5 -35 q0 -20 -15 -34.5t-35 -14.5q-21 0 -35 14t-14 35zM420 1524q0 21 14 35t35 14t35 -14t14 -35q0 -20 -14.5 -34.5t-34.5 -14.5q-21 0 -35 14t-14 35z" />
<glyph unicode="&#x2c6;" horiz-adv-x="296" d="M61 1137q0 7 5 10l65 78q8 12 29 12l8 -4l61 -78q2 -2 2 -6q0 -9 -9.5 -18t-18.5 -9q-6 0 -10 4l-50 64l-55 -64q-8 -4 -10 -4q-6 0 -11.5 5t-5.5 10z" />
<glyph unicode="&#x2dc;" horiz-adv-x="311" d="M68 1153q7 32 24 48t37 18q11 0 55 -27q20 -12 31 -12q16 0 27 22q8 15 16 15q16 -3 16 -23v-6q-9 -28 -26.5 -46t-36.5 -18q-20 0 -46 20.5t-38 20.5q-7 0 -21 -15t-20 -15q-11 3 -14.5 6.5t-3.5 11.5z" />
<glyph unicode="&#x2000;" horiz-adv-x="839" />
<glyph unicode="&#x2001;" horiz-adv-x="1679" />
<glyph unicode="&#x2002;" horiz-adv-x="839" />
<glyph unicode="&#x2003;" horiz-adv-x="1679" />
<glyph unicode="&#x2004;" horiz-adv-x="559" />
<glyph unicode="&#x2005;" horiz-adv-x="419" />
<glyph unicode="&#x2006;" horiz-adv-x="279" />
<glyph unicode="&#x2007;" horiz-adv-x="279" />
<glyph unicode="&#x2008;" horiz-adv-x="209" />
<glyph unicode="&#x2009;" horiz-adv-x="335" />
<glyph unicode="&#x200a;" horiz-adv-x="93" />
<glyph unicode="&#x2010;" horiz-adv-x="802" d="M170 489q0 9 7 16t16 7h391q9 0 15.5 -7t6.5 -16t-6.5 -15.5t-15.5 -6.5h-391q-9 0 -16 6.5t-7 15.5z" />
<glyph unicode="&#x2011;" horiz-adv-x="802" d="M170 489q0 9 7 16t16 7h391q9 0 15.5 -7t6.5 -16t-6.5 -15.5t-15.5 -6.5h-391q-9 0 -16 6.5t-7 15.5z" />
<glyph unicode="&#x2012;" horiz-adv-x="802" d="M170 489q0 9 7 16t16 7h391q9 0 15.5 -7t6.5 -16t-6.5 -15.5t-15.5 -6.5h-391q-9 0 -16 6.5t-7 15.5z" />
<glyph unicode="&#x2013;" horiz-adv-x="1390" d="M170 489q0 9 16.5 16t37.5 7h918q21 0 36.5 -7t15.5 -16t-15.5 -15.5t-36.5 -6.5h-918q-21 0 -37.5 6.5t-16.5 15.5z" />
<glyph unicode="&#x2014;" horiz-adv-x="2414" d="M170 489q0 9 33 16t75 7h1837q42 0 72.5 -7t30.5 -16t-30.5 -15.5t-72.5 -6.5h-1837q-42 0 -75 6.5t-33 15.5z" />
<glyph unicode="&#x2018;" horiz-adv-x="184" d="M49 1196q0 39 23 73t51 44q5 0 10 -10q-31 -40 -37 -58q22 0 36.5 -13.5t14.5 -35.5q0 -20 -14.5 -34.5t-34.5 -14.5q-19 0 -34 13t-15 36z" />
<glyph unicode="&#x2019;" horiz-adv-x="178" d="M25 1260q0 22 13.5 35.5t33.5 13.5q19 0 34 -12.5t15 -34.5q0 -38 -21.5 -74t-48.5 -45q-12 0 -12 10q0 4 2 6q24 24 33 53h-4q-20 0 -32.5 14.5t-12.5 33.5z" />
<glyph unicode="&#x201a;" horiz-adv-x="198" d="M53 135q0 20 14.5 34.5t34.5 14.5q19 0 34.5 -13t15.5 -36q0 -38 -22.5 -73.5t-49.5 -43.5h-2q-8 0 -8 11q0 4 2 4q25 29 32 53h-4q-20 0 -33.5 14.5t-13.5 34.5z" />
<glyph unicode="&#x201c;" horiz-adv-x="307" d="M37 1194q0 39 22.5 75t51.5 42q4 0 8 -11q0 -4 -2 -4q-26 -31 -33 -53q22 0 36.5 -13.5t14.5 -35.5q0 -20 -14.5 -34.5t-34.5 -14.5q-19 0 -34 13t-15 36zM160 1194q0 39 22 75t51 42q5 0 9 -11q0 -4 -2 -4q-29 -34 -33 -53q21 0 35 -14t14 -35t-14 -35t-35 -14 q-17 0 -32 13t-15 36z" />
<glyph unicode="&#x201d;" horiz-adv-x="284" d="M25 1260q0 21 14 35t35 14q19 0 34 -12.5t15 -34.5q0 -38 -22 -74t-50 -45l-8 4q-2 2 -2 6t2 6q24 24 33 53h-4q-20 0 -33.5 14.5t-13.5 33.5zM150 1260q0 21 14 35t35 14q19 0 34 -12.5t15 -34.5q0 -37 -22.5 -73.5t-49.5 -45.5l-10 4l-2 4q3 6 17.5 25t19.5 36h-4 q-20 0 -33.5 14.5t-13.5 33.5z" />
<glyph unicode="&#x201e;" horiz-adv-x="305" d="M33 135q0 20 14.5 34.5t34.5 14.5q47 0 47 -53q0 -36 -21.5 -70.5t-48.5 -42.5h-4q-4 0 -8 11q3 9 18 26.5t19 30.5h-4q-20 0 -33.5 14.5t-13.5 34.5zM158 135q0 21 14 35t35 14q17 0 32 -13t15 -36q0 -38 -21.5 -73.5t-48.5 -43.5h-4q-4 0 -8 11q0 4 2 4q26 31 33 53h-4 q-20 0 -32.5 14t-12.5 35z" />
<glyph unicode="&#x2022;" horiz-adv-x="575" d="M158 471q0 51 35 86t86 35q49 0 83.5 -35.5t34.5 -85.5t-34.5 -85.5t-83.5 -35.5q-51 0 -86 37t-35 84z" />
<glyph unicode="&#x202f;" horiz-adv-x="335" />
<glyph unicode="&#x2039;" horiz-adv-x="395" d="M84 432l4 10l184 217q4 7 11 7q5 0 10.5 -5.5t5.5 -11.5l-4 -10l-164 -195l166 -151q6 -6 6 -14q0 -10 -6 -19.5t-14 -9.5q-7 0 -11 4l-182 166q-6 6 -6 12z" />
<glyph unicode="&#x203a;" horiz-adv-x="360" d="M68 637q1 2 2 7.5t1.5 7.5t2 5.5t3 5t4.5 2.5t7 1q5 0 12 -7l183 -165q4 -4 4 -11q0 -4 -4 -12l-183 -217q-8 -4 -12 -4q-16 0 -16 16l4 8l166 195l-168 152q-6 6 -6 16z" />
<glyph unicode="&#x205f;" horiz-adv-x="419" />
<glyph unicode="&#x20ac;" horiz-adv-x="886" d="M51 481q0 8 7 15.5t18 7.5h104q0 78 10 137h-114q-19 0 -23 21q0 24 23 24h123q36 195 135.5 308t257.5 120q66 0 125.5 -31t83.5 -84q4 -12 4 -16q0 -24 -29 -27q-14 0 -22.5 8t-8.5 17q0 7 5.5 17t5.5 14q0 2 -1 4.5t-1 3.5q-28 32 -73.5 48.5t-94.5 16.5 q-50 -1 -93.5 -43.5t-72 -110t-46.5 -127.5t-28 -118l172 2q23 0 23 -24q0 -8 -6.5 -15.5t-16.5 -7.5h-180l-10 -137h190q10 0 16.5 -6.5t6.5 -14.5q0 -9 -6.5 -16.5t-16.5 -7.5h-192q1 -64 10 -125.5t29.5 -129t63 -115.5t101.5 -62q118 3 215 110q7 11 7 17l-2 16 q0 10 7.5 17.5t20.5 7.5q25 0 25 -23q0 -14 -10 -27q-120 -146 -263 -149h-4q-134 0 -234 130.5t-110 332.5h-106q-22 0 -25 22z" />
<glyph unicode="&#x2122;" horiz-adv-x="1091" d="M119 1225q0 11 7 19.5t21 8.5h338q13 0 19 -5t7.5 -10t2.5 -19q0 -10 -8.5 -17.5t-20.5 -7.5h-141l-4 -358q0 -14 -10 -21.5t-23 -7.5q-10 0 -18 7.5t-8 21.5l4 358h-138q-28 0 -28 31zM569 831v381q0 14 9.5 22.5t21.5 8.5q19 0 27 -18l108 -289q70 217 88 293 q3 22 27 22q12 0 20.5 -6.5t8.5 -19.5l14 -391q0 -18 -27 -27q-12 0 -21 7.5t-9 21.5l-9 192l-61 -192q-2 -6 -5 -10t-6.5 -6.5t-6 -3.5t-7.5 -2.5t-6 -2.5q-7 0 -14 7t-10 18l-80 221l-4 -226q0 -14 -10 -23t-23 -9q-25 8 -25 32z" />
<glyph unicode="&#x25fc;" horiz-adv-x="747" d="M0 0v748h748v-748h-748z" />
</font>
</defs>
</svg>
